/* XPM */
static char * 2_xpm[] = {
"44 50 58 1",
" 	c None",
".	c #757575",
"+	c #3E3E3E",
"@	c #3D3D3D",
"#	c #3B3B3B",
"$	c #6A6A6A",
"%	c #010101",
"&	c #000000",
"*	c #C6C6C6",
"=	c #626262",
"-	c #C0C0C0",
";	c #464646",
">	c #3C3C3C",
",	c #393839",
"'	c #0E0E0E",
")	c #020202",
"!	c #313131",
"~	c #898989",
"{	c #232323",
"]	c #6B6B6B",
"^	c #848484",
"/	c #090909",
"(	c #030303",
"_	c #797979",
":	c #222222",
"<	c #131313",
"[	c #141414",
"}	c #6D6D6D",
"|	c #7B7B7B",
"1	c #787878",
"2	c #777777",
"3	c #0C0C0C",
"4	c #4B4B4B",
"5	c #121212",
"6	c #111111",
"7	c #333333",
"8	c #393939",
"9	c #878787",
"0	c #484848",
"a	c #040404",
"b	c #494949",
"c	c #7F7F7F",
"d	c #4E4E4E",
"e	c #686868",
"f	c #BBBBBB",
"g	c #BABABA",
"h	c #696969",
"i	c #8D8D8D",
"j	c #888888",
"k	c #8F8F8F",
"l	c #212121",
"m	c #505050",
"n	c #767676",
"o	c #9F9F9F",
"p	c #050505",
"q	c #7C7C7C",
"r	c #7A7A7A",
"s	c #1D1D1D",
"                                            ",
"                                            ",
"                                            ",
"         .+++++++++++++++++++++++@#         ",
"         $%&&&&&&&&&&&&&&&&&&&&&&&&*        ",
"         $%&&&&&&&&&&&&&&&&&&&&&&&&*        ",
"         $%&&&&&&&&&&&&&&&&&&&&&&&&*        ",
"         $%&&&&&&&&&&&&&&&&&&&&&&&&*        ",
"         =&&&&&&&&%%%%%%%%%%&&&&&&&-        ",
"   ;###>,'&&&&&&&%))))))))))&&&&&&%!#####~  ",
"   {)%%%%&&&&&&&]          ^/&&&&&&)))))(_  ",
"   :&&&&%%%%%%%&            <&&&&&&&&&&&%_  ",
"   :&&&&%%%%%%%&            <&&&&&&&&&&&%_  ",
"   :&&&&&&&&&&&&            [&&&&&&&&&&&%_  ",
"   :&&&&&&&&&&&&            [&&&&&&&&&&&%_  ",
"   :&&&&&&&&&&&&}           [&&&&&&&&&&&%_  ",
"   |1__________2            [&&&&&&&&&&&%_  ",
"                            [&&&&&&&&&&&%_  ",
"                            [&&&&&&&&&&&%_  ",
"                            <%&&&&&&&&&&%_  ",
"                            [%&&&&&&&&&&%_  ",
"                            3%&&&&&&&&&&%_  ",
"               456666666666/&&&&&&&7#888#9  ",
"               0)%%%%%%%%%%&&&&&&&a         ",
"               b)&&&&&&&&&&&&&&&&&&         ",
"               b)&&&&&&&&&&&&&&&&&&*        ",
"               b)&&&&&&&&&&&&&&&&&&*        ",
"               b)&&&&&&&&&&&&&&&&&&*        ",
"         cddddd!%&&&&&&&&&&&&&&&&&&         ",
"         $%%%%%%&&&&&&effffffffffgg         ",
"         h&&&&&&&&&&&&2                     ",
"         h&&&&&&&&&&&&2                     ",
"         h&&&&&&&&&&&&2                     ",
"         h&&&&&&&&&&&&2                     ",
"   i~~~jk;&&&&&%%))))(1                     ",
"   l&&&&&&&&&&&&mnnnn1o                     ",
"   l&&&&&&&&&&&&                            ",
"   l&&&&&&&&&&&&                            ",
"   l&&&&&&&&&&&&                            ",
"   l&&&&&&&&&&&&                            ",
"   l&&&&&&&&&&&&2                           ",
"   l&&&&&&&&&&&%p66666666666666666666666<q  ",
"   l&&&&&&&&&&&&&&&&&&&&&&&&&&&&&&&&&&&&)1  ",
"   l&&&&&&&&&&&&&&&&&&&&&&&&&&&&&&&&&&&&)_  ",
"   l&&&&&&&&&&&&&&&&&&&&&&&&&&&&&&&&&&&&)r  ",
"   l&&&&&&&&&&&&&&&&&&&&&&&&&&&&&&&&&&&&)_  ",
"   l&&%%%%%%%%%%%%%%%%%%%%%%%%%%%%%%%%%%)_  ",
"   s&&&&&&&&&&&&&&&&&&&&&&&&&&&&&&&&&&&&&r  ",
"                                            ",
"                                            "};
