/* XPM */
static char * 3_xpm[] = {
"44 50 59 1",
" 	c None",
".	c #B1B1B1",
"+	c #B2B2B2",
"@	c #1E1E1E",
"#	c #010101",
"$	c #4F4F4F",
"%	c #000000",
"&	c #505050",
"*	c #1D1D1D",
"=	c #4C4C4C",
"-	c #AAAAAA",
";	c #292929",
">	c #2A2A2A",
",	c #242424",
"'	c #1A1A1A",
")	c #171717",
"!	c #131313",
"~	c #030303",
"{	c #272727",
"]	c #282828",
"^	c #2E2E2E",
"/	c #A5A5A5",
"(	c #020202",
"_	c #121212",
":	c #A4A4A4",
"<	c #111111",
"[	c #A3A3A3",
"}	c #9C9C9C",
"|	c #343434",
"1	c #5B5B5B",
"2	c #313131",
"3	c #5A5A5A",
"4	c #494949",
"5	c #4A4A4A",
"6	c #4B4B4B",
"7	c #454545",
"8	c #747474",
"9	c #5D5D5D",
"0	c #5E5E5E",
"a	c #040404",
"b	c #181818",
"c	c #191919",
"d	c #212121",
"e	c #A9A9A9",
"f	c #606060",
"g	c #616161",
"h	c #676767",
"i	c #2D2D2D",
"j	c #2C2C2C",
"k	c #323232",
"l	c #414141",
"m	c #3F3F3F",
"n	c #404040",
"o	c #383838",
"p	c #434343",
"q	c #828282",
"r	c #808080",
"s	c #7F7F7F",
"t	c #878787",
"                                            ",
"                                            ",
"         .........................+         ",
"         @########################$         ",
"         @#%######################$         ",
"         @#%%%%%%%%%%%%%%%%%%%%%%%$         ",
"         @#%%%%%%%%%%%%%%%%%%%%%%%&         ",
"         @#%%%%%%%%%%%%%%%%%%%%%%%$         ",
"         *%%%%%%%%%%%%%%%%%%%%%%%%=         ",
"  -;>>;;,#%%%%%%'))))))))))!%%%%%%~{>;]]^   ",
"  /(######%%%%%%            %%%%%%%%#%%%_   ",
"  :#%%%%%%%%%%%%            %#%%%%%%#%%%<   ",
"  :#%%%%%%%%%%%%            %#%%%%%%%%%%_   ",
"  /#%%%%%%%%%%%%            %#%%%%%%%%%%_   ",
"  :(#%%%%%%%%%%%            %#%%%%%%%%%%_   ",
"  [%%%%%%%%%%%%%            %#%%%%%%%%%%_   ",
"   }}}}}}}}}}}}}            %#%%%%%%%%%%_   ",
"                            %#%%%%%%%%%%_   ",
"                            %#%%%%%%%%%%_   ",
"                            %#%%%%%%%%%%_   ",
"                            %#%%%%%%%%%%_   ",
"                           |%%%%%%#((###!   ",
"               1#%%%%%%%%%#%%%%%%%2345556   ",
"               1#%%%%%%%%%%%%%%%%%&         ",
"               1#%%%%%%%%%%%%%%%%%&         ",
"               1#%%%%%%%%%%%%%%%%%&         ",
"               1#%%%%%%%%%%%%%%%%%&         ",
"               1#%%%%%%%%%##%%%%%%7         ",
"               890000000000>%%%%%%abccccd   ",
"                            %%%%%%%%%%%%_   ",
"                            %%%%%%%%%%%%_   ",
"                            %%%%%%%%%%%%_   ",
"                            %%%%%%%%%%%%_   ",
"                            %%%%%%%%%%%%_   ",
"  effggggggggggf            %%%%%%%%%%%%_   ",
"  [#%%%%%%%%%%#%            %%%%%%%%%%%%_   ",
"  [#%%%%%%%%%%#%            %%%%%%%%%%%%_   ",
"  :#%%%%%%%%%%#%            %%%%%%%%%%%%_   ",
"  [############%            %%%%%%%%%%%%_   ",
"  [############%            %%%%%%%%%%%%_   ",
"  :%%%%%%%%####%hijjjjjjjjik%%%%%%%%%%%%_   ",
"   lmmmmn!%%####%%%%%%%%%%%%%%%%%%o9mmmmp   ",
"         @%%%####%%%%%%%%%%%%%%%%%&         ",
"         @%%%%%%%%%%%%%%%%%%%%%%%%&         ",
"         @%%%%%%%%%%%%%%%%%%%%%%%%&         ",
"         @%%%%%%%%%%%%%%%%%%%%%%%%&         ",
"         @#%%%%%%%%%%%%%%%%%%%%%%%$         ",
"         qrssssssssssssssssssssssst         ",
"                                            ",
"                                            "};
