/* XPM */
static char * 4_xpm[] = {
"44 50 31 1",
" 	c None",
".	c #5C5C5C",
"+	c #3D3D3D",
"@	c #464646",
"#	c #979797",
"$	c #3E3E3E",
"%	c #4E4E4E",
"&	c #4F4F4F",
"*	c #020202",
"=	c #000000",
"-	c #2E2E2E",
";	c #919191",
">	c #010101",
",	c #313131",
"'	c #2F2E2F",
")	c #929292",
"!	c #0F0F0F",
"~	c #4D4D4D",
"{	c #4C4C4C",
"]	c #393939",
"^	c #BABABA",
"/	c #BBBBBB",
"(	c #BCBCBC",
"_	c #9B9B9B",
":	c #9D9D9D",
"<	c #9E9E9E",
"[	c #757575",
"}	c #767676",
"|	c #777777",
"1	c #5F5F5F",
"2	c #909090",
"                                            ",
"                                            ",
"                                            ",
"  .++++++++++++@           #$$$$$$$$$$$$%   ",
"  &*===========-           ;>>>>>>>>>>>>,   ",
"  &*===========-           ;============,   ",
"  &>===========-           ;============,   ",
"  %>===========-           ;============,   ",
"  %>===========-           ;============,   ",
"  %>===========-           ;============,   ",
"  %>===========-           ;============,   ",
"  %>===========-           ;============,   ",
"  %>===========-           ;============,   ",
"  %>===========-           ;============,   ",
"  %>===========-           ;============,   ",
"  %>===========-           ;============,   ",
"  %>===========-           ;============,   ",
"  %>===========-           ;============,   ",
"  %>===========-           ;============,   ",
"  %>===========-           ;============,   ",
"  %>===========-           ;============,   ",
"  %>===========-           ;============,   ",
"  %>===========-           ;============,   ",
"  %>===========-           ;============,   ",
"  %>===========-           ;============,   ",
"  &*>>>>>>=====-           ;============,   ",
"  &*>>>>>>=====-           ;============,   ",
"  &*>>>>>>====='           )============,   ",
"  &======>=====!~~{{{{{{{{{]>===========,   ",
"   ^///(_=======>>>>>>>>>>>>============,   ",
"        :===============================,   ",
"        :===============================,   ",
"        :===============================,   ",
"        :===============================,   ",
"        <=****************>=============,   ",
"         [}}}}}}}}}}}}}}}}|1============,   ",
"                           ;============,   ",
"                           2============,   ",
"                           2============,   ",
"                           2============,   ",
"                           2============,   ",
"                           2============,   ",
"                           2============,   ",
"                           2============,   ",
"                           2============,   ",
"                           2============,   ",
"                           2=======>>>>>,   ",
"                           2============-   ",
"                                            ",
"                                            "};
