/* XPM */
static char * 6_xpm[] = {
"44 50 48 1",
" 	c None",
".	c #777777",
"+	c #383838",
"@	c #626262",
"#	c #6B6B6B",
"$	c #000000",
"%	c #5B5B5B",
"&	c #6D6D6D",
"*	c #444444",
"=	c #343434",
"-	c #333333",
";	c #323232",
">	c #373737",
",	c #020202",
"'	c #010101",
")	c #2E2E2E",
"!	c #3F3F3F",
"~	c #232323",
"{	c #030303",
"]	c #434343",
"^	c #505050",
"/	c #1E1E1E",
"(	c #555555",
"_	c #666666",
":	c #9F9F9F",
"<	c #8A8A8A",
"[	c #898989",
"}	c #8E8E8E",
"|	c #4F4F4F",
"1	c #5D5D5D",
"2	c #5A5A5A",
"3	c #040404",
"4	c #090909",
"5	c #080808",
"6	c #252525",
"7	c #404040",
"8	c #4D4D4D",
"9	c #4A4A4A",
"0	c #545454",
"a	c #575757",
"b	c #676767",
"c	c #565656",
"d	c #313131",
"e	c #0A0A0A",
"f	c #3E3E3E",
"g	c #6E6E6E",
"h	c #595959",
"i	c #6C6C6C",
"                                            ",
"                                            ",
"                                            ",
"        .+++++++++++++++++++++++++@         ",
"        #$$$$$$$$$$$$$$$$$$$$$$$$$%         ",
"        #$$$$$$$$$$$$$$$$$$$$$$$$$%         ",
"        #$$$$$$$$$$$$$$$$$$$$$$$$$%         ",
"        #$$$$$$$$$$$$$$$$$$$$$$$$$%         ",
"        &$$$$$$$$$$$$$$$$$$$$$$$$$%         ",
"  *=-;;;>$$$$$$$,,,,,,,,,,,'$$$$$$)=;;;;!   ",
"  ~{'$$$$$$$$$$]           ^''''''$$$$''/   ",
"  ~{$$$$$$$$$$$(           _'$''''$$$$$'/   ",
"  ~,$$$$$$$$$$'(           _,$$$$$$$$$$'/   ",
"  ~,$$$$$$$$$$'(           _,$$$$$$$$$$'/   ",
"  ~,$$$$$$$$$$'(           _,$$$$$$$$$$'/   ",
"  ~,$$$$$$$$$$'(           _,$$$$$$$$$$'/   ",
"  ~,$$$$$$$$$$'(           :<<[[[[[[[[[[}   ",
"  ~,$$$$$$$$$$'(                            ",
"  ~,$$$$$$$$$$'(                            ",
"  ~,$$$$$$$$$$'(                            ",
"  ~,$$$$$$$$$$$(                            ",
"  ~,$$$$$$$$$$$|                            ",
"  ~,$$$$$$$$$$$$'$$$$$$$$$$$$$$$$$1         ",
"  ~,$$$$$$$$$$$$$$$'''''''''''''''%         ",
"  ~,$$$$$$$$$$$$$$$$$$$$$$$$$$$$''%         ",
"  ~,$$$$$$$$$$$$$$$$$$$$$$$$$$$$''%         ",
"  ~,$$$$$$$$$$$$$$$$$$$$$$$$$$$$''2         ",
"  ~,$$$$$$$$$$$$$$$$$$$$$$$$$$$$''2         ",
"  ~,$$$$$$$$$$$$3455555555{'$$$$''67!!!!8   ",
"  ~,$$$$$$$$$$$9           0$$$$$'''''',/   ",
"  ~,$$$$$$$$$$'a           b'$$$$$$$$$$'/   ",
"  ~,$$$$$$$$$$'a           b'$$$$$$$$$$'/   ",
"  ~,$$$$$$$$$$'a           b$$$$$$$$$$$'/   ",
"  ~,$$$$$$$$$$'a           b$$$$$$$$$$$'/   ",
"  ~,$$$$$$$$$$'a           b'$$$$$$$$$$'/   ",
"  ~,$$$$$$$$$$'a           b'$$$$$$$$$$'/   ",
"  ~,$$$$$$$$$$'a           b'$$$$$$$$$$'/   ",
"  ~,$$$$$$$$$$'a           b'$$$$$$$$$$'/   ",
"  ~,$$$$$$$$$$'a           b'$$$$$$$$$$'/   ",
"  ~,$$$$$$$$$$'c           b'$$$$$$$$$$'/   ",
"  ~{$$$$$$$$$$'9           c'$$$$$$'$$',/   ",
"  87!!!!d$$$$$'$e5555555555'$$$$$$6ffff!9   ",
"        &$$$$$$$$$$$$$$$$$$$$$$$$$2         ",
"        g$$$$$$$$$$$$$$$$$$$$$$$$$2         ",
"        g$$$$$$$$$$$$$$$$$$$$$$$$$2         ",
"        g$$$$$$$$$$$$$$$$$$$$$$$$$2         ",
"        g$$$$$$$$$$$$$$$$$$$$$$$$$h         ",
"        i$$$$$$$$$$$$$$$$$$$$$$$$$%         ",
"                                            ",
"                                            "};
