/* XPM */
static char * 7_xpm[] = {
"44 50 37 1",
" 	c None",
".	c #414141",
"+	c #383838",
"@	c #7F7F7F",
"#	c #222222",
"$	c #010101",
"%	c #000000",
"&	c #787878",
"*	c #232323",
"=	c #030303",
"-	c #0D0D0D",
";	c #141414",
">	c #131313",
",	c #7E7E7E",
"'	c #808080",
")	c #7B7B7B",
"!	c #090909",
"~	c #959595",
"{	c #7A7A7A",
"]	c #8B8B8B",
"^	c #8A8A8A",
"/	c #898989",
"(	c #888888",
"_	c #939393",
":	c #979797",
"<	c #989898",
"[	c #C5C5C5",
"}	c #040404",
"|	c #909090",
"1	c #4C4C4C",
"2	c #060606",
"3	c #404040",
"4	c #424242",
"5	c #444444",
"6	c #494949",
"7	c #353535",
"8	c #484848",
"                                            ",
"                                            ",
"                                            ",
"   .+++++++++++++++++++++++++++++++++++++@  ",
"   #$$%%%%%%%%%%%%%%%%%%%%%%%%%%%%%%%%%%$&  ",
"   #$$%%%%%%%%%%%%%%%%%%%%%%%%%%%%%%%%%%$&  ",
"   #$$%%%%%%%%%%%%%%%%%%%%%%%%%%%%%%%%%%$&  ",
"   #$$%%%%%%%%%%%%%%%%%%%%%%%%%%%%%%%%%%$&  ",
"   #$$$$$$$$$$$$$$$$$$$$$$$$$%%%%%%%%%%%$&  ",
"   *========================$%%%%%%%%%%%$&  ",
"                            -%%%%%%%%%%%$&  ",
"                            ;%%%%%%%%%%%$&  ",
"                            ;%%%%%%%%%%%$&  ",
"                            ;%%%%%%%%%%%$&  ",
"                            >%%%%%%%%%%%$&  ",
"                      ,@@'')!%%%%%%%%%%%$&  ",
"                     ~%%%%%%%%%%%%%{]^^/(_  ",
"                     :%$$$$%%%%%%%%         ",
"                     <%%%%%%%%%%%%%[        ",
"                     <%%%%%%%%%%%%%         ",
"                     :%%%%%%%%%%%%}         ",
"                     |%%%%%%%%%%%%}         ",
"               1%%%%%}%%%%%%2344445         ",
"               6$%%%%%%%%%%$7               ",
"               8%%%%%%%%%%%%7               ",
"               8%%%%%%%%%%%%7               ",
"               8%%%%%%%%%%%%7               ",
"               8%%%%%%%%%%%%7               ",
"               8%%%%%%%%%%%%7               ",
"               8%%%%%%%%%%%%7               ",
"               8%%%%%%%%%%%%7               ",
"               8%%%%%%%%%%%%7               ",
"               8%%%%%%%%%%%%7               ",
"               8%%%%%%%%%%%%7               ",
"               8%%%%%%%%%%%%7               ",
"               8%%%%%%%%%%%%7               ",
"               8%%%%%%%%%%%%7               ",
"               8%%%%%%%%%%%%7               ",
"               8%%%%%%%%%%%%7               ",
"               8%%%%%%%%%%%%7               ",
"               8%%%%%%%%%%%%7               ",
"               8%%%%%%%%%%%%7               ",
"               8%%%%%%%%%%%%7               ",
"               8%%%%%%%%%%%%7               ",
"               8%%%%%%%%%%%%7               ",
"               8%%%%%%%%%%%%7               ",
"               8$%%%%%%%%%%%7               ",
"               6%%%%%%%%%%%%7               ",
"                                            ",
"                                            "};
