/* XPM */
static char * 8_xpm[] = {
"44 50 49 1",
" 	c None",
".	c #414141",
"+	c #393939",
"@	c #383838",
"#	c #5E5E5E",
"$	c #1E1E1E",
"%	c #000000",
"&	c #505050",
"*	c #AEAEAE",
"=	c #313131",
"-	c #0B0B0B",
";	c #010101",
">	c #020202",
",	c #030303",
"'	c #262626",
")	c #323232",
"!	c #353535",
"~	c #A3A3A3",
"{	c #848484",
"]	c #3F3F3F",
"^	c #121212",
"/	c #A4A4A4",
"(	c #C3C3C3",
"_	c #959595",
":	c #444444",
"<	c #434343",
"[	c #3D3D3D",
"}	c #0E0E0E",
"|	c #424242",
"1	c #1D1D1D",
"2	c #515151",
"3	c #3E3E3E",
"4	c #040404",
"5	c #080808",
"6	c #070707",
"7	c #171717",
"8	c #404040",
"9	c #979797",
"0	c #606060",
"a	c #131313",
"b	c #999999",
"c	c #ADADAD",
"d	c #3A3A3A",
"e	c #050505",
"f	c #090909",
"g	c #181818",
"h	c #1F1F1F",
"i	c #1B1B1B",
"j	c #4F4F4F",
"                                            ",
"                                            ",
"                                            ",
"         .+@@@@@@@@@@@@@@@@@@@@@@@#         ",
"         $%%%%%%%%%%%%%%%%%%%%%%%%&         ",
"         $%%%%%%%%%%%%%%%%%%%%%%%%&         ",
"         $%%%%%%%%%%%%%%%%%%%%%%%%&         ",
"         $%%%%%%%%%%%%%%%%%%%%%%%%&         ",
"         $%%%%%%%%%%%%%%%%%%%%%%%%&         ",
"  *======-%%%%%%;>,,,,,,,,,>%%%%%%'.))))!   ",
"  ~;;;%%%%%%%%%%{          ]%%%%%%;;>;;;^   ",
"  ~;%%%%%%%%%%%%            %%%%%%%%%%%%^   ",
"  ~%%%%%%%%%%%%%            %%%%%%%%%%%%^   ",
"  ~%%%%%%%%%%%%%            %%%%%%%%%%%%^   ",
"  ~%%%%%%%%%%%%%            %%%%%%%%%%%%^   ",
"  ~%%%%%%%%%%%%%            %%%%%%%%%%%%^   ",
"  ~%%%%%%%%%%%%%            %%%%%%%%%%%%^   ",
"  ~%%%%%%%%%%%%%            %%%%%%%%%%%%^   ",
"  ~%%%%%%%%%%%%%            %%%%%%%%%%%%^   ",
"  ~%%%%%%%%%%%%%            %%%%%%%%%%%%^   ",
"  ~;%%%%%%%%%%%%            %%%%%%%%%%%%^   ",
"  /;;;;;;;;;;;;%(          _%%%%%%%%%%%%^   ",
"  *:<<<<[>;;;;;;%%%%%%%%%%%%%%%%%%}.||||:   ",
"         $;;;;;;;%%%%%%%%%%%%%%%%%&         ",
"         $;%%;;;;%%%%%%%%%%%%%%%%%&         ",
"         $%%%%;;;%%%%%%%%%%%%%%%%%&         ",
"         1%%%%;;;%%%%%%%%%%%%%%%%%&         ",
"         $;%%%;;;%%%%%%%%%%%%%%%%%2         ",
"  *3]]]]+4%%%%;;4566666666%,%%%%%%78]]]]|   ",
"  />>>>;%%%%%%;%9          0%%%%%%%;;;;;a   ",
"  /;;%%%%%%%%%;%            %;%%%%%%%%%%^   ",
"  /;;%%%%%%%%%;%            %;%%%%%%%%%%^   ",
"  /;;%%%%%%%%%;%            %;%%%%%%%%%%^   ",
"  /;;%%%%%%%%%;%            %;%%%%%%%%%%^   ",
"  /;;%%%%%%%%%;%            %;%%%%%%%%%%^   ",
"  /;;%%%%%%%%%;%            %;%%%%%%%%%%^   ",
"  /;;%%%%%%%%%;%            %;%%%%%%%%%%^   ",
"  /;;%%%%%%%%%;%            %;%%%%%%%%%%^   ",
"  /;;%%%%%%%%%;%            %;%%%%%%%%%%^   ",
"  /;;%%%%%%%%%;%            %;%%%%%%%%%%^   ",
"  /;;%%%;%%%%%;%b          <%%%%%%%;;;;;^   ",
"  c3[[[[de%%%%;;4ffffffffffe%%%%%%g8]]]].   ",
"         h%%%%%%%%%%%%%%%%;%%%%%%%&         ",
"         $%%%%%%%%%%%%%%%%%%%%%%%%&         ",
"         $%%%%%%%%%%%%%%%%%%%%%%%%&         ",
"         $%%%%%%%%%%%%%%%%%%%%%%%%&         ",
"         $%%%%%%%%%%%%%%%%%%%%%%%%&         ",
"         i%%%%%%%%%%%%%%%%%%%%%%%%j         ",
"                                            ",
"                                            "};
