/* XPM */
static char * 9_xpm[] = {
"44 50 51 1",
" 	c None",
".	c #9E9E9E",
"+	c #363636",
"@	c #383838",
"#	c #484848",
"$	c #9C9C9C",
"%	c #000000",
"&	c #010101",
"*	c #2A2A2A",
"=	c #2B2B2B",
"-	c #2C2C2C",
";	c #656565",
">	c #333333",
",	c #323232",
"'	c #343434",
")	c #020202",
"!	c #1A1A1A",
"~	c #474747",
"{	c #4E4E4E",
"]	c #232323",
"^	c #717171",
"/	c #313131",
"(	c #303030",
"_	c #8F8F8F",
":	c #2F2F2F",
"<	c #909090",
"[	c #4F4F4F",
"}	c #2B2A2B",
"|	c #696969",
"1	c #464646",
"2	c #434343",
"3	c #989898",
"4	c #9B9B9B",
"5	c #090909",
"6	c #7D7D7D",
"7	c #919191",
"8	c #969696",
"9	c #838383",
"0	c #818181",
"a	c #898989",
"b	c #505050",
"c	c #030303",
"d	c #7E7E7E",
"e	c #3F3F3F",
"f	c #3E3E3E",
"g	c #393939",
"h	c #080808",
"i	c #1C1C1C",
"j	c #404040",
"k	c #3D3D3D",
"l	c #2D2D2D",
"                                            ",
"                                            ",
"                                            ",
"        .+@@@@@@@@@@@@@@@@@@@@@@@@#         ",
"        $%%%%%%%%%%%%%%%%%%%%%%%%&*         ",
"        $%%%%%%%%%%%%%%%%%%%%%%%%&=         ",
"        $%%%%%%%%%%%%%%%%%%%%%%%%&=         ",
"        $%%%%%%%%%%%%%%%%%%%%%%%%&-         ",
"        $%%%%%%%%%%%%%%%%%%%%%%%%&=         ",
"  ;>,,''#%%%%%%%)))))))))))&%%%%%%!>,,,,~   ",
"  {&&&&&&&%%%%%]           ^%%%%%%&&&&%%/   ",
"  {&%%%%%&%%%%&(           _&%%%%%%&&%%%/   ",
"  {&%%%%%%%%%%&:           <%%%%%%%%%%%%/   ",
"  {&%%%%%%%%%%&:           <%%%%%%%%%%%%/   ",
"  {&%%%%%%%%%%&:           <%%%%%%%%%%%%/   ",
"  {&%%%%%%%%%%&:           <%%%%%%%%%%%%/   ",
"  {&%%%%%%%%%%&:           <%%%%%%%%%%%%/   ",
"  {&%%%%%%%%%%&:           <%%%%%%%%%%%%/   ",
"  {&%%%%%%%%%%&:           <%%%%%%%%%%%%/   ",
"  {&%%%%%%%%%%&:           <%%%%%%%%%%%%/   ",
"  [&%%%%%%%%%%&:           _%%%%%%%%%%%%/   ",
"  [)%%%%%%%%%%%}           _%%%%%%%%%%%%/   ",
"  |12222>%%%%%%)%%%%%%%%%%%%%%%%%%%%%%%%/   ",
"        3%%%%%%%%%%%%%%%%%%%%%%%%%%%%%%%/   ",
"        $%%%%%%%%%%%%%%%%%%%%%%%%%%%%%%%/   ",
"        4%%%%%%%%%%%%%%%%%%%%%%%%%%%%%%%/   ",
"        4%%%%%%%%%%%%%%%%%%%%%%%%%%%%%%%/   ",
"        4%&&&&&&&&&&&&&&&&&&%%%%%%%%%%%%/   ",
"        $%55555555555555555&%%%%%%%%%%%%/   ",
"                           6&%%%%%%%%%%%/   ",
"                           7%%%%%%%%%%%%/   ",
"                           <%%%%%%%%%%%%/   ",
"                           _%%%%%%%%%%%%/   ",
"                           _%%%%%%%%%%%%/   ",
"  8900000000000a           _%%%%%%%%%%%%/   ",
"  [)&&&&&&&&&&&:           _%%%%%%%%%%%%/   ",
"  [)&&&&&&%%%%%(           _%%%%%%%%%%%%/   ",
"  [)&&&&&&%%%%%(           _%%%%%%%%%%%%/   ",
"  [)&&&&&&%%%%%(           _%%%%%%%%%%%%/   ",
"  [)&&&&&&%%%%%(           _%%%%%%%%%%%%/   ",
"  bc&&&&&&%%%%%*           d%%%%%%%&&&&&/   ",
"  |effffg%%%%%%%hhhhhhhhhh5%&%%%%%ijkkkkb   ",
"        $%%%%%%%%&&&&&&&&&&%%%%%%&-         ",
"        4%%%%%%%%%%%%%%%%%%%%%%%%&=         ",
"        4%%%%%%%%%%%%%%%%%%%%%%%%&=         ",
"        4%%%%%%%%%%%%%%%%%%%%%%%%&=         ",
"        4%%%%%%%%%%%%%%%%%%%%%%%%&=         ",
"        $%%%%%%%%%%%%%%%%%%%%%%%%%l         ",
"                                            ",
"                                            "};
