/* XPM */
static char * 0_xpm[] = {
"44 50 40 1",
" 	c None",
".	c #616161",
"+	c #383838",
"@	c #393939",
"#	c #373737",
"$	c #757575",
"%	c #595959",
"&	c #010101",
"*	c #000000",
"=	c #696969",
"-	c #5A5A5A",
";	c #464646",
">	c #323232",
",	c #313131",
"'	c #2E2E2E",
")	c #020202",
"!	c #030303",
"~	c #343434",
"{	c #444444",
"]	c #232323",
"^	c #4C4C4C",
"/	c #212121",
"(	c #222222",
"_	c #585858",
":	c #575757",
"<	c #555555",
"[	c #4D4D4D",
"}	c #505050",
"|	c #3E3E3E",
"1	c #404040",
"2	c #242424",
"3	c #090909",
"4	c #0A0A0A",
"5	c #080808",
"6	c #303030",
"7	c #4E4E4E",
"8	c #686868",
"9	c #666666",
"0	c #5B5B5B",
"a	c #6B6B6B",
"                                            ",
"                                            ",
"                                            ",
"         .++++++++++++@@@@@+++++++#$        ",
"         %&**&*********************=        ",
"         -&************************=        ",
"         -&************************=        ",
"         %&************************=        ",
"         -&***********&&&&&********=        ",
"   ;>>>>,'&*****&)))))!!!!!)*******~>>>>>{  ",
"   ]&)))&&&****&^           ;*********&*)/  ",
"   (*****&*****).           _***********)/  ",
"   (***********).           _***********&/  ",
"   (***********).           _***********&/  ",
"   (***********).           _***********&/  ",
"   (***********).           _***********&/  ",
"   (***********).           _***********&/  ",
"   (***********).           _***********&/  ",
"   (***********).           _***********&/  ",
"   (***********).           _***********&/  ",
"   (***********).           _***********&/  ",
"   (***********).           _***********&/  ",
"   (***********).           _***********&/  ",
"   (***********).           _***********&/  ",
"   (***********).           _***********&/  ",
"   (***********).           _***********&/  ",
"   (***********).           _***********&/  ",
"   (***********).           _***********&/  ",
"   (***********).           _***********&/  ",
"   (***********).           _***********&/  ",
"   (***********).           _***********&/  ",
"   (***********).           _***********&/  ",
"   (***********).           _***********&/  ",
"   (***********).           _***********&/  ",
"   (***********).           _***********&/  ",
"   (***********).           _***********&/  ",
"   (***********).           _***********&/  ",
"   (***********).           _***********&/  ",
"   (***********).           _***********&/  ",
"   (***********).           :***********&/  ",
"   ]***********)<           [***********)/  ",
"   }||||12******&33444444435*******6|||||7  ",
"         -&*****************&******8        ",
"         _&************************9        ",
"         _&************************9        ",
"         _&************************9        ",
"         _&************************9        ",
"         0*************************a        ",
"                                            ",
"                                            "};
