/* XPM */
static char * 0_xpm[] = {
"115 130 76 1",
" 	c None",
".	c #D9D9D9",
"+	c #DADADA",
"@	c #DBDBDB",
"#	c #DCDCDC",
"$	c #DDDDDD",
"%	c #D3D3D3",
"&	c #E8E8E8",
"*	c #828282",
"=	c #070707",
"-	c #080808",
";	c #090909",
">	c #0A0A0A",
",	c #010101",
"'	c #818181",
")	c #7D7D7D",
"!	c #000000",
"~	c #808080",
"{	c #030303",
"]	c #020202",
"^	c #7E7E7E",
"/	c #7F7F7F",
"(	c #050505",
"_	c #737373",
":	c #484848",
"<	c #464646",
"[	c #454545",
"}	c #4D4D4D",
"|	c #282828",
"1	c #232323",
"2	c #494949",
"3	c #4B4B4B",
"4	c #444444",
"5	c #6D6D6D",
"6	c #343434",
"7	c #373737",
"8	c #252525",
"9	c #3E3E3E",
"0	c #393939",
"a	c #3A3A3A",
"b	c #3D3D3D",
"c	c #3B3B3B",
"d	c #212121",
"e	c #060606",
"f	c #303030",
"g	c #8D8D8D",
"h	c #949494",
"i	c #858585",
"j	c #959595",
"k	c #8B8B8B",
"l	c #939393",
"m	c #363636",
"n	c #8C8C8C",
"o	c #2F2F2F",
"p	c #929292",
"q	c #0F0F0F",
"r	c #222222",
"s	c #111111",
"t	c #848484",
"u	c #5E5E5E",
"v	c #5D5D5D",
"w	c #5C5C5C",
"x	c #5F5F5F",
"y	c #616161",
"z	c #2D2D2D",
"A	c #313131",
"B	c #7B7B7B",
"C	c #0C0C0C",
"D	c #131313",
"E	c #0E0E0E",
"F	c #161616",
"G	c #868686",
"H	c #E3E3E3",
"I	c #EAEAEA",
"J	c #E5E5E5",
"K	c #E7E7E7",
"                                                                                                                   ",
"                                                                                                                   ",
"                                                                                                                   ",
"                                                                                                                   ",
"                                                                                                                   ",
"                                                                                                                   ",
"                                                                                                                   ",
"                         ..++++@++.++++++++............++++@@@@@@@@@@@@++++..............#$%&                      ",
"                        *==----;--=--------============----;;;;;;;;;;;;----==============->,'                      ",
"                        ),,,!!!!!!!,!!!!!!!,,,,,,,,,,,,!!!!!!!!!!!!!!!!!!!!,,,,,,,,,,,,,,!,!)                      ",
"                        ~!{!,!!!!,,,,!!!!!!!!!!!!!!!!!!!!!!!!!!!!!!!!!!!!!!!!!!!!!!!!!!!!!]!^                      ",
"                        ~!{!,!!!!,,,,!!!!!!!!!!!!!!!!!!!!!!!!!!!!!!!!!!!!!!!!!!!!!!!!!!!!!]!^                      ",
"                        ~!{!!!!!!,,,,!!!!!!!!!!!!!!!!!!!!!!!!!!!!!!!!!!!!!!!!!!!!!!!!!!!!!]!^                      ",
"                        ~!{!!!!!!,,,,!!!!!!!!!!!!!!!!!!!!!!!!!!!!!!!!!!!!!!!!!!!!!!!!!!!!!]!^                      ",
"                        '!{!!!!!!!!!!!!!!!!!!!!!!!!!!!!!!!!!!!!!!!!!!!!!!!!!!!!!!!!!!!!!!!]!^                      ",
"                        '!{!!!!!!!!!!!!!!!!!!!!!!!!!!!!!!!!!!!!!!!!!!!!!!!!!!!!!!!!!!!!!!!]!^                      ",
"                        '!{!!!!!!!!!!!!!!!!!!!!!!!!!!!!!!!!!!!!!!!!!!!!!!!!!!!!!!!!!!!!!!!]!^                      ",
"                        '!{!!!!!!!!!!!!!!!!!!!!!!!!!!!!!!!!!!!!!!!!!!!!!!!!!!!!!!!!!!!!!!!]!^                      ",
"                        ~!{!!!!!!!!!!!!!!!!!!!!!!!!!!!!!!!!!!!!!!!!!!!!!!!!!!!!!!!!!!!!!!!]!^                      ",
"                        ~!{!!!!!!!!!!!!!!!!!!!!!!!!!!!!!!!!!!!!!!!!!!!!!!!!!!!!!!!!!!!!!!!]!^                      ",
"                        ~!{!!!!!!!!!!!!!!!!!!!!!!!!!!!!!!!!!!!!!!!!!!!!!!!!!!!!!!!!!!!!!!!]!^                      ",
"                        ~!]!!!!!!!!!!!!!!!!!!!!!!!!!!!!!!!!!!!!!!!!!!!!!!!!!!!!!!!!!!!!!!!]!^                      ",
"                        ',],!!!!!!!!!!!!!!!!!!,,,,,,,,,,,]]]]]]]]]]]]]],,,,!!!!!!!!!!!!!!,=!^                      ",
"                        /,,,!!!!!!!!!!!!!!!!!!!!!!!!!!!!!!!!!!!!!!!!!!!!!!!!!!!!!!!!!!!!!!(!/                      ",
"        _::::::::::::<[}|,,,!!!!!!!!!!!!!!!,,,,]]]]]]]]]]{{{{{{{{{{{{{{]],,!!!!!!!!!!!!!!{!!1:::2::::::::[345      ",
"        6!!!!!!!!!!!!,]!!!,,!!!!!!!!!!!!!!!!!!!!!!!!!!!!!!!!!!!!!!!!!!!!!!!!!!!!!!!!!!!!!]!!!!,,,!!!!!!!!!{]|      ",
"        7,,]]]]{{{{{]],,,,,,!!!!!!!!!!!!!!!89000000000000aaaaaaaaaaaa0b7cd!e!!!!!!!!!!!!!!!!!!!,!,,!!,,,!!(,f      ",
"        7,,,,]]]]]]]],,,,,,,!!!!!!!!!!!!!{!g                             h!]!!!!!!!!!!!!!!!!!!!!!!!,,,!!!!(,f      ",
"        7,,,,!!!!!!!!,,,,,,,!!!!!!!!!!!!!e!i                             j!(!!!!!!!!!!!!!!!!!!!!!!!!!!!!!!(,f      ",
"        7,,,!!!!!!!!!!!,,,,,!!!!!!!!!!!!!(!k                             l!!!!!!!!!!!!!!!!!!!!!!!!!!!!!!!!(,f      ",
"        m!!!!!!!!!!!!!!!!!!!!!!!!!!!!!!!!e!n                             j!]!!!!!!!!!!!!!!!!!!!!!!!!!!!!!!{!o      ",
"        m!!!!!!!!!!!!!!!!!!!!!!!!!!!!!!!!e!n                             j,]!!!!!!!!!!!!!!!!!!!!!!!!!!!!!!{!o      ",
"        m!!!!!!!!!!!!!!!!!!!!!!!!!!!!!!!!e!n                             j,]!!!!!!!!!!!!!!!!!!!!!!!!!!!!!!{!o      ",
"        m!!!!!!!!!!!!!!!!!!!!!!!!!!!!!!!!e!n                             j,]!!!!!!!!!!!!!!!!!!!!!!!!!!!!!!{!o      ",
"        m!!!!!!!!!!!!!!!!!!!!!!!!!!!!!!!!e!n                             j,]!!!!!!!!!!!!!!!!!!!!!!!!!!!!!!{!o      ",
"        m!!!!!!!!!!!!!!!!!!!!!!!!!!!!!!!!e!n                             j,]!!!!!!!!!!!!!!!!!!!!!!!!!!!!!!{!o      ",
"        m!!!!!!!!!!!!!!!!!!!!!!!!!!!!!!!!e!n                             j,]!!!!!!!!!!!!!!!!!!!!!!!!!!!!!!{!o      ",
"        m!!!!!!!!!!!!!!!!!!!!!!!!!!!!!!!!e!n                             j,]!!!!!!!!!!!!!!!!!!!!!!!!!!!!!!{!o      ",
"        m!!!!!!!!!!!!!!!!!!!!!!!!!!!!!!!!e!n                             j,]!!!!!!!!!!!!!!!!!!!!!!!!!!!!!!{!o      ",
"        m!!!!!!!!!!!!!!!!!!!!!!!!!!!!!!!!e!n                             j,]!!!!!!!!!!!!!!!!!!!!!!!!!!!!!!{!o      ",
"        m!!!!!!!!!!!!!!!!!!!!!!!!!!!!!!!!e!n                             j,]!!!!!!!!!!!!!!!!!!!!!!!!!!!!!!{!o      ",
"        m!!!!!!!!!!!!!!!!!!!!!!!!!!!!!!!!e!n                             j,]!!!!!!!!!!!!!!!!!!!!!!!!!!!!!!{!o      ",
"        m!!!!!!!!!!!!!!!!!!!!!!!!!!!!!!!!e!n                             j,]!!!!!!!!!!!!!!!!!!!!!!!!!!!!!!{!o      ",
"        m!!!!!!!!!!!!!!!!!!!!!!!!!!!!!!!!e!n                             j,]!!!!!!!!!!!!!!!!!!!!!!!!!!!!!!{!o      ",
"        m!!!!!!!!!!!!!!!!!!!!!!!!!!!!!!!!e!n                             j,]!!!!!!!!!!!!!!!!!!!!!!!!!!!!!!{!o      ",
"        m!!!!!!!!!!!!!!!!!!!!!!!!!!!!!!!!e!n                             j,]!!!!!!!!!!!!!!!!!!!!!!!!!!!!!!{!o      ",
"        m!!!!!!!!!!!!!!!!!!!!!!!!!!!!!!!!e!n                             j,]!!!!!!!!!!!!!!!!!!!!!!!!!!!!!!{!o      ",
"        m!!!!!!!!!!!!!!!!!!!!!!!!!!!!!!!!e!n                             j,]!!!!!!!!!!!!!!!!!!!!!!!!!!!!!!{!o      ",
"        m!!!!!!!!!!!!!!!!!!!!!!!!!!!!!!!!e!n                             j,]!!!!!!!!!!!!!!!!!!!!!!!!!!!!!!{!o      ",
"        m!!!!!!!!!!!!!!!!!!!!!!!!!!!!!!!!e!n                             j,]!!!!!!!!!!!!!!!!!!!!!!!!!!!!!!{!o      ",
"        m!!!!!!!!!!!!!!!!!!!!!!!!!!!!!!!!e!n                             j,]!!!!!!!!!!!!!!!!!!!!!!!!!!!!!!{!o      ",
"        m!!!!!!!!!!!!!!!!!!!!!!!!!!!!!!!!e!n                             j,]!!!!!!!!!!!!!!!!!!!!!!!!!!!!!!{!o      ",
"        m!!!!!!!!!!!!!!!!!!!!!!!!!!!!!!!!e!n                             j,]!!!!!!!!!!!!!!!!!!!!!!!!!!!!!!{!o      ",
"        m!!!!!!!!!!!!!!!!!!!!!!!!!!!!!!!!e!n                             j,]!!!!!!!!!!!!!!!!!!!!!!!!!!!!!!{!o      ",
"        m!!!!!!!!!!!!!!!!!!!!!!!!!!!!!!!!e!n                             j,]!!!!!!!!!!!!!!!!!!!!!!!!!!!!!!{!o      ",
"        m!!!!!!!!!!!!!!!!!!!!!!!!!!!!!!!!e!n                             j,]!!!!!!!!!!!!!!!!!!!!!!!!!!!!!!{!o      ",
"        m!!!!!!!!!!!!!!!!!!!!!!!!!!!!!!!!e!n                             j,]!!!!!!!!!!!!!!!!!!!!!!!!!!!!!!{!o      ",
"        m!!!!!!!!!!!!!!!!!!!!!!!!!!!!!!!!e!n                             j,]!!!!!!!!!!!!!!!!!!!!!!!!!!!!!!{!o      ",
"        m!!!!!!!!!!!!!!!!!!!!!!!!!!!!!!!!e!n                             j,]!!!!!!!!!!!!!!!!!!!!!!!!!!!!!!{!o      ",
"        m!!!!!!!!!!!!!!!!!!!!!!!!!!!!!!!!e!n                             j,]!!!!!!!!!!!!!!!!!!!!!!!!!!!!!!{!o      ",
"        m!!!!!!!!!!!!!!!!!!!!!!!!!!!!!!!!e!n                             j,]!!!!!!!!!!!!!!!!!!!!!!!!!!!!!!{!o      ",
"        m!!!!!!!!!!!!!!!!!!!!!!!!!!!!!!!!e!n                             j,]!!!!!!!!!!!!!!!!!!!!!!!!!!!!!!{!o      ",
"        m!!!!!!!!!!!!!!!!!!!!!!!!!!!!!!!!e!n                             j,]!!!!!!!!!!!!!!!!!!!!!!!!!!!!!!{!o      ",
"        m!!!!!!!!!!!!!!!!!!!!!!!!!!!!!!!!e!n                             j,]!!!!!!!!!!!!!!!!!!!!!!!!!!!!!!{!o      ",
"        m!!!!!!!!!!!!!!!!!!!!!!!!!!!!!!!!e!n                             j,]!!!!!!!!!!!!!!!!!!!!!!!!!!!!!!{!o      ",
"        m!!!!!!!!!!!!!!!!!!!!!!!!!!!!!!!!e!n                             j,]!!!!!!!!!!!!!!!!!!!!!!!!!!!!!!{!o      ",
"        m!!!!!!!!!!!!!!!!!!!!!!!!!!!!!!!!e!n                             j,]!!!!!!!!!!!!!!!!!!!!!!!!!!!!!!{!o      ",
"        m!!!!!!!!!!!!!!!!!!!!!!!!!!!!!!!!e!n                             j,]!!!!!!!!!!!!!!!!!!!!!!!!!!!!!!{!o      ",
"        m!!!!!!!!!!!!!!!!!!!!!!!!!!!!!!!!e!n                             j,]!!!!!!!!!!!!!!!!!!!!!!!!!!!!!!{!o      ",
"        m!!!!!!!!!!!!!!!!!!!!!!!!!!!!!!!!e!n                             j,]!!!!!!!!!!!!!!!!!!!!!!!!!!!!!!{!o      ",
"        m!!!!!!!!!!!!!!!!!!!!!!!!!!!!!!!!e!n                             j,]!!!!!!!!!!!!!!!!!!!!!!!!!!!!!!{!o      ",
"        m!!!!!!!!!!!!!!!!!!!!!!!!!!!!!!!!e!n                             j,]!!!!!!!!!!!!!!!!!!!!!!!!!!!!!!{!o      ",
"        m!!!!!!!!!!!!!!!!!!!!!!!!!!!!!!!!e!n                             j,]!!!!!!!!!!!!!!!!!!!!!!!!!!!!!!{!o      ",
"        m!!!!!!!!!!!!!!!!!!!!!!!!!!!!!!!!e!n                             j,]!!!!!!!!!!!!!!!!!!!!!!!!!!!!!!{!o      ",
"        m!!!!!!!!!!!!!!!!!!!!!!!!!!!!!!!!e!n                             j,]!!!!!!!!!!!!!!!!!!!!!!!!!!!!!!{!o      ",
"        m!!!!!!!!!!!!!!!!!!!!!!!!!!!!!!!!e!n                             j,]!!!!!!!!!!!!!!!!!!!!!!!!!!!!!!{!o      ",
"        m!!!!!!!!!!!!!!!!!!!!!!!!!!!!!!!!e!n                             j,]!!!!!!!!!!!!!!!!!!!!!!!!!!!!!!{!o      ",
"        m!!!!!!!!!!!!!!!!!!!!!!!!!!!!!!!!e!n                             j,]!!!!!!!!!!!!!!!!!!!!!!!!!!!!!!{!o      ",
"        m!!!!!!!!!!!!!!!!!!!!!!!!!!!!!!!!e!n                             j,]!!!!!!!!!!!!!!!!!!!!!!!!!!!!!!{!o      ",
"        m!!!!!!!!!!!!!!!!!!!!!!!!!!!!!!!!e!n                             j,]!!!!!!!!!!!!!!!!!!!!!!!!!!!!!!{!o      ",
"        m!!!!!!!!!!!!!!!!!!!!!!!!!!!!!!!!e!n                             j,]!!!!!!!!!!!!!!!!!!!!!!!!!!!!!!{!o      ",
"        m!!!!!!!!!!!!!!!!!!!!!!!!!!!!!!!!e!n                             j,]!!!!!!!!!!!!!!!!!!!!!!!!!!!!!!{!o      ",
"        m!!!!!!!!!!!!!!!!!!!!!!!!!!!!!!!!e!n                             j,]!!!!!!!!!!!!!!!!!!!!!!!!!!!!!!{!o      ",
"        m!!!!!!!!!!!!!!!!!!!!!!!!!!!!!!!!e!n                             j,]!!!!!!!!!!!!!!!!!!!!!!!!!!!!!!{!o      ",
"        m!!!!!!!!!!!!!!!!!!!!!!!!!!!!!!!!e!n                             j,]!!!!!!!!!!!!!!!!!!!!!!!!!!!!!!{!o      ",
"        m!!!!!!!!!!!!!!!!!!!!!!!!!!!!!!!!e!n                             j,]!!!!!!!!!!!!!!!!!!!!!!!!!!!!!!{!o      ",
"        m!!!!!!!!!!!!!!!!!!!!!!!!!!!!!!!!e!n                             j,]!!!!!!!!!!!!!!!!!!!!!!!!!!!!!!{!o      ",
"        m!!!!!!!!!!!!!!!!!!!!!!!!!!!!!!!!e!n                             j,]!!!!!!!!!!!!!!!!!!!!!!!!!!!!!!{!o      ",
"        m!!!!!!!!!!!!!!!!!!!!!!!!!!!!!!!!e!n                             j,]!!!!!!!!!!!!!!!!!!!!!!!!!!!!!!{!o      ",
"        m!!!!!!!!!!!!!!!!!!!!!!!!!!!!!!!!e!n                             j,]!!!!!!!!!!!!!!!!!!!!!!!!!!!!!!{!o      ",
"        m!!!!!!!!!!!!!!!!!!!!!!!!!!!!!!!!e!n                             j,]!!!!!!!!!!!!!!!!!!!!!!!!!!!!!!{!o      ",
"        m!!!!!!!!!!!!!!!!!!!!!!!!!!!!!!!!e!n                             j,]!!!!!!!!!!!!!!!!!!!!!!!!!!!!!!{!o      ",
"        m!!!!!!!!!!!!!!!!!!!!!!!!!!!!!!!!e!n                             j,]!!!!!!!!!!!!!!!!!!!!!!!!!!!!!!{!o      ",
"        m!!!!!!!!!!!!!!!!!!!!!!!!!!!!!!!!e!n                             j,]!!!!!!!!!!!!!!!!!!!!!!!!!!!!!!{!o      ",
"        m!!!!!!!!!!!!!!!!!!!!!!!!!!!!!!!!e!n                             j,]!!!!!!!!!!!!!!!!!!!!!!!!!!!!!!{!o      ",
"        m!!!!!!!!!!!!!!!!!!!!!!!!!!!!!!!!e!n                             j,]!!!!!!!!!!!!!!!!!!!!!!!!!!!!!!{!o      ",
"        m!!!!!!!!!!!!!!!!!!!!!!!!!!!!!!!!e!n                             j,]!!!!!!!!!!!!!!!!!!!!!!!!!!!!!!{!o      ",
"        m!!!!!!!!!!!!!!!!!!!!!!!!!!!!!!!!e!n                             j,]!!!!!!!!!!!!!!!!!!!!!!!!!!!!!!{!o      ",
"        m!!!!!!!!!!!!!!!!!!!!!!!!!!!!!!!!e!n                             j,]!!!!!!!!!!!!!!!!!!!!!!!!!!!!!!{!o      ",
"        m!!!!!!!!!!!!!!!!!!!!!!!!!!!!!!!!e!n                             j,]!!!!!!!!!!!!!!!!!!!!!!!!!!!!!!{!o      ",
"        m!!!!!!!!!!!!!!!!!!!!!!!!!!!!!!!!e!n                             j,]!!!!!!!!!!!!!!!!!!!!!!!!!!!!!!{!o      ",
"        m!!!!!!!!!!!!!!!!!!!!!!!!!!!!!!!!e!n                             j!]!!!!!!!!!!!!!!!!!!!!!!!!!!!!!!{!o      ",
"        m!!!!!!!!!!!!!!!!!!!!!!!!!!!!!!!!e!n                             p!]!!!!!!!!!!!!!!!!!!!!!!!!!!!!!!{!o      ",
"        m!!!!!!!!!!!!!!!!!!!!!!!!!!!!!!!!e!n                             p!]!!!!!!!!!!!!!!!!!!!!!!!!!!!!!!{!o      ",
"        m!!!!!!!!!!!!!!!!!!!!!!!!!!!!!!!!e!n                             l!{!!!!!!!!!!!!!!!!!!!!!!!!!!!!!!{!o      ",
"        m!!!!!!!!!!!!!!!!!!!!!!!!!!!!!!!!e!n                             l!{,!!!!!!!!!!!!!!!!!!!!!!!!!!!!!{!o      ",
"        b!!,,,,],,!!!(!!,!!!!!!!!!!!!!!!!,!q|rrrr111111111111111111111drrs,!!!!!!!!!!!!,,,,!,]]]]]]]]]]]]]e!f      ",
"        6,,,!!!!!!!,,!!!!!!!!!!!!!!!!!!!!!!!!!!!!!!!!!!!!!!!!!!!!!!!!!!!!,!!!!!!!!!!!!!!!!]!!,,,,,,,,,,,,!{!|      ",
"        tuuuvvwvvvvuuxuyz!,!!!!!!!!!!!!!!!,,!{{{{(((((((((((((((((((((]{{,]!!!!!!!!!!!!!!!,,AvvvvvvvvvvvvvvvB      ",
"                        i!,!!!!!!!!!!!!!!!!,e!!!!!!!!!!!!!!!!!!!!!!!!!!!!!=!!!!!!!!!!!!!!],,'                      ",
"                        /!,!,!!!!!!!!!!!!!!!!!!!!!!!!!!!!!!!!!!!!!!!!!!!!!!!!!!!!!!!!!!!!!]!B                      ",
"                        /!,!,!!!!!!!!!!!!!!!!!!!!!!!!!!!!!!!!!!!!!!!!!!!!!!!!!!!!!!!!!!!!!{!B                      ",
"                        /!]!,!!!!!!!!!!!!!!!!!!!!!!!!!!!!!!!!!!!!!!!!!!!!!!!!!!!!!!!!!!!!!{!B                      ",
"                        /!]!,!!!!!!!!!!!!!!!!!!!!!!!!!!!!!!!!!!!!!!!!!!!!!!!!!!!!!!!!!!!!!{!B                      ",
"                        /!]!,!!!!!!!!!!!!!!!!!!!!!!!!!!!!!!!!!!!!!!!!!!!!!!!!!!!!!!!!!!!!!{!B                      ",
"                        /!]!,!!!!!!!!!!!!!!!!!!!!!!!!!!!!!!!!!!!!!!!!!!!!!!!!!!!!!!!!!!!!!{!B                      ",
"                        /!]!,!!!!!!!!!!!!!!!!!!!!!!!!!!!!!!!!!!!!!!!!!!!!!!!!!!!!!!!!!!!!!{!B                      ",
"                        /!]!,!!!!!!!!!!!!!!!!!!!!!!!!!!!!!!!!!!!!!!!!!!!!!!!!!!!!!!!!!!!!!{!B                      ",
"                        /!]!,!!!!!!!!!!!!!!!!!!!!!!!!!!!!!!!!!!!!!!!!!!!!!!!!!!!!!!!!!!!!!{!B                      ",
"                        /!]!,!!!!!!!!!!!!!!!!!!!!!!!!!!!!!!!!!!!!!!!!!!!!!!!!!!!!!!!!!!!!!{!B                      ",
"                        /!]!,!!!!!!!!!!!!!!!!!!!!!!!!!!!!!!!!!!!!!!!!!!!!!!!!!!!!!!!!!!!!!{!B                      ",
"                        /!]!,!!!!!!!!!!!!!!!!!!!!!!!!!!!!!!!!!!!!!!!!!!!!!!!!!!!!!!!!!!!!!{!B                      ",
"                        ^!(!!!!!!!!!!!!!!!!!!!!!!!!!!!!!!!!!!!!!!!!!!!!!!!!!!!!!!!!!!!!!!,-!)                      ",
"                        ^!=],!!!!!!!!!!!!!!!!!!!!!!!!!!!!!!!!!!!!!!!!!!!!!!!!!!!!!!!!!!!!,;{/                      ",
"                        gCDEEDDDDDDDDDDDDDDDDDDDDDDDDDDDDDDDDDDDDDDDDDDDDDDDDDDDDDDDDDDDDDF{G                      ",
"                         HIJJ&&&&&&&&&&&&&&&&&&&&&&&&&&&&&&&&&&&&&&&&&&&&&&&&&&&&&&&&&&&&&KJ                       ",
"                                                                                                                   ",
"                                                                                                                   ",
"                                                                                                                   ",
"                                                                                                                   "};
