/* XPM */
static char * 1_xpm[] = {
"115 130 67 1",
" 	c None",
".	c #E3E3E3",
"+	c #E5E5E5",
"@	c #E9E9E9",
"#	c #D6D6D6",
"$	c #1D1D1D",
"%	c #111111",
"&	c #161616",
"*	c #1B1B1B",
"=	c #C9C9C9",
"-	c #CFCFCF",
";	c #0D0D0D",
">	c #000000",
",	c #010101",
"'	c #0A0A0A",
")	c #C8C8C8",
"!	c #090909",
"~	c #CBCBCB",
"{	c #D2D2D2",
"]	c #0C0C0C",
"^	c #D0D0D0",
"/	c #0F0F0F",
"(	c #020202",
"_	c #AAAAAA",
":	c #4C4C4C",
"<	c #5A5A5A",
"[	c #575757",
"}	c #050505",
"|	c #828282",
"1	c #030303",
"2	c #858585",
"3	c #D7D7D7",
"4	c #A9A9A9",
"5	c #ABABAB",
"6	c #B1B1B1",
"7	c #B0B0B0",
"8	c #AFAFAF",
"9	c #B4B4B4",
"0	c #909090",
"a	c #070707",
"b	c #0E0E0E",
"c	c #CECECE",
"d	c #080808",
"e	c #C4C4C4",
"f	c #9A9A9A",
"g	c #2D2D2D",
"h	c #404040",
"i	c #383838",
"j	c #3D3D3D",
"k	c #2C2C2C",
"l	c #2B2B2B",
"m	c #3A3A3A",
"n	c #323232",
"o	c #373737",
"p	c #7A7A7A",
"q	c #7F7F7F",
"r	c #808080",
"s	c #818181",
"t	c #868686",
"u	c #848484",
"v	c #888888",
"w	c #060606",
"x	c #101010",
"y	c #E7E7E7",
"z	c #D4D4D4",
"A	c #D5D5D5",
"B	c #D3D3D3",
"                                                                                                                   ",
"                                                                                                                   ",
"                                                                                                                   ",
"                                                                                                                   ",
"                                                                                                                   ",
"                                                                                                                   ",
"                                       .+@@@@@@@@@@@@@@@@@@@@@@@@@@@@@@@@@                                         ",
"                                      #$%&&&&&&&&&&&&&&&&&&&&&&&&&&&&&&&&*=                                        ",
"                                      -;>,,,,,,,,>>>>>>>>>>>>>>>>>>>>>>>>')                                        ",
"                                      -;>,,,,,,,,>>>>>>>>>>>>>>>>>>>>>>>>')                                        ",
"                                      -;>,,,,,,,,>>>>>>>>>>>>>>>>>>>>>>>>'=                                        ",
"                                      -;>,,,,,,,,>>>>>>>>>>>>>>>>>>>>>>>>'=                                        ",
"                                      -;>,,,,,,,,>>>>>>>>>>>>>>>>>>>>>>>>!=                                        ",
"                                      -;>,,,,,,,,>>>>>>>>>>>>>>>>>>>>>>>>!=                                        ",
"                                      -;>,,,,,,,,>>>>>>>>>>>>>>>>>>>>>>>>!~                                        ",
"                                      -;>,,,,,,,,>>>>>>>>>>>>>>>>>>>>>>>>!~                                        ",
"                                      -;>,,,,,,,,>>>>>>>>>>>>>>>>>>>>>>>>!~                                        ",
"                                      -;>,,,,,,,,>>>>>>>>>>>>>>>>>>>>>>>>!~                                        ",
"                                      -;,,,,,,,,,>>>>>>>>>>>>>>>>>>>>>>>>!~                                        ",
"                                      -;,,,,,,,,,>>>>>>>>>>>>>>>>>>>>>>>>!~                                        ",
"                                      {',>>>>>>>>>>>>>>>>>>>>>>>>>>>>>>>>!~                                        ",
"                                      ~],>>>>>>>>>>>>>>>>>>>>>>>>>>>>>>>>!~                                        ",
"                                      ^/(>>>>>>>>>>>>>>>>>>>>>>>>>>>>>>>>!~                                        ",
"                      _:<[[[[[[[[[[[[<:},>>>>>>>>>>>>>>>>>>>>>>>>>>>>>>>>!~                                        ",
"                      |,(>>>>>>>>>>>>>>>,>>>>>>>>>>>>>>>>>>>>>>>>>>>>>>>>!~                                        ",
"                      |,((((((((((((,,>>>>>>>>>>>>>>>>>>>>>>>>>>>>>>>>>>>!~                                        ",
"                      |,(>>>>>>>>>>>>>>,,>>>>>>>>>>>>>>>>>>>>>>>>>>>>>>>>!~                                        ",
"                      |,(,,,,,,,,,,,>>>,,>>>>>>>>>>>>>>>>>>>>>>>>>>>>>>>>!~                                        ",
"                      |,(>>>>>>>>>>>>>>>>>>>>>>>>>>>>>>>>>>>>>>>>>>>>>>>>!~                                        ",
"                      |,(>>>>>>>>>>>>>>>>>>>>>>>>>>>>>>>>>>>>>>>>>>>>>>>>!~                                        ",
"                      |,(>>>>>>>>>>>>>>>>>>>>>>>>>>>>>>>>>>>>>>>>>>>>>>>>!~                                        ",
"                      |,(>>>>>>>>>>>>>>>>>>>>>>>>>>>>>>>>>>>>>>>>>>>>>>>>!~                                        ",
"                      |,(>>>>>>>>>>>>>>>>>>>>>>>>>>>>>>>>>>>>>>>>>>>>>>>>!~                                        ",
"                      |,(>>>>>>>>>>>>>>>>>>>>>>>>>>>>>>>>>>>>>>>>>>>>>>>>!~                                        ",
"                      |,(>>>>>>>>>>>>>>>>>>>>>>>>>>>>>>>>>>>>>>>>>>>>>>>>!~                                        ",
"                      |,(>>>>>>>>>>>>>>>>>>>>>>>>>>>>>>>>>>>>>>>>>>>>>>>>!~                                        ",
"                      |,(>>>>>>>>>>>>>>>>>>>>>>>>>>>>>>>>>>>>>>>>>>>>>>>>!~                                        ",
"                      |,(>>>>>>>>>>>>>>>>>>>>>>>>>>>>>>>>>>>>>>>>>>>>>>>>!~                                        ",
"                      |,(>>>>>>>>>>>>>>>>>>>>>>>>>>>>>>>>>>>>>>>>>>>>>>>>!~                                        ",
"                      |,(>>>>>>>>>>>>>>>>>>>>>>>>>>>>>>>>>>>>>>>>>>>>>>>>!~                                        ",
"                      |>1>>>>>>>>>>>>,(>(>>>>>>>>>>>>>>>>>>>>>>>>>>>>>>>>!~                                        ",
"                      2((>>>>>>>>>>>>}>(,>>>>>>>>>>>>>>>>>>>>>>>>>>>>>>>>!~                                        ",
"                      34566677877776690a>>>>>>>>>>>>>>>>>>>>>>>>>>>>>>>>>!~                                        ",
"                                      ^b>>>>>>>>>>>>>>>>>>>>>>>>>>>>>>>>>!~                                        ",
"                                      c](,,,,,,,,>>>>>>>>>>>>>>>>>>>>>>>>!~                                        ",
"                                      c](,,,,,,,,>>>>>>>>>>>>>>>>>>>>>>>>!~                                        ",
"                                      c],,,,,,,,,>>>>>>>>>>>>>>>>>>>>>>>>!~                                        ",
"                                      c],,,,,,,,,>>>>>>>>>>>>>>>>>>>>>>>>!~                                        ",
"                                      -;,,,,,>>>>>>>>>>>>>>>>>>>>>>>>>>>>!~                                        ",
"                                      -;,,,,,>>>>>>>>>>>>>>>>>>>>>>>>>>>>!~                                        ",
"                                      -;>,,,,>>>>>>>>>>>>>>>>>>>>>>>>>>>>!~                                        ",
"                                      -;>,,,,>>>>>>>>>>>>>>>>>>>>>>>>>>>>!~                                        ",
"                                      -;>,,,,>>>>>>>>>>>>>>>>>>>>>>>>>>>>!~                                        ",
"                                      -;>,,,,>>>>>>>>>>>>>>>>>>>>>>>>>>>>!~                                        ",
"                                      -;>,,,,>>>>>>>>>>>>>>>>>>>>>>>>>>>>!~                                        ",
"                                      -;>,,,,>>>>>>>>>>>>>>>>>>>>>>>>>>>>!~                                        ",
"                                      -;>,,,,>>>>>>>>>>>>>>>>>>>>>>>>>>>>!~                                        ",
"                                      -;>,,,,>>>>>>>>>>>>>>>>>>>>>>>>>>>>!~                                        ",
"                                      -;>,,,,>>>>>>>>>>>>>>>>>>>>>>>>>>>>!~                                        ",
"                                      -;>,,,,>>>>>>>>>>>>>>>>>>>>>>>>>>>>!~                                        ",
"                                      -;>,,,,>>>>>>>>>>>>>>>>>>>>>>>>>>>>!~                                        ",
"                                      -;>,,,,>>>>>>>>>>>>>>>>>>>>>>>>>>>>!~                                        ",
"                                      -;>,,,,>>>>>>>>>>>>>>>>>>>>>>>>>>>>!~                                        ",
"                                      -;>,,,,>>>>>>>>>>>>>>>>>>>>>>>>>>>>!~                                        ",
"                                      -;>>>>>>>>>>>>>>>>>>>>>>>>>>>>>>>>>!~                                        ",
"                                      -;>>>>>>>>>>>>>>>>>>>>>>>>>>>>>>>>>!~                                        ",
"                                      -;>>>>>>>>>>>>>>>>>>>>>>>>>>>>>>>>>!~                                        ",
"                                      -;>>>>>>>>>>>>>>>>>>>>>>>>>>>>>>>>>!~                                        ",
"                                      -;>>>>>>>>>>>>>>>>>>>>>>>>>>>>>>>>>!~                                        ",
"                                      -;>>>>>>>>>>>>>>>>>>>>>>>>>>>>>>>>>!~                                        ",
"                                      -;>>>>>>>>>>>>>>>>>>>>>>>>>>>>>>>>>!~                                        ",
"                                      -;>>>>>>>>>>>>>>>>>>>>>>>>>>>>>>>>>!~                                        ",
"                                      -;>>>>>>>>>>>>>>>>>>>>>>>>>>>>>>>>>!~                                        ",
"                                      -;>>>>>>>>>>>>>>>>>>>>>>>>>>>>>>>>>!~                                        ",
"                                      -;>>>>>>>>>>>>>>>>>>>>>>>>>>>>>>>>>!~                                        ",
"                                      -;>>>>>>>>>>>>>>>>>>>>>>>>>>>>>>>>>!~                                        ",
"                                      -;>>>>>>>>>>>>>>>>>>>>>>>>>>>>>>>>>!~                                        ",
"                                      -;>>>>>>>>>>>>>>>>>>>>>>>>>>>>>>>>>!~                                        ",
"                                      -;>>>>>>>>>>>>>>>>>>>>>>>>>>>>>>>>>!~                                        ",
"                                      -;>>>>>>>>>>>>>>>>>>>>>>>>>>>>>>>>>!~                                        ",
"                                      -;>>>>>>>>>>>>>>>>>>>>>>>>>>>>>>>>>!~                                        ",
"                                      -;>>>>>>>>>>>>>>>>>>>>>>>>>>>>>>>>>!~                                        ",
"                                      -;>>>>>>>>>>>>>>>>>>>>>>>>>>>>>>>>>!~                                        ",
"                                      -;>>>>>>>>>>>>>>>>>>>>>>>>>>>>>>>>>!~                                        ",
"                                      -;>>>>>>>>>>>>>>>>>>>>>>>>>>>>>>>>>!~                                        ",
"                                      -;>>>>>>>>>>>>>>>>>>>>>>>>>>>>>>>>>!~                                        ",
"                                      -;>>>>>>>>>>>>>>>>>>>>>>>>>>>>>>>>>!~                                        ",
"                                      -;>>>>>>>>>>>>>>>>>>>>>>>>>>>>>>>>>!~                                        ",
"                                      -;>>>>>>>>>>>>>>>>>>>>>>>>>>>>>>>>>!~                                        ",
"                                      -;>>>>>>>>>>>>>>>>>>>>>>>>>>>>>>>>>!~                                        ",
"                                      -;>>>>>>>>>>>>>>>>>>>>>>>>>>>>>>>>>!~                                        ",
"                                      -;>>>>>>>>>>>>>>>>>>>>>>>>>>>>>>>>>!~                                        ",
"                                      -;>>>>>>>>>>>>>>>>>>>>>>>>>>>>>>>>>!~                                        ",
"                                      -;>>>>>>>>>>>>>>>>>>>>>>>>>>>>>>>>>!~                                        ",
"                                      -;>>>>>>>>>>>>>>>>>>>>>>>>>>>>>>>>>!~                                        ",
"                                      -;>>>>>>>>>>>>>>>>>>>>>>>>>>>>>>>>>!~                                        ",
"                                      -;>>>>>>>>>>>>>>>>>>>>>>>>>>>>>>>>>!~                                        ",
"                                      -;>>>>>>>>>>>>>>>>>>>>>>>>>>>>>>>>>!~                                        ",
"                                      -;>>>>>>>>>>>>>>>>>>>>>>>>>>>>>>>>>!~                                        ",
"                                      -;>>>>>>>>>>>>>>>>>>>>>>>>>>>>>>>>>!~                                        ",
"                                      -;>>>>>>>>>>>>>>>>>>>>>>>>>>>>>>>>>!~                                        ",
"                                      -;>>>>>>>>>>>>>>>>>>>>>>>>>>>>>>>>>!~                                        ",
"                                      -;>>>>>>>>>>>>>>>>>>>>>>>>>>>>>>>>>!~                                        ",
"                                      -;>>>>>>>>>>>>>>>>>>>>>>>>>>>>>>>>>!~                                        ",
"                                      ~;(>>>>>>>>>>>>>>>>>>>>>>>>>>>>>>>>de                                        ",
"                      fghiiiiiiiiiiiijk11>>>>>>>>>>>>>>>>>>>>>>>>>>>>>>>>1lmnoooooooooooogf                        ",
"                      p>a>>>>>>>>>>>>>>>>>>>>>>>>>>>>>>>>>>>>>>>>>>>>>>>>>>,>>>>>>>>>>>>>>q                        ",
"                      |((((((((((((((>>1>>>>>>>>>>>>>>>>>>>>>>>>>>>>>>>>>>(>>((((((((((((>|                        ",
"                      r>}>>>>>>>>>>>>>>>>>>>>>>>>>>>>>>>>>>>>>>>>>>>>>>>>>>>>,,,,,,,,,,,,>|                        ",
"                      r>}>>>>>>>>>>>>>>>>>>>>>>>>>>>>>>>>>>>>>>>>>>>>>>>>>>>>,,,,,,,,,,,,>|                        ",
"                      s,1>>>>>>>>>>>>>>>>>>>>>>>>>>>>>>>>>>>>>>>>>>>>>>>>>>>>,,,,,,,,,,,,>|                        ",
"                      s,1>>>>>>>>>>>>>>>>>>>>>>>>>>>>>>>>>>>>>>>>>>>>>>>>>>>>,,,,,,,,,,,,>|                        ",
"                      s,1,>>>>>>>>>>>>>>>>>>>>>>>>>>>>>>>>>>>>>>>>>>>>>>>>>>>>>>>>>>>,,,,>|                        ",
"                      s,1,>>>>>>>>>>>>>>>>>>>>>>>>>>>>>>>>>>>>>>>>>>>>>>>>>>>>>>>>>>>,,,,>|                        ",
"                      |(1,>>>>>>>>>>>>>>>>>>>>>>>>>>>>>>>>>>>>>>>>>>>>>>>>>>>>>>>>>>>,,,,>|                        ",
"                      s,1,>>>>>>>>>>>>>>>>>>>>>>>>>>>>>>>>>>>>>>>>>>>>>>>>>>>>>>>>>>>,,,,>|                        ",
"                      s,1,>>>>>>>>>>>>>>>>>>>>>>>>>>>>>>>>>>>>>>>>>>>>>>>>>>>>>>>>>>>,,,,>|                        ",
"                      r>1,>>>>>>>>>>>>>>>>>>>>>>>>>>>>>>>>>>>>>>>>>>>>>>>>>>>>>>>>>>>,,,,>|                        ",
"                      r>},>>>>>>>>>>>>>>>>>>>>>>>>>>>>>>>>>>>>>>>>>>>>>>>>>>>>>>>>>>>,,,,>|                        ",
"                      r>},>>>>>>>>>>>>>>>>>>>>>>>>>>>>>>>>>>>>>>>>>>>>>>>>>>>>>>>>>>>,,,,>|                        ",
"                      t>1,>>>>>>>>>>>>>>>>>>>>>>>>>>>>>>>>>>>>>>>>>>>>>>>>>>>>>>>>>>>,,,,>s                        ",
"                      |>1,>>>>>>>>>>>>>>>>>>>>>>>>>>>>>>>>>>>>>>>>>>>>>>>>>>>>>>>>>>>,,,,>|                        ",
"                      u>d>>>>>>>>>>>>>>>>>>>>>>>>>>>>>>>>>>>>>>>>>>>>>>>>>>>>>>>>>>>>>>>>>|                        ",
"                      vwxx///////////////////////////////////////////////////////////xxxx,u                        ",
"                      yzAAzzzzzzzzzzzzzzzzzzzzzzzzzzzzzzzzzzzzzzzzzzzzzzzzzzzzzzzzzzzAAAAB@                        ",
"                                                                                                                   ",
"                                                                                                                   ",
"                                                                                                                   ",
"                                                                                                                   ",
"                                                                                                                   "};
