/* XPM */
static char * 1_xpm[] = {
"44 50 29 1",
" 	c None",
".	c #AFAFAF",
"+	c #B2B2B2",
"@	c #000000",
"#	c #020202",
"$	c #010101",
"%	c #979797",
"&	c #989898",
"*	c #999999",
"=	c #B0B0B0",
"-	c #777777",
";	c #272727",
">	c #292929",
",	c #232323",
"'	c #6C6C6C",
")	c #6B6B6B",
"!	c #9C9C9C",
"~	c #9B9B9B",
"{	c #A0A0A0",
"]	c #2C2C2C",
"^	c #696969",
"/	c #5A5A5A",
"(	c #2B2B2B",
"_	c #6A6A6A",
":	c #5B5B5B",
"<	c #6D6D6D",
"[	c #7F7F7F",
"}	c #808080",
"|	c #969696",
"                                            ",
"                                            ",
"               .++++++++++++                ",
"               @##$$$$$$$$$$%               ",
"               @$$$@@@@@@@@@%               ",
"               @$$$@@@@@@@@@&               ",
"               @$$$@@@@@@@@@*               ",
"               @$$$@@@@@@@@@*               ",
"              =@@@@@@@@@@@@@*               ",
"        -;>>>>,@@@@@@@@@@@@@*               ",
"        '@@@@@@$@@@@@@@@@@@@*               ",
"        '@@@@@@@@@@@@@@@@@@@*               ",
"        '@@@@@@@@@@@@@@@@@@@*               ",
"        '@@@@@@@@@@@@@@@@@@@*               ",
"        '@@@@@@@@@@@@@@@@@@@*               ",
"        )@@@@@@$@@@@@@@@@@@@*               ",
"         &!~~~{@@@@@@@@@@@@@*               ",
"               @$$$@@@@@@@@@*               ",
"               @$$@@@@@@@@@@*               ",
"               @$@@@@@@@@@@@*               ",
"               @$@@@@@@@@@@@*               ",
"               @$@@@@@@@@@@@*               ",
"               @$@@@@@@@@@@@*               ",
"               @$@@@@@@@@@@@*               ",
"               @$@@@@@@@@@@@*               ",
"               @@@@@@@@@@@@@*               ",
"               @@@@@@@@@@@@@*               ",
"               @@@@@@@@@@@@@*               ",
"               @@@@@@@@@@@@@*               ",
"               @@@@@@@@@@@@@*               ",
"               @@@@@@@@@@@@@*               ",
"               @@@@@@@@@@@@@*               ",
"               @@@@@@@@@@@@@*               ",
"               @@@@@@@@@@@@@*               ",
"               @@@@@@@@@@@@@*               ",
"               @@@@@@@@@@@@@*               ",
"               @@@@@@@@@@@@@*               ",
"               @@@@@@@@@@@@@*               ",
"               @@@@@@@@@@@@@*               ",
"               @@@@@@@@@@@@@*               ",
"         ]]]]]^@@@@@@@@@@@@@/>((((^         ",
"        _@@@@@@@@@@@@@@@@@@@@@$$$$/         ",
"        )@@@@@@@@@@@@@@@@@@@@$$$$$:         ",
"        )@@@@@@@@@@@@@@@@@@@@@@@$$:         ",
"        '@@@@@@@@@@@@@@@@@@@@@@@$$:         ",
"        _@@@@@@@@@@@@@@@@@@@@@@@$$:         ",
"        <@@@@@@@@@@@@@@@@@@@@@@@@$/         ",
"        {[[[[[[[[[[[[[[[[[[[[[[[[}|         ",
"                                            ",
"                                            "};
