/* XPM */
static char * 4_xpm[] = {
"115 130 70 1",
" 	c None",
".	c #E5E5E5",
"+	c #E2E2E2",
"@	c #E4E4E4",
"#	c #E7E7E7",
"$	c #E8E8E8",
"%	c #E3E3E3",
"&	c #777777",
"*	c #0D0D0D",
"=	c #1B1B1B",
"-	c #181818",
";	c #141414",
">	c #0A0A0A",
",	c #5D5D5D",
"'	c #D2D2D2",
")	c #1A1A1A",
"!	c #131313",
"~	c #1D1D1D",
"{	c #DEDEDE",
"]	c #6C6C6C",
"^	c #020202",
"/	c #030303",
"(	c #010101",
"_	c #000000",
":	c #525152",
"<	c #CECECE",
"[	c #060606",
"}	c #DADADA",
"|	c #050505",
"1	c #D9D9D9",
"2	c #6B6B6B",
"3	c #6A6A6A",
"4	c #2C2C2C",
"5	c #787878",
"6	c #727272",
"7	c #707070",
"8	c #737373",
"9	c #717171",
"0	c #5A5A5A",
"a	c #171717",
"b	c #151515",
"c	c #161616",
"d	c #E0E0E0",
"e	c #E9E9E9",
"f	c #EBEBEB",
"g	c #AAAAAA",
"h	c #BBBBBB",
"i	c #C0C0C0",
"j	c #BABABA",
"k	c #A0A0A0",
"l	c #A2A2A2",
"m	c #A8A8A8",
"n	c #A4A4A4",
"o	c #ACACAC",
"p	c #858585",
"q	c #CDCDCD",
"r	c #070707",
"s	c #CCCCCC",
"t	c #CBCBCB",
"u	c #D7D7D7",
"v	c #C9C9C9",
"w	c #080808",
"x	c #D0D0D0",
"y	c #111111",
"z	c #0F0F0F",
"A	c #0E0E0E",
"B	c #101010",
"C	c #D3D3D3",
"D	c #D5D5D5",
"E	c #D6D6D6",
"                                                                                                                   ",
"                                                                                                                   ",
"                                                                                                                   ",
"                                                                                                                   ",
"                                                                                                                   ",
"                                                                                                                   ",
"                                                                                                                   ",
"       .+@############################@+#                               @#$$$$$$$$$$$$$$$$$$$$$$$$$$$$$$$$%        ",
"      &*=-;;;;;;;;;;;;;;;;;;;;;;;;;;;;;->,                             ')!;;;;;;;;;;;;;;;;;;;;;;;;;;;;;;;;~{       ",
"      ]^/(_____________________________/_:                             <[_(((((((((((((((((((((((((((((((([}       ",
"      ]^/(_____________________________/_:                             <[_(((((((((((((((((((((((((((((((([}       ",
"      ]^/(_____________________________/_:                             <[_(((((((((((((((((((((((((((((((([}       ",
"      ]^/(_____________________________/_:                             <[_(((((((((((((((((((((((((((((((([}       ",
"      ]^/(_____________________________/_:                             <[_________________________________|1       ",
"      ]^/(_____________________________/_:                             <[_________________________________|1       ",
"      ]^/(_____________________________/_:                             <[_________________________________|1       ",
"      ]^/(_____________________________/_:                             <[_________________________________|1       ",
"      2(^______________________________/_:                             <[_________________________________[}       ",
"      2(^______________________________/_:                             <[_________________________________[}       ",
"      2(^______________________________/_:                             <[_________________________________[}       ",
"      2(^______________________________/_:                             <[_________________________________[}       ",
"      2(^______________________________/_:                             <[_________________________________[}       ",
"      2(^______________________________/_:                             <[_________________________________[}       ",
"      2(^______________________________/_:                             <[_________________________________[}       ",
"      2(^______________________________/_:                             <[_________________________________[}       ",
"      2(^______________________________/_:                             <[_________________________________[}       ",
"      2(^______________________________/_:                             <[_________________________________[}       ",
"      2(^______________________________/_:                             <[_________________________________[}       ",
"      2(^______________________________/_:                             <[_________________________________[}       ",
"      2(^______________________________/_:                             <[_________________________________[}       ",
"      2(^______________________________/_:                             <[_________________________________[}       ",
"      2(^______________________________/_:                             <[_________________________________[}       ",
"      2(^______________________________/_:                             <[_________________________________[}       ",
"      2(^______________________________/_:                             <[_________________________________[}       ",
"      2(^______________________________/_:                             <[_________________________________[}       ",
"      2(^______________________________/_:                             <[_________________________________[}       ",
"      2(^______________________________/_:                             <[_________________________________[}       ",
"      2(^______________________________/_:                             <[_________________________________[}       ",
"      2(^______________________________/_:                             <[_________________________________[}       ",
"      2(^______________________________/_:                             <[_________________________________[}       ",
"      2(^______________________________/_:                             <[_________________________________[}       ",
"      2(^______________________________/_:                             <[_________________________________[}       ",
"      2(^______________________________/_:                             <[_________________________________[}       ",
"      2(^______________________________/_:                             <[_________________________________[}       ",
"      2(^______________________________/_:                             <[_________________________________[}       ",
"      2(^______________________________/_:                             <[_________________________________[}       ",
"      2(^______________________________/_:                             <[_________________________________[}       ",
"      2(^______________________________/_:                             <[_________________________________[}       ",
"      2(^______________________________/_:                             <[_________________________________[}       ",
"      2(^______________________________/_:                             <[_________________________________[}       ",
"      2(^______________________________/_:                             <[_________________________________[}       ",
"      2(^______________________________/_:                             <[_________________________________[}       ",
"      2(^______________________________/_:                             <[_________________________________[}       ",
"      2(^______________________________/_:                             <[_________________________________[}       ",
"      2(^______________________________/_:                             <[_________________________________[}       ",
"      2(^______________________________/_:                             <[_________________________________[}       ",
"      2(^______________________________/_:                             <[_________________________________[}       ",
"      2(^______________________________/_:                             <[_________________________________[}       ",
"      2(^______________________________/_:                             <[_________________________________[}       ",
"      2(^______________________________/_:                             <[_________________________________[}       ",
"      2(^______________________________/_:                             <[_________________________________[}       ",
"      2(^______________________________/_:                             <[_________________________________[}       ",
"      2(^______________________________/_:                             <[_________________________________[}       ",
"      2(^______________________________/_:                             <[_________________________________[}       ",
"      2(^______________________________/_:                             <[_________________________________[}       ",
"      ]^/(((((((((((((((((_____________/_:                             <[_________________________________[}       ",
"      ]^/(((((((((((((((((_____________/_:                             <[_________________________________[}       ",
"      ]^/(((((((((((((((((_____________/_:                             <[_________________________________[}       ",
"      ]^/(((((((((((((((((_____________/_:                             <[_________________________________[}       ",
"      ]^/(((((((((((((((((_____________/_:                             <[_________________________________[}       ",
"      ]^/(((((((((((((((((_____________/_:                             <[_________________________________[}       ",
"      ]^/(((((((((((((((((_____________/_:                             <[_________________________________[}       ",
"      ]^/((((((((((((((_^(_____________/_:                             <[_________________________________[}       ",
"      3___________^___(_/_____________(^/4567899999999999999999999999980//________________________________[}       ",
"      2_|_________/^(___((((___________(_|____________________________([(^________________________________[}       ",
"      &>abbbbbbbbbbca-a_(^____________^__^[|^^^///////////////////////^/__________________________________[}       ",
"       ##d........@.efg_^______________((___(((________________________^__________________________________[}       ",
"                      h(^_________________________________________________________________________________[}       ",
"                      h(^_________________________________________________________________________________[}       ",
"                      h(^_________________________________________________________________________________[}       ",
"                      h(^_________________________________________________________________________________[}       ",
"                      h(^_________________________________________________________________________________[}       ",
"                      h(^_________________________________________________________________________________[}       ",
"                      h(^_________________________________________________________________________________[}       ",
"                      h(^_________________________________________________________________________________[}       ",
"                      h(^_________________________________________________________________________________[}       ",
"                      h(^_________________________________________________________________________________[}       ",
"                      h(^_________________________________________________________________________________[}       ",
"                      h(^_________________________________________________________________________________[}       ",
"                      i___((((((((((((((((((((((((((((((((((((((((((((___(________________________________[}       ",
"                      h_/_////////////////////////////////////////////____________________________________[}       ",
"                      j(__(((((((((((((((((((((((((((((((((((((((((((_____________________________________[}       ",
"                      +klmnnnnnnnnnnnnnnnnnnnnnnnnnnnnnnnnnnnnnnnnnnnnop(_________________________________[}       ",
"                                                                       qr_________________________________[}       ",
"                                                                       qr_________________________________[}       ",
"                                                                       qr_________________________________[}       ",
"                                                                       qr_________________________________[}       ",
"                                                                       s[_________________________________[}       ",
"                                                                       s[_________________________________[}       ",
"                                                                       s[_________________________________[}       ",
"                                                                       s[_________________________________[}       ",
"                                                                       s[_________________________________[}       ",
"                                                                       s[_________________________________[}       ",
"                                                                       s[_________________________________[}       ",
"                                                                       s[_________________________________[}       ",
"                                                                       s[_________________________________[}       ",
"                                                                       s[_________________________________[}       ",
"                                                                       s[_________________________________[}       ",
"                                                                       s[_________________________________[}       ",
"                                                                       s[_________________________________[}       ",
"                                                                       s[_________________________________[}       ",
"                                                                       s[_________________________________[}       ",
"                                                                       s[_________________________________[}       ",
"                                                                       s[_________________________________[}       ",
"                                                                       s[_________________________________[}       ",
"                                                                       s[_________________________________[}       ",
"                                                                       s[_________________________________[}       ",
"                                                                       s[_________________________________[}       ",
"                                                                       s[_________________________________[}       ",
"                                                                       s[_________________________________r}       ",
"                                                                       s[_________________________________r}       ",
"                                                                       tr(______________((((^^^^^^^^^^^^^^r1       ",
"                                                                       <r_^^^^^^^^^^^^^^((((______________ru       ",
"                                                                       v|_^^^^^^^^^^^^^^((((______________w1       ",
"                                                                       xyzAAAAAAAAAAAAAAzzzzBBBBBBBBBBBBBB>}       ",
"                                                                        CCDDDDDDDDDDDDDDDDDDDDDDDDDDDDDDDDE        ",
"                                                                                                                   ",
"                                                                                                                   ",
"                                                                                                                   ",
"                                                                                                                   "};
