/* XPM */
static char * 5_xpm[] = {
"44 50 51 1",
" 	c None",
".	c #8F8F8F",
"+	c #8C8C8C",
"@	c #8B8B8B",
"#	c #232323",
"$	c #000000",
"%	c #010101",
"&	c #202020",
"*	c #212121",
"=	c #020202",
"-	c #3D3D3D",
";	c #171717",
">	c #191919",
",	c #181818",
"'	c #616161",
")	c #050505",
"!	c #111111",
"~	c #101010",
"{	c #0F0F0F",
"]	c #6A6A6A",
"^	c #696969",
"/	c #6C6C6C",
"(	c #2A2A2A",
"_	c #121212",
":	c #131313",
"<	c #252525",
"[	c #404040",
"}	c #2F2F2F",
"|	c #4C4C4C",
"1	c #5A5A5A",
"2	c #B5B5B5",
"3	c #AFAFAF",
"4	c #AEAEAE",
"5	c #B0B0B0",
"6	c #1C1C1C",
"7	c #606060",
"8	c #636363",
"9	c #222222",
"0	c #595959",
"a	c #585858",
"b	c #353535",
"c	c #1E1E1E",
"d	c #1F1F1F",
"e	c #0B0B0B",
"f	c #141414",
"g	c #323232",
"h	c #545454",
"i	c #686868",
"j	c #B2B2B2",
"k	c #A3A3A3",
"l	c #A2A2A2",
"                                            ",
"                                            ",
"   .++++++++++++++++++++++++++++++++++++@.  ",
"   #$$$$$$$$$$$$$$$$$$$$$$$$$$$$$$$$$$$$%&  ",
"   #$$$$$$$$$$$$$$$$$$$$$$$$$$$$$$$$$$$$%*  ",
"   #$$$$$$$$$$$$$$$$$$$$$$$$$$$$$$$$$$$$%&  ",
"   #$$$$$$$$$$$$$$$$$$$$$$$$$$$$$$$$$$$$%*  ",
"   #$$$$$$$$$$$$$$$$$$$$$$$$$$$$$$$$$$$$%*  ",
"   #$$$$$$$$$$$$%========================&  ",
"   #$$$$$$$$$$$%-;>>>>>>>>>>>>>>>>>>>>>>,   ",
"   #$$$$$$$$$$$='                           ",
"   #$$$$$$$$$$$='                           ",
"   #$$$$$$$$$$$='                           ",
"   #$$$$$$$$$$$='                           ",
"   #$$$$$$$$$$$%'                           ",
"   #$$$$$$$$$$$$)!~!!!!!!!!!!!!!!!{]        ",
"   #$$$$$$$$$$$$$$$$$$$$$$$$$$$$$$$^        ",
"   #$$$$$$$$$$$$$$$$$$$$$$$$$$$$$$$^        ",
"   #$$$$$$$$$$$$$$$$$$$$$$$$$$$$$$$^        ",
"   #$$$$$$$$$$$$$$$$$$$$$$$$$$$$$$$^        ",
"   #$$$$$%%%%%%%%%%%%%%%%%%$$$$$$$$/        ",
"   (!_____________________:_=$$$$$$<[,,,>}  ",
"                            |$$$$$$$$$$$=*  ",
"                            1%$$$$$$$$$$%*  ",
"                            1%$$$$$$$$$$%*  ",
"                            1%$$$$$$$$$$%*  ",
"                            1%$$$$$$$$$$%*  ",
"                            1%$$$$$$$$$$%*  ",
"                            1%$$$$$$$$$$%*  ",
"                            1%$$$$$$$$$$%*  ",
"                            1%$$$$$$$$$$%*  ",
"                            1%$$$$$$$$$$%*  ",
"                            1%$$$$$$$$$$%*  ",
"   2343333333335            1%$$$$$$$$$$%*  ",
"   6$$$$$$$$$$$$7           1%$$$$$$$$$$%*  ",
"   #$$$$$$$$$$$%8           1%$$$$$$$$$$%*  ",
"   9$$$$$$$$$$$%8           1%$$$$$$$$$$%*  ",
"   9$$$$$$$$$$$%8           1%$$$$$$$$$$%*  ",
"   9$$$$$$$$$$$%8           0%$$$$$$$$$$%*  ",
"   9$$$$$$$$$$$=7           a%$$$$$$$$$$%*  ",
"   bcdddde$$$$$$f#9#########e%$$$$%:&ddd*g  ",
"         h$$$$$$$%%%%%%%%%%%$$$$$$$'        ",
"         a%$$$$$$%%$$$$$$$$$$$$$$$$^        ",
"         a%$$$$$$$$$$$$$$$$$$$$$$$$^        ",
"         a%$$$$$$$$$$$$$$$$$$$$$$$$^        ",
"         a%$$$$$$$$$$$$$$$$$$$$$$$$^        ",
"         a%$$$$$$$$$$$$$$$$$$$$$$$$i        ",
"         jkkklllllllllllllllllllllk         ",
"                                            ",
"                                            "};
