/* XPM */
static char * 6_xpm[] = {
"115 130 87 1",
" 	c None",
".	c #E9E9E9",
"+	c #DADADA",
"@	c #DCDCDC",
"#	c #D6D6D6",
"$	c #828282",
"%	c #000000",
"&	c #080808",
"*	c #070707",
"=	c #010101",
"-	c #030303",
";	c #0A0A0A",
">	c #848484",
",	c #818181",
"'	c #060606",
")	c #858585",
"!	c #6D6D6D",
"~	c #404040",
"{	c #4D4D4D",
"]	c #494949",
"^	c #484848",
"/	c #4E4E4E",
"(	c #252525",
"_	c #020202",
":	c #282828",
"<	c #4B4B4B",
"[	c #424242",
"}	c #666666",
"|	c #303030",
"1	c #323232",
"2	c #050505",
"3	c #1B1B1B",
"4	c #3B3B3B",
"5	c #3A3A3A",
"6	c #393939",
"7	c #343434",
"8	c #232323",
"9	c #8D8D8D",
"0	c #929292",
"a	c #939393",
"b	c #8E8E8E",
"c	c #909090",
"d	c #8B8B8B",
"e	c #2D2D2D",
"f	c #E4E4E4",
"g	c #BDBDBD",
"h	c #C8C8C8",
"i	c #C9C9C9",
"j	c #C7C7C7",
"k	c #CFCFCF",
"l	c #8F8F8F",
"m	c #E2E2E2",
"n	c #E0E0E0",
"o	c #E1E1E1",
"p	c #DEDEDE",
"q	c #0E0E0E",
"r	c #181818",
"s	c #1E1E1E",
"t	c #1A1A1A",
"u	c #7D7D7D",
"v	c #868686",
"w	c #2F2F2F",
"x	c #626262",
"y	c #5E5E5E",
"z	c #5F5F5F",
"A	c #5A5A5A",
"B	c #808080",
"C	c #161616",
"D	c #242424",
"E	c #E8E8E8",
"F	c #949494",
"G	c #969696",
"H	c #8C8C8C",
"I	c #111111",
"J	c #222222",
"K	c #212121",
"L	c #333333",
"M	c #797979",
"N	c #5D5D5D",
"O	c #575757",
"P	c #7A7A7A",
"Q	c #7E7E7E",
"R	c #171717",
"S	c #101010",
"T	c #0F0F0F",
"U	c #E3E3E3",
"V	c #E7E7E7",
"                                                                                                                   ",
"                                                                                                                   ",
"                                                                                                                   ",
"                                                                                                                   ",
"                                                                                                                   ",
"                                                                                                                   ",
"                                                                                                                   ",
"                      .+@++++++++++++++++++++++++++++++++++++++++++++++++++++++++++++++++#                         ",
"                      $%&****************************************************************=$                        ",
"                      $-;%%%%%%%%%%%%%%%%%%%%%%%%%%%%%%%%%%%%%%%%%%%%%%%%%%%%%%%%%%%%%%%%=>                        ",
"                      ,='%%%%%%%%%%%%%%%%%%%%%%%%%%%%%%%%%%%%%%%%%%%%%%%%%%%%%%%%%%%%%%%%%$                        ",
"                      ,='%%%%%%%%%%%%%%%%%%%%%%%%%%%%%%%%%%%%%%%%%%%%%%%%%%%%%%%%%%%%%%%%%$                        ",
"                      ,='%%%%%%%%%%%%%%%%%%%%%%%%%%%%%%%%%%%%%%%%%%%%%%%%%%%%%%%%%%%%%%%%%$                        ",
"                      ,='%%%%%%%%%%%%%%%%%%%%%%%%%%%%%%%%%%%%%%%%%%%%%%%%%%%%%%%%%%%%%%%%%$                        ",
"                      ,='%%%%%%%%%%%%%%%%%%%%%%%%%%%%%%%%%%%%%%%%%%%%%%%%%%%%%%%%%%%%%%%%%$                        ",
"                      ,='%%%%%%%%%%%%%%%%%%%%%%%%%%%%%%%%%%%%%%%%%%%%%%%%%%%%%%%%%%%%%%%%%$                        ",
"                      ,='%%%%%%%%%%%%%%%%%%%%%%%%%%%%%%%%%%%%%%%%%%%%%%%%%%%%%%%%%%%%%%%%%$                        ",
"                      ,='%%%%%%%%%%%%%%%%%%%%%%%%%%%%%%%%%%%%%%%%%%%%%%%%%%%%%%%%%%%%%%%%%$                        ",
"                      ,='%%%%%%%%%%%%%%%%%%%%%%%%%%%%%%%%%%%%%%%%%%%%%%%%%%%%%%%%%%%%%%%%%$                        ",
"                      ,='%%%%%%%%%%%%%%%%%%%%%%%%%%%%%%%%%%%%%%%%%%%%%%%%%%%%%%%%%%%%%%%%%$                        ",
"                      ,='%%%%%%%%%%%%%%%%%%%%%%%%%%%%%%%%%%%%%%%%%%%%%%%%%%%%%%%%%%%%%%%%%$                        ",
"                      ,='%%%%%%%%%%%%%%%%%%%%%%%%%%%%%%%%%%%%%%%%%%%%%%%%%%%%%%%%%%%%%%%%%$                        ",
"                      )%-%%%%%%%%%%%%%%%%%%%%%======================%%%%%%%%%%%%%%%%%%%%%%>                        ",
"                      >%-%%%%%%%%%%%%%%%%%%%%%%%%%%%%%%%%%%%%%%%%%%%%%%%%%%%%%%%%%%%%%%%%=,                        ",
"      !~{]]]]^^^^^^^^/(%_%%%%%%%%%%%%%%%%%%====_____________________==%%%%%%%%%%%%%%%%%%%%:/<]]]]]]]]]]]][}        ",
"      |=-___==%%%%%%%%%%%%%%%%%%%%%%%%%%%%%%%%%%%%%%%%%%%%%%%%%%%%%%%%%%%%%%%%%%%%%%%%%%%%%%-=============|        ",
"      1%2___===========%=%%%%%%%%%%%%%%%%3~456666666666666666666666667~8%================%%%%============%|        ",
"      1%2__=%%%%%%%%%%%%%%%%%%%%%%%%%%%%%9                             0=================%%%%%%%%%%%%====%|        ",
"      1%2_=%%%%%%%%%%%%%%%%%%%%%%%%%%%%=%a                             02_==%============%%%%%%%%%%%%====%|        ",
"      1%2=%%%%%%%%%%%%%%%%%%%%%%%%%%%%%=%b                             a__==%============%%%%%%%%%%%%====%|        ",
"      1%2=%%%%%%%%%%%%%%%%%%%%%%%%%%%=%=%c                             0=__%%%%%%%%%%%%%%%%%%%%%%%%%%====%|        ",
"      1%2=%%%%%%%%%%%%%%%%%%%%%%%%%%%=%=%c                             0=__%%%%%%%%%%%%%%%%%%%%%%%%%%====%|        ",
"      1%2=%%%%%%%%%%%%%%%%%%%%%%%%%%%=%_%c                             0=-_%%%%%%%%%%%%%%%%%%%%%%%%%%====%|        ",
"      1%2=%%%%%%%%%%%%%%%%%%%%%%%%%%%=%_%c                             0=-_%%%%%%%%%%%%%%%%%%%%%%%%%%====%|        ",
"      1%2=%%%%%%%%%%%%%%%%%%%%%%%%%%%=%_%c                             0=-_%%%%%%%%%%%%%%%%%%%%%%%%%%====%|        ",
"      1%2=%%%%%%%%%%%%%%%%%%%%%%%%%%%=%_%c                             0=-_%%%%%%%%%%%%%%%%%%%%%%%%%%====%|        ",
"      1%2=%%%%%%%%%%%%%%%%%%%%%%%%%%%=%_%c                             0=-_%%%%%%%%%%%%%%%%%%%%%%%%%%====%|        ",
"      1%2=%%%%%%%%%%%%%%%%%%%%%%%%%%%=%_%c                             0=-_%%%%%%%%%%%%%%%%%%%%%%%%%%====%|        ",
"      1%2=%%%%%%%%%%%%%%%%%%%%%%%%%%%=%_%c                             0=-_%%%%%%%%%%%%%%%%%%%%%%%%%%====%|        ",
"      1%2=%%%%%%%%%%%%%%%%%%%%%%%%%%%=%_%c                             0=-_%%%%%%%%%%%%%%%%%%%%%%%%%%====%|        ",
"      1%2=%%%%%%%%%%%%%%%%%%%%%%%%%%%=%_%c                             0=-_%%%%%%%%%%%%%%%%%%%%%%%%%%====%|        ",
"      1%2=%%%%%%%%%%%%%%%%%%%%%%%%%%%=%_%c                             0=-_%%%%%%%%%%%%%%%%%%%%%%%%%%====%|        ",
"      1%2=%%%%%%%%%%%%%%%%%%%%%%%%%%%=%_%c                             d-===_%%%%%%%%%%%%%%%%%%%%%%%%%%==%e        ",
"      1%2=%%%%%%%%%%%%%%%%%%%%%%%%%%%=%_%c                             fghiihhjjjjjjjjjjjjjjjjjjjjjjjjjjjik        ",
"      1%2=%%%%%%%%%%%%%%%%%%%%%%%%%%%=%_%c                                                                         ",
"      1%2=%%%%%%%%%%%%%%%%%%%%%%%%%%%=%_%c                                                                         ",
"      1%2=%%%%%%%%%%%%%%%%%%%%%%%%%%%=%_%c                                                                         ",
"      1%2=%%%%%%%%%%%%%%%%%%%%%%%%%%%=%_%c                                                                         ",
"      1%2=%%%%%%%%%%%%%%%%%%%%%%%%%%%=%_%c                                                                         ",
"      1%2=%%%%%%%%%%%%%%%%%%%%%%%%%%%=%_%c                                                                         ",
"      1%2=%%%%%%%%%%%%%%%%%%%%%%%%%%%=%_%c                                                                         ",
"      1%2=%%%%%%%%%%%%%%%%%%%%%%%%%%%=%_%c                                                                         ",
"      1%2=%%%%%%%%%%%%%%%%%%%%%%%%%%%=%_%c                                                                         ",
"      1%2=%%%%%%%%%%%%%%%%%%%%%%%%%%%=%=%c                                                                         ",
"      1%2=%%%%%%%%%%%%%%%%%%%%%%%%%%%%%=%c                                                                         ",
"      1%2=%%%%%%%%%%%%%%%%%%%%%%%%%%%%%%%l                                                                         ",
"      1%2=%%%%%%%%%%%%%%%%%%%%%%%%%%%%%%%> mnnnnnoooooooooooooooooooooooooooooooooooooooop                         ",
"      1%2=%%%%%%%%%%%%%%%%%%%%%%%%%%%%%%%q3rsrrrrttttttttttttttttttttttttttttttttttttttttqc                        ",
"      1%2=%%%%%%%%%%%%%%%%%%%%%%%%%%%%%%%%%%%%%%%========================================%$                        ",
"      1%2=%%%%%%%%%%%%%%%%%%%%%%%%%%%%%%%%%%%%%%%========================================%$                        ",
"      1%2=%%%%%%%%%%%%%%%%%%%%%%%%%%%%%%%%%%%%%%%========================================%$                        ",
"      1%2=%%%%%%%%%%%%%%%%%%%%%%%%%%%%%%%%%%%%%%%========================================%$                        ",
"      1%2=%%%%%%%%%%%%%%%%%%%%%%%%%%%%%%%%%%%%%%%%%%%%%%%%%%%%%%%%%%%%%%%%%%%%%%%%%%%====%$                        ",
"      1%2=%%%%%%%%%%%%%%%%%%%%%%%%%%%%%%%%%%%%%%%%%%%%%%%%%%%%%%%%%%%%%%%%%%%%%%%%%%%====%$                        ",
"      1%2=%%%%%%%%%%%%%%%%%%%%%%%%%%%%%%%%%%%%%%%%%%%%%%%%%%%%%%%%%%%%%%%%%%%%%%%%%%%====%$                        ",
"      1%2=%%%%%%%%%%%%%%%%%%%%%%%%%%%%%%%%%%%%%%%%%%%%%%%%%%%%%%%%%%%%%%%%%%%%%%%%%%%====%$                        ",
"      1%2=%%%%%%%%%%%%%%%%%%%%%%%%%%%%%%%%%%%%%%%%%%%%%%%%%%%%%%%%%%%%%%%%%%%%%%%%%%%====%$                        ",
"      1%2=%%%%%%%%%%%%%%%%%%%%%%%%%%%%%%%%%%%%%%%%%%%%%%%%%%%%%%%%%%%%%%%%%%%%%%%%%%%====%$                        ",
"      1%2=%%%%%%%%%%%%%%%%%%%%%%%%%%%%%%%%%%%%%%%%%%%%%%%%%%%%%%%%%%%%%%%%%%%%%%%%%%%====%$                        ",
"      1%2=%%%%%%%%%%%%%%%%%%%%%%%%%%%%%%%%%%%%%%%%%%%%%%%%%%%%%%%%%%%%%%%%%%%%%%%%%%%====%$                        ",
"      1%2=%%%%%%%%%%%%%%%%%%%%%%%%%%%%%%%%%%%%%%%%%%%%%%%%%%%%%%%%%%%%%%%%%%%%%%%%%%%====-u                        ",
"      1%2=%%%%%%%%%%%%%%%%%%%%%%%%%%%%%%%%%%%%%%%%%%%%%%%%%%%%%%%%%%%%%%%%%%%%%%%%%%%====%,                        ",
"      1%2=%%%%%%%%%%%%%%%%%%%%%%%%%%%%%%%%%%%%%%%%%%%%%%%%%%%%%%%%%%%%%%%%%%%%%%%%%%%====_v                        ",
"      1%2=%%%%%%%%%%%%%%%%%%%%%%%%%%%%%%%%%%%%%%%%%%%%%%%%%%%%%%%%%%%%%%%%%%%%%%%%%%%====%wxyzzzzzzzzzzzzAB        ",
"      1%2=%%%%%%%%%%%%%%%%%%%%%%%%%%%%%%%%%=2%%%%%%%%%%%%%%%%%%%%%%%%%%=%%%%%%%%%%%%%========%%%%%%%%%%%%%|        ",
"      1%2=%%%%%%%%%%%%%%%%%%%%%%%%%%%%%%%C:::DDDDDDDDDDDDDDDDDDDDDDDDD(C=%%%%%%%%%%%%======____----------%|        ",
"      1%2=%%%%%%%%%%%%%%%%%%%%%%%%%%%=%=%v E                         E v%%%%%%%%%%%%%=======%%%%%%%%%%%%%%|        ",
"      1%2=%%%%%%%%%%%%%%%%%%%%%%%%%%%=%=%0                             c%%%%%%%%%%%%%========____________%|        ",
"      1%2=%%%%%%%%%%%%%%%%%%%%%%%%%%%=%_%a                             F==%%%%%%%%%%%%%%%%%%%%%%%%%%%====%|        ",
"      1%2=%%%%%%%%%%%%%%%%%%%%%%%%%%%=%_%a                             F====%%%%%%%%%%%%%%%%%%%%%%%%%====%|        ",
"      1%2=%%%%%%%%%%%%%%%%%%%%%%%%%%%_%-%a                             F=====%%%%%%%%%%%%%%%%%%%%%%%%====%|        ",
"      1%2=%%%%%%%%%%%%%%%%%%%%%%%%%%%_%-%a                             F=====%%%%%%%%%%%%%%%%%%%%%%%%====%|        ",
"      1%2=%%%%%%%%%%%%%%%%%%%%%%%%%%%_%-%a                             F====%%%%%%%%%%%%%%%%%%%%%%%%%====%|        ",
"      1%2=%%%%%%%%%%%%%%%%%%%%%%%%%%%_%-%a                             F===%%%%%%%%%%%%%%%%%%%%%%%%%%====%|        ",
"      1%2=%%%%%%%%%%%%%%%%%%%%%%%%%%%_%-%a                             F==%%%%%%%%%%%%%%%%%%%%%%%%%%%====%|        ",
"      1%2=%%%%%%%%%%%%%%%%%%%%%%%%%%%_%-%a                             F=%%%%%%%%%%%%%%%%%%%%%%%%%%%%====%|        ",
"      1%2=%%%%%%%%%%%%%%%%%%%%%%%%%%%_%-%a                             F==%%%%%%%%%%%%%%%%%%%%%%%%%%%====%|        ",
"      1%2=%%%%%%%%%%%%%%%%%%%%%%%%%%%_%-%a                             F==%%%%%%%%%%%%%%%%%%%%%%%%%%%====%|        ",
"      1%2=%%%%%%%%%%%%%%%%%%%%%%%%%%%_%-%a                             F===%%%%%%%%%%%%%%%%%%%%%%%%%%====%|        ",
"      1%2=%%%%%%%%%%%%%%%%%%%%%%%%%%%_%-%a                             F===%%%%%%%%%%%%%%%%%%%%%%%%%%====%|        ",
"      1%2=%%%%%%%%%%%%%%%%%%%%%%%%%%%_%-%a                             F===%%%%%%%%%%%%%%%%%%%%%%%%%%====%|        ",
"      1%2=%%%%%%%%%%%%%%%%%%%%%%%%%%%_%-%a                             F===%%%%%%%%%%%%%%%%%%%%%%%%%%====%|        ",
"      1%2=%%%%%%%%%%%%%%%%%%%%%%%%%%%_%-%a                             F===%%%%%%%%%%%%%%%%%%%%%%%%%%====%|        ",
"      1%2=%%%%%%%%%%%%%%%%%%%%%%%%%%%_%-%a                             F===%%%%%%%%%%%%%%%%%%%%%%%%%%====%|        ",
"      1%2=%%%%%%%%%%%%%%%%%%%%%%%%%%%_%-%a                             F===%%%%%%%%%%%%%%%%%%%%%%%%%%====%|        ",
"      1%2=%%%%%%%%%%%%%%%%%%%%%%%%%%%_%-%a                             F===%%%%%%%%%%%%%%%%%%%%%%%%%%====%|        ",
"      1%2=%%%%%%%%%%%%%%%%%%%%%%%%%%%_%-%a                             F===%%%%%%%%%%%%%%%%%%%%%%%%%%====%|        ",
"      1%2=%%%%%%%%%%%%%%%%%%%%%%%%%%%_%-%a                             F===%%%%%%%%%%%%%%%%%%%%%%%%%%====%|        ",
"      1%2=%%%%%%%%%%%%%%%%%%%%%%%%%%%_%-%a                             F===%%%%%%%%%%%%%%%%%%%%%%%%%%====%|        ",
"      1%2=%%%%%%%%%%%%%%%%%%%%%%%%%%%_%-%a                             F===%%%%%%%%%%%%%%%%%%%%%%%%%%====%|        ",
"      1%2=%%%%%%%%%%%%%%%%%%%%%%%%%%%_%-%a                             F===%%%%%%%%%%%%%%%%%%%%%%%%%%====%|        ",
"      1%2=%%%%%%%%%%%%%%%%%%%%%%%%%%%_%-%a                             F%==%%%%%%%%%%%%%%%%%%%%%%%%%%====%|        ",
"      1%2=%%%%%%%%%%%%%%%%%%%%%%%%%%%_%-%l                             G%==%%%%%%%%%%%%%%%%%%%%%%%%%%====%|        ",
"      1%2=%%%%%%%%%%%%%%%%%%%%%%%%%%%_%-%0                             a%==%%%%%%%%%%%%%%%%%%%%%%%%%%====%|        ",
"      1%2=%%%%%%%%%%%%%%%%%%%%%%%%%%%_%-%c                             l%==%%%%%%%%%%%%%%%%%%%%%%%%%%====%|        ",
"      1%2=%%%%%%%%%%%%%%%%%%%%%%%%%%%_%_%d                             H%==%%%%%%%%%%%%%%%%%%%%%%%%%%====%|        ",
"      1%2_===========-_%=%%%%%%%%%%%%=%_=I:JsKKKKJJJJJJJJJJJJJJJJJJJJsJI%%%%%%%%%%%%%%%%%%==-________-----L        ",
"      w%2%%%%%%%%%%%%%%%%%%%%%%%%%%%%=%==%%==%%%%%%%%%%%%%%%%%%%%%%%%%%%-%%%%%%%%%%%%%%%%%=2=%%%%%%%%%%%%%e        ",
"      MAxzyyyyyyyyyyyyL=_%%%%%%%%%%%%=====-'&____--------------------=-%%%%%%%%%%%%%%%%%%%LxANNNNNNNNyyyyOP        ",
"                      ,='%%%%%%%%%%%%====_=_==%%%=======================%%%%%%%%%%%%%%%%%%,                        ",
"                      >=-=%%%%%%%%%%%%%%%%%%%%%%%%%%%%%%%%%%%%%%%%%%%%%%%%%%%%%%%%%%%%%%%%B                        ",
"                      >=-=%%%%%%%%%%%%%%%%%%%%%%%%%%%%%%%%%%%%%%%%%%%%%%%%%%%%%%%%%%%%%%%=B                        ",
"                      >_-=%%%%%%%%%%%%%%%%%%%%%%%%%%%%%%%%%%%%%%%%%%%%%%%%%%%%%%%%%%%%%%%=,                        ",
"                      >_-=%%%%%%%%%%%%%%%%%%%%%%%%%%%%%%%%%%%%%%%%%%%%%%%%%%%%%%%%%%%%%%%%,                        ",
"                      >_-=%%%%%%%%%%%%%%%%%%%%%%%%%%%%%%%%%%%%%%%%%%%%%%%%%%%%%%%%%%%%%%%%,                        ",
"                      >_-=%%%%%%%%%%%%%%%%%%%%%%%%%%%%%%%%%%%%%%%%%%%%%%%%%%%%%%%%%%%%%%%%,                        ",
"                      >_-=%%%%%%%%%%%%%%%%%%%%%%%%%%%%%%%%%%%%%%%%%%%%%%%%%%%%%%%%%%%%%%%%$                        ",
"                      >_-=%%%%%%%%%%%%%%%%%%%%%%%%%%%%%%%%%%%%%%%%%%%%%%%%%%%%%%%%%%%%%%%%,                        ",
"                      >_-=%%%%%%%%%%%%%%%%%%%%%%%%%%%%%%%%%%%%%%%%%%%%%%%%%%%%%%%%%%%%%%%%,                        ",
"                      >_-=%%%%%%%%%%%%%%%%%%%%%%%%%%%%%%%%%%%%%%%%%%%%%%%%%%%%%%%%%%%%%%%%B                        ",
"                      >_-=%%%%%%%%%%%%%%%%%%%%%%%%%%%%%%%%%%%%%%%%%%%%%%%%%%%%%%%%%%%%%%%=B                        ",
"                      >_-=%%%%%%%%%%%%%%%%%%%%%%%%%%%%%%%%%%%%%%%%%%%%%%%%%%%%%%%%%%%%%%%=B                        ",
"                      v_-_===========================================================____%,                        ",
"                      Q%-_==========================================================%%%%%=Q                        ",
"                      )2RSTTTTTTTTTTTTTTTTTTTTTTTTTTTTTTTTTTTTTTTTTTTTTTTTTTTTTTTTTSSSSII-d                        ",
"                       UE.EEEEEEEEEEEEEEEEEEEEEEEEEEEEEEEEEEEEEEEEEEEEEEEEEEEEEEEEEEEVVVVU                         ",
"                                                                                                                   ",
"                                                                                                                   ",
"                                                                                                                   ",
"                                                                                                                   "};
