/* XPM */
static char * 7_xpm[] = {
"115 130 74 1",
" 	c None",
".	c #DADADA",
"+	c #A9A9A9",
"@	c #060606",
"#	c #ACACAC",
"$	c #9E9E9E",
"%	c #000000",
"&	c #A3A3A3",
"*	c #010101",
"=	c #020202",
"-	c #A2A2A2",
";	c #030303",
">	c #B6B6B6",
",	c #3A3A3A",
"'	c #3B3B3B",
")	c #262626",
"!	c #252525",
"~	c #282828",
"{	c #242424",
"]	c #E4E4E4",
"^	c #9D9D9D",
"/	c #A0A0A0",
"(	c #9C9C9C",
"_	c #181818",
":	c #ADADAD",
"<	c #070707",
"[	c #B2B2B2",
"}	c #A1A1A1",
"|	c #0F0F0F",
"1	c #C1C1C1",
"2	c #C7C7C7",
"3	c #C8C8C8",
"4	c #CBCBCB",
"5	c #C6C6C6",
"6	c #C5C5C5",
"7	c #B3B3B3",
"8	c #171717",
"9	c #141414",
"0	c #E5E5E5",
"a	c #101010",
"b	c #EAEAEA",
"c	c #B4B4B4",
"d	c #111111",
"e	c #131313",
"f	c #AFAFAF",
"g	c #BABABA",
"h	c #050505",
"i	c #E7E7E7",
"j	c #E1E1E1",
"k	c #DEDEDE",
"l	c #717171",
"m	c #0D0D0D",
"n	c #1E1E1E",
"o	c #1A1A1A",
"p	c #1B1B1B",
"q	c #1C1C1C",
"r	c #151515",
"s	c #636363",
"t	c #292929",
"u	c #727272",
"v	c #747474",
"w	c #737373",
"x	c #7E7E7E",
"y	c #646464",
"z	c #5B5B5B",
"A	c #626262",
"B	c #5D5D5D",
"C	c #5E5E5E",
"D	c #616161",
"E	c #080808",
"F	c #6B6B6B",
"G	c #161616",
"H	c #696969",
"I	c #E9E9E9",
"                                                                                                                   ",
"                                                                                                                   ",
"                                                                                                                   ",
"                                                                                                                   ",
"                                                                                                                   ",
"                                                                                                                   ",
"                                                                                                                   ",
"        ....................................................................................................       ",
"       +@@@@@@@@@@@@@@@@@@@@@@@@@@@@@@@@@@@@@@@@@@@@@@@@@@@@@@@@@@@@@@@@@@@@@@@@@@@@@@@@@@@@@@@@@@@@@@@@@@@@#      ",
"       $%%%%%%%%%%%%%%%%%%%%%%%%%%%%%%%%%%%%%%%%%%%%%%%%%%%%%%%%%%%%%%%%%%%%%%%%%%%%%%%%%%%%%%%%%%%%%%%%%%%%$      ",
"       &********%%%%%%%%%%%%%%%%%%%%%%%%%%%%%%%%%%%%%%%%%%%%%%%%%%%%%%%%%%%%%%%%%%%%%%%%%%%%%%%%%%%%%%%%*%=%-      ",
"       &********%%%%%%%%%%%%%%%%%%%%%%%%%%%%%%%%%%%%%%%%%%%%%%%%%%%%%%%%%%%%%%%%%%%%%%%%%%%%%%%%%%%%%%%%*%=%-      ",
"       &********%%%%%%%%%%%%%%%%%%%%%%%%%%%%%%%%%%%%%%%%%%%%%%%%%%%%%%%%%%%%%%%%%%%%%%%%%%%%%%%%%%%%%%%%*%=%-      ",
"       &********%%%%%%%%%%%%%%%%%%%%%%%%%%%%%%%%%%%%%%%%%%%%%%%%%%%%%%%%%%%%%%%%%%%%%%%%%%%%%%%%%%%%%%%%*%=%-      ",
"       &********%%%%%%%%%%%%%%%%%%%%%%%%%%%%%%%%%%%%%%%%%%%%%%%%%%%%%%%%%%%%%%%%%%%%%%%%%%%%%%%%%%%%%%%%*%=%-      ",
"       &********%%%%%%%%%%%%%%%%%%%%%%%%%%%%%%%%%%%%%%%%%%%%%%%%%%%%%%%%%%%%%%%%%%%%%%%%%%%%%%%%%%%%%%%%*%=%-      ",
"       &********%%%%%%%%%%%%%%%%%%%%%%%%%%%%%%%%%%%%%%%%%%%%%%%%%%%%%%%%%%%%%%%%%%%%%%%%%%%%%%%%%%%%%%%%*%=%-      ",
"       &********%%%%%%%%%%%%%%%%%%%%%%%%%%%%%%%%%%%%%%%%%%%%%%%%%%%%%%%%%%%%%%%%%%%%%%%%%%%%%%%%%%%%%%%%*%=%-      ",
"       &********%%%%%%%%%%%%%%%%%%%%%%%%%%%%%%%%%%%%%%%%%%%%%%%%%%%%%%%%%%%%%%%%%%%%%%%%%%%%%%%%%%%%%%%%*%=%-      ",
"       &********%%%%%%%%%%%%%%%%%%%%%%%%%%%%%%%%%%%%%%%%%%%%%%%%%%%%%%%%%%%%%%%%%%%%%%%%%%%%%%%%%%%%%%%%*%=%-      ",
"       &********%%%%%%%%%%%%%%%%%%%%%%%%%%%%%%%%%%%%%%%%%%%%%%%%%%%%%%%%%%%%%%%%%%%%%%%%%%%%%%%%%%%%%%%%*%=%-      ",
"       &********%%%%%%%%%%%%%%%%%%%%%%%%%%%%%%%%%%%%%%%%%%%%%%%%%%%%%%%*%%%%%%%%%%%%%%%%%%%%%%%%%%%%%%%%*%=%-      ",
"       &*****==========================================================*****%%%%%%%%%%%%%%%%%%%%%%%%%%%%*%=%-      ",
"       &***%%%%%%%%%%%%%%%%%%%%%%%%%%%%%%%%%%%%%%%%%%%%%%%%%%%%%%%%%%%%%%%**%%%%%%%%%%%%%%%%%%%%%%%%%%%%*%=%-      ",
"       &**====;;;;;;;;;;;;;;;;;;;;;;;;;;;;;;;;;;;;;;;;;;;;;;;;;;;;;;;;;==***%%%%%%%%%%%%%%%%%%%%%%%%%%%%*%=%-      ",
"       &****%%%%%%%%%%%%%%%%%%%%%%%%%%%%%%%%%%%%%%%%%%%%%%%%%%%%%%%%%%%%****%%%%%%%%%%%%%%%%%%%%%%%%%%%%*%=%-      ",
"       >,,,,'''''''''''''''''''''''''''''''''''''''''''''''''''''''''''',@%*%%%%%%%%%%%%%%%%%%%%%%%%%%%%*%=%-      ",
"                                                                         )%*%%%%%%%%%%%%%%%%%%%%%%%%%%%%*%=%-      ",
"                                                                         );=%%%%%%%%%%%%%%%%%%%%%%%%%%%%*%=%-      ",
"                                                                         !==%%%%%%%%%%%%%%%%%%%%%%%%%%%%*%=%-      ",
"                                                                         ~%=%%%%%%%%%%%%%%%%%%%%%%%%%%%%*%=%-      ",
"                                                                         ~%=%%%%%%%%%%%%%%%%%%%%%%%%%%%%*%=%-      ",
"                                                                         ~%=%%%%%%%%%%%%%%%%%%%%%%%%%%%%*%=%-      ",
"                                                                         ~%=%%%%%%%%%%%%%%%%%%%%%%%%%%%%*%=%-      ",
"                                                                         ~%=%%%%%%%%%%%%%%%%%%%%%%%%%%%%*%=%-      ",
"                                                                         ~%=%%%%%%%%%%%%%%%%%%%%%%%%%%%%*%=%-      ",
"                                                                         ~%=%%%%%%%%%%%%%%%%%%%%%%%%%%%%*%=%-      ",
"                                                                         ~%=%%%%%%%%%%%%%%%%%%%%%%%%%%%%*%=%-      ",
"                                                                         {%*%%%%%%%%%%%%%%%%%%%%%%%%%%%%*%=%-      ",
"                                                                         {*%%%%%%%%%%%%%%%%%%%%%%%%%%%%%*%=%-      ",
"                                                        ]$$^^^^^^^$$$$//(_%%%%%%%%%%%%%%%%%%%%%%%%%%%%%%*%=%-      ",
"                                                        :%<*********%%%%=%%%%%%%%%%%%%%%%%%%%%%%%%%%%%%%*%=%-      ",
"                                                        [%;*************%%%%%%%%%%%%%%%%*%%%%%%*%%%%%%%%%%%%}      ",
"                                                        [%;*************%%%%%%%%%%%%%%%%%%;|1234333333322565       ",
"                                                        7%;%************%%%%%%%%%%%%%%%%*=*8                       ",
"                                                        7%;%************%%%%%%%%%%%%%%%%=*%90                      ",
"                                                        7%=%%%%%%%%%%%%%%%%%%%%%%%%%%%%%**%ab                      ",
"                                                        7%=%%%%%%%%%%%%%%%%%%%%%%%%%%%%%**%ab                      ",
"                                                        c%=%%%%%%%%%%%%%%%%%%%%%%%%%%%%%**%db                      ",
"                                                        c%=%%%%%%%%%%%%%%%%%%%%%%%%%%%%%%*%db                      ",
"                                                        c%=%%%%%%%%%%%%%%%%%%%%%%%%%%%%%%%%d                       ",
"                                                        c%=%%%%%%%%%%%%%%%%%%%%%%%%%%%%%%%%d                       ",
"                                                        c%=%%%%%%%%%%%%%%%%%%%%%%%%%%%%%%%%e                       ",
"                                                        c%=%%%%%%%%%%%%%%%%%%%%%%%%%%%%%%%%e                       ",
"                                                        f%%;%%%%%%%%%%%%%%%%%%%%%%%%%%%%%%%e                       ",
"                                                        g%h%%%%%%%%%%%%%%%%%%%%%%%%%%%%%%%%e                       ",
"                                         i]]]]]]]]]]]jk &=h*%%%%%%%%%%%%%%%%%%%%%%%%%%%%%%%e                       ",
"                                        lmnooooooooopqrpd;%%%%%%%%%%%%%%%%%%%%%%%%%%%%%%%%%e                       ",
"                                        s==%%%%%%%%%%%%%%%%%%%%%%%%%%%%%=%%%%%%%%%%%%%%%=%=d                       ",
"                                        s==%%%%%%%%%%%%%%%%%%%%%%%%%%%%%%;%tuuuuuuuuuuuuvlwx                       ",
"                                        s==%%%%%%%%%%%%%%%%%%%%%%%%%%%%%=h;y                                       ",
"                                        s==%%%%%%%%%%%%%%%%%%%%%%%%%%%%%%h%z                                       ",
"                                        A**%%%%%%%%%%%%%%%%%%%%%%%%%%%%%%;%B                                       ",
"                                        A**%%%%%%%%%%%%%%%%%%%%%%%%%%%%%%;%B                                       ",
"                                        A**%%%%%%%%%%%%%%%%%%%%%%%%%%%%%%;%B                                       ",
"                                        A**%%%%%%%%%%%%%%%%%%%%%%%%%%%%%%;%B                                       ",
"                                        A**%%%%%%%%%%%%%%%%%%%%%%%%%%%%%%;%B                                       ",
"                                        A**%%%%%%%%%%%%%%%%%%%%%%%%%%%%%%;%B                                       ",
"                                        A**%%%%%%%%%%%%%%%%%%%%%%%%%%%%%%;%B                                       ",
"                                        A**%%%%%%%%%%%%%%%%%%%%%%%%%%%%%%;%B                                       ",
"                                        A**%%%%%%%%%%%%%%%%%%%%%%%%%%%%%%;%B                                       ",
"                                        A**%%%%%%%%%%%%%%%%%%%%%%%%%%%%%%;%B                                       ",
"                                        A**%%%%%%%%%%%%%%%%%%%%%%%%%%%%%%;%B                                       ",
"                                        A**%%%%%%%%%%%%%%%%%%%%%%%%%%%%%%;%B                                       ",
"                                        A**%%%%%%%%%%%%%%%%%%%%%%%%%%%%%%;%B                                       ",
"                                        A**%%%%%%%%%%%%%%%%%%%%%%%%%%%%%%;%B                                       ",
"                                        A**%%%%%%%%%%%%%%%%%%%%%%%%%%%%%%;%B                                       ",
"                                        A**%%%%%%%%%%%%%%%%%%%%%%%%%%%%%%;%B                                       ",
"                                        A**%%%%%%%%%%%%%%%%%%%%%%%%%%%%%%h*C                                       ",
"                                        A**%%%%%%%%%%%%%%%%%%%%%%%%%%%%%%h*C                                       ",
"                                        A**%%%%%%%%%%%%%%%%%%%%%%%%%%%%%%h*C                                       ",
"                                        A**%%%%%%%%%%%%%%%%%%%%%%%%%%%%%%h*C                                       ",
"                                        A**%%%%%%%%%%%%%%%%%%%%%%%%%%%%%%h*C                                       ",
"                                        A**%%%%%%%%%%%%%%%%%%%%%%%%%%%%%%h*C                                       ",
"                                        A**%%%%%%%%%%%%%%%%%%%%%%%%%%%%%%h*C                                       ",
"                                        A**%%%%%%%%%%%%%%%%%%%%%%%%%%%%%%h*C                                       ",
"                                        A**%%%%%%%%%%%%%%%%%%%%%%%%%%%%%%h*C                                       ",
"                                        A**%%%%%%%%%%%%%%%%%%%%%%%%%%%%%%h*C                                       ",
"                                        A**%%%%%%%%%%%%%%%%%%%%%%%%%%%%%%h*C                                       ",
"                                        A**%%%%%%%%%%%%%%%%%%%%%%%%%%%%%%h*C                                       ",
"                                        A**%%%%%%%%%%%%%%%%%%%%%%%%%%%%%%h*C                                       ",
"                                        A**%%%%%%%%%%%%%%%%%%%%%%%%%%%%%%h*C                                       ",
"                                        A**%%%%%%%%%%%%%%%%%%%%%%%%%%%%%%h*C                                       ",
"                                        A**%%%%%%%%%%%%%%%%%%%%%%%%%%%%%%h*C                                       ",
"                                        A**%%%%%%%%%%%%%%%%%%%%%%%%%%%%%%h*C                                       ",
"                                        A**%%%%%%%%%%%%%%%%%%%%%%%%%%%%%%h*C                                       ",
"                                        A**%%%%%%%%%%%%%%%%%%%%%%%%%%%%%%h*C                                       ",
"                                        A**%%%%%%%%%%%%%%%%%%%%%%%%%%%%%%h*C                                       ",
"                                        A**%%%%%%%%%%%%%%%%%%%%%%%%%%%%%%h*C                                       ",
"                                        A**%%%%%%%%%%%%%%%%%%%%%%%%%%%%%%h*C                                       ",
"                                        A**%%%%%%%%%%%%%%%%%%%%%%%%%%%%%%h*C                                       ",
"                                        A**%%%%%%%%%%%%%%%%%%%%%%%%%%%%%%h*C                                       ",
"                                        A**%%%%%%%%%%%%%%%%%%%%%%%%%%%%%%h*C                                       ",
"                                        A**%%%%%%%%%%%%%%%%%%%%%%%%%%%%%%h*C                                       ",
"                                        A**%%%%%%%%%%%%%%%%%%%%%%%%%%%%%%h*C                                       ",
"                                        A**%%%%%%%%%%%%%%%%%%%%%%%%%%%%%%h*C                                       ",
"                                        A**%%%%%%%%%%%%%%%%%%%%%%%%%%%%%%h*C                                       ",
"                                        A**%%%%%%%%%%%%%%%%%%%%%%%%%%%%%%h*C                                       ",
"                                        A**%%%%%%%%%%%%%%%%%%%%%%%%%%%%%%h*C                                       ",
"                                        A**%%%%%%%%%%%%%%%%%%%%%%%%%%%%%%h*C                                       ",
"                                        A**%%%%%%%%%%%%%%%%%%%%%%%%%%%%%%h*C                                       ",
"                                        A**%%%%%%%%%%%%%%%%%%%%%%%%%%%%%%h*C                                       ",
"                                        A**%%%%%%%%%%%%%%%%%%%%%%%%%%%%%%h*C                                       ",
"                                        A**%%%%%%%%%%%%%%%%%%%%%%%%%%%%%%h*C                                       ",
"                                        A**%%%%%%%%%%%%%%%%%%%%%%%%%%%%%%h*C                                       ",
"                                        A**%%%%%%%%%%%%%%%%%%%%%%%%%%%%%%h*C                                       ",
"                                        A**%%%%%%%%%%%%%%%%%%%%%%%%%%%%%%h*C                                       ",
"                                        A**%%%%%%%%%%%%%%%%%%%%%%%%%%%%%%h*C                                       ",
"                                        A**%%%%%%%%%%%%%%%%%%%%%%%%%%%%%%h*C                                       ",
"                                        A**%%%%%%%%%%%%%%%%%%%%%%%%%%%%%%h*C                                       ",
"                                        A**%%%%%%%%%%%%%%%%%%%%%%%%%%%%%%h*C                                       ",
"                                        A**%%%%%%%%%%%%%%%%%%%%%%%%%%%%%%h*C                                       ",
"                                        D*@*%%%%%%%%%%%%%%%%%%%%%%%%%%%%%h%C                                       ",
"                                        A%E%============================%;%C                                       ",
"                                        F;9Geeeeeeeeeeeeeeeeeeeeeeeeeeeede*H                                       ",
"                                         iIIIIIIIIIIIIIIIIIIIIIIIIIIIIIIIii                                        ",
"                                                                                                                   ",
"                                                                                                                   ",
"                                                                                                                   ",
"                                                                                                                   "};
