/* XPM */
static char *_ae4e8cffe1b4ee5f0314aec92f6a7aaWgfpvO5lpRYFgPhA[] = {
/* columns rows colors chars-per-pixel */
"65 65 54 1 ",
"  c #677A43",
". c #697A43",
"X c #687A44",
"o c #6A7A44",
"O c #6C7B45",
"+ c #6B7C45",
"@ c #6F7F46",
"# c #747B47",
"$ c #707C46",
"% c #737D47",
"& c #717E46",
"* c #737D48",
"= c #767D48",
"- c #797E49",
"; c #7B7F4A",
": c #6F8046",
"> c #718147",
", c #748447",
"< c #778248",
"1 c #778648",
"2 c #798149",
"3 c #7F804B",
"4 c #788748",
"5 c #788849",
"6 c #7B8949",
"7 c #7C8A49",
"8 c #7F8D4B",
"9 c #87824E",
"0 c #8B834F",
"q c #8C844F",
"w c #808F4B",
"e c #838C4C",
"r c #838F4C",
"t c #81904B",
"y c #83914C",
"u c #84924C",
"i c #87944D",
"p c #88934E",
"a c #8A954F",
"s c #8C964F",
"d c #8C994F",
"f c #8D8450",
"g c #938652",
"h c #978753",
"j c #8C9850",
"k c #909B51",
"l c #919C51",
"z c #959F53",
"x c #989D54",
"c c #9A9F55",
"v c #AF8F5C",
"b c #AF905D",
"n c #B0905D",
"m c #98A154",
/* pixels */
"nnnnnnnngggghhhh9999====OOOO....         ....gggg----ggggnnnnnnnn",
"nnnnnnnngggghhhh9999====OOOO....         ....gggg----ggggnnnnnnnn",
"nnnnnnnngggghhhh9999====OOOO....         ....gggg----ggggnnnnnnnn",
"nnnnnnnngggghhhh9999====OOOO....         ....gggg----ggggnnnnnnnn",
"nnnngggg0000ffffoooooooo    @@@@aaaaaOOOO<<<<&&&&ooooooooggggnnnn",
"nnnngggg0000ffffoooooooo    @@@@aaaaaOOOO<<<<&&&&ooooooooggggnnnn",
"nnnngggg0000ffffoooooooo    @@@@aaaaaOOOO<<<<&&&&ooooooooggggnnnn",
"nnnngggg0000ffffoooooooo    @@@@aaaaaOOOO<<<<&&&&ooooooooggggnnnn",
"gggg========oooo>>>>rrrr1111pppppppppaaaammmmmmmm....oooooooo3333",
"gggg========oooo>>>>rrrr1111pppppppppaaaammmmmmmm....oooooooo3333",
"gggg========oooo>>>>rrrr1111pppppppppaaaammmmmmmm....oooooooo3333",
"gggg========oooo>>>>rrrr1111pppppppppaaaammmmmmmm....oooooooo3333",
"----oooooooo@@@@yyyymmmmzzzzaaaatttttaaaajjjj6666llllmmmmooooqqqq",
"----oooooooo@@@@yyyymmmmzzzzaaaatttttaaaajjjj6666llllmmmmooooqqqq",
"----oooooooo@@@@yyyymmmmzzzzaaaatttttaaaajjjj6666llllmmmmooooqqqq",
"----oooooooo@@@@yyyymmmmzzzzaaaatttttaaaajjjj6666llllmmmmooooqqqq",
"----oooo@@@@mmmm8888kkkkyyyy::::88888yyyyyyyy6666aaaazzzz++++@@@@",
"----oooo@@@@mmmm8888kkkkyyyy::::88888yyyyyyyy6666aaaazzzz++++@@@@",
"----oooo@@@@mmmm8888kkkkyyyy::::88888yyyyyyyy6666aaaazzzz++++@@@@",
"----oooo@@@@mmmm8888kkkkyyyy::::88888yyyyyyyy6666aaaazzzz++++@@@@",
"OOOO    aaaazzzziiiiyyyyyyyyyyyyyyyyyyyyyyyyyyyyyuuuudddd,,,,>>>>",
"OOOO    aaaazzzziiiiyyyyyyyyyyyyyyyyyyyyyyyyyyyyyuuuudddd,,,,>>>>",
"OOOO    aaaazzzziiiiyyyyyyyyyyyyyyyyyyyyyyyyyyyyyuuuudddd,,,,>>>>",
"OOOO    aaaazzzziiiiyyyyyyyyyyyyyyyyyyyyyyyyyyyyyuuuudddd,,,,>>>>",
"oooo    cccc4444wwwwyyyyyyyyyyyyyyyyyyyyyyyyytttt6666aaaa7777****",
"oooo    cccc4444wwwwyyyyyyyyyyyyyyyyyyyyyyyyytttt6666aaaa7777****",
"oooo    cccc4444wwwwyyyyyyyyyyyyyyyyyyyyyyyyytttt6666aaaa7777****",
"oooo    cccc4444wwwwyyyyyyyyyyyyyyyyyyyyyyyyytttt6666aiia7777****",
"++++OOOOmmmmyyyyyyyyyyyy++ooyyyyyyyyyyyyy111111111111iiia>>>>oooo",
"++++OOOOmmmmyyyyyyyyyyyy++ooyyyyyyyyyyyyy111111111111iiia>>>>oooo",
"++++OOOOmmmmyyyyyyyyyyyyooooyyyyyyyyyyyyy111111111111iaaa>>>>oooo",
"++++OOOOmmmmyyyyyyyyyyyyooooyyyyyyyyyyyyy111111111111aaaa>>>>oooo",
"ooooOOOOccccyyyyyyyyyyyyyyyyyyyyyyyyyyyyyyyyyyyyy@OOOuuuu<<<<oooo",
"ooooOOOOccccyyyyyyyyyyyyyyyyyyyyyyyyyyyyyyyyyyyyy@OOOuuuu<<<<oooo",
"ooooOOOOccccyyyyyyyyyyyyyyyyyyyyyyyyyyyyyyyyyyyyyOOOOuuuu<<<<oooo",
"ooooOOOOccccyyyyyyyyyyyyyyyyyyyyyyyyyyyyyyyyyyyyyOOOOuuuu<<<<oooo",
"ooooOOOOccccyyyyyyyyyyyyyyyyyyyyyyyyyyyyyyyyyyyyyOOOOuuuu<<<<oooo",
"oooo&&&&cccc6666uuuuyyyy@@@@8888yyyyyyyyyyyyy6666ttttjjjj4444OooO",
"oooo&&&&cccc6666uuuuyyyy@@@@8888yyyyyyyyyyyyy6666ttttjjjj4444OoOO",
"oooo&&&&cccc6666uuuuyyyy@@@@8888yyyyyyyyyyyyy6666ttttjjjj4444OOOO",
"oooo&&&&cccc6666uuuuyyyy@@@@8888yyyyyyyyyyyyy6666ttttjjjj4444OOOO",
"----    mmmm>>>>1111yyyy6666ttttyyyyyyyyyyyyy66667777yyyy>>>>1111",
"----    cccc>>>>1111yyyy6666ttttyyyyyyyyyyyyy66667777yyyy>>>>1111",
"----    cccc>>>>1111yyyy6666ttttyyyyyyyyyyyyy66667777yyyy>>>>1111",
"----    mmmc>>>>1111yyyy6666ttttyyyyyyyyyyyyy66667777yyyy>>>>1111",
"&&&&....,,&&llllyyyyyyyyuuuuyyyy666666666yyyyyyyyuuuujjjj    ,,,,",
"&&&&....,,,,llllyyyyyyyyuuuuyyyy666666666yyyyyyyyuuuujjjj    ,,,,",
"&&&&....,,,,llllyyyyyyyyuuuuyyyy666666666yyyyyyyyuuuujjjj    ,,,,",
"&&&&  ..,,,&kllluuuuuyyyiiiiyyyy666666666yyyuuyyyuuuujjjj. . ,,,,",
"oooo  ..    jjjjzzzzaaaayyyy8888tttttttttuuuuuuuummmmjkkkOOOO====",
"oooo        jjjjzzzzaaaarryr8888tttttttttuuuupuuummmmjjjkOOOO====",
"oooo        kjjjzzzzaaaarrrr8888tttttttttuuuupuuummmmjjjjOOOO====",
"oooo....    kkkkzzzzaaaarrrr8888tttttttttuuuuuuuummmmjjjjOOOO====",
"====@@@@  ..@@@@ppppzzzzaaaaaaaalllllzzzzaaaajjjjzzzz    &&&&oooo",
"====@@@@  ..@@@@ppppzzzzaaaaaaaalllllzzzzaaaajjjjzzzz    &&&&oooo",
"====@@@@....@@@@ppppzzzzaaaaaaaalllllzzzzaaaajjjjzzzz    &&&&oooo",
"====@@@@....@@@@ppppzzzzsaaasssslllllzzzzaaaajjjjzzzz    &&&&oooo",
"vvvvOOOOoooooooooooo####2222OOOOrrrrrssss>>>>oooo    ====&&&&vvvv",
"vvvvOOOOoooooooooooo####2222OOOOrrrrrssss>>>>oooo    ====&&&&vvvv",
"vvvvOOOOoooooooooooo####2222OOOOrrrrrssss>>>>oooo    ==-=&&&&vvvv",
"vvvvOOOOoooooooooooo####2222OOOOrrrrrssss>>>>oooo   .-=-=&&&&vvvv",
"nnnnbbbbqqqq&&&&ooooooooooooOOOOooooooooo....oooooooo----ggggnnnn",
"nnnnbbbbqqqq&&&&ooooooooooooOOOOooooooooo....oooooooo----ggggnnnn",
"nnnnbbbbqqqq&&&&ooooooooooooOOOOooooooooo....oooooooo----ggggnnnn",
"nnnnbbbbqqqq&&&&ooooooooooooOOOOooooooooo....oooooooo----ggggnnnn"
};
