/* XPM */
static char *_6652c41f2154f3da912af2e6767c4c97tpUKu5XyUR6puPF[] = {
/* columns rows colors chars-per-pixel */
"256 64 10 1 ",
"  c None",
". c #141B1B",
"X c #D14B34",
"o c #56864C",
"O c #A8A129",
"+ c #D78B4A",
"@ c #EF914F",
"# c #F1C471",
"$ c #9BA7AA",
"% c #E3F1F5",
/* pixels */
"            ................................                                        ............................                                            ............                                                ............                            ",
"            ................................                                        ............................                                            ............                                                ............                            ",
"            ................................                                        ............................                                            ............                                                ............                            ",
"            ................................                                        ............................                                            ............                                                ............                            ",
"    ........OOOOOOOOOOOOOOOOOOOOOOOOoooooooo....                            ........ooooooooOOOOOOOOOOOOOOOOOOOO........                            ........OOOOOOOOOOOO........                                ........OOOOOOOOOOOO........                    ",
"    ........OOOOOOOOOOOOOOOOOOOOOOOOoooooooo....                            ........ooooooooOOOOOOOOOOOOOOOOOOOO........                            ........OOOOOOOOOOOO........                                ........OOOOOOOOOOOO........                    ",
"    ........OOOOOOOOOOOOOOOOOOOOOOOOoooooooo....                            ........ooooooooOOOOOOOOOOOOOOOOOOOO........                            ........OOOOOOOOOOOO........                                ........OOOOOOOOOOOO........                    ",
"    ........OOOOOOOOOOOOOOOOOOOOOOOOoooooooo....                            ........ooooooooOOOOOOOOOOOOOOOOOOOO........                            ........OOOOOOOOOOOO........                                ........OOOOOOOOOOOO........                    ",
"....OOOOOOOOOOOOOOOOOOOOOOOOOOOOOOOOOOOOoooooooo....                    ....ooooooooooooOOOOOOOOOOOOOOOOOOOOOOOOOOOOOOOO....                    ....OOOOOOOOOOOOOOOOOOOOoooooooo....                        ....ooooooooOOOOOOOOOOOOOOOOOOOO....                ",
"....OOOOOOOOOOOOOOOOOOOOOOOOOOOOOOOOOOOOoooooooo....                    ....ooooooooooooOOOOOOOOOOOOOOOOOOOOOOOOOOOOOOOO....                    ....OOOOOOOOOOOOOOOOOOOOoooooooo....                        ....ooooooooOOOOOOOOOOOOOOOOOOOO....                ",
"....OOOOOOOOOOOOOOOOOOOOOOOOOOOOOOOOOOOOoooooooo....                    ....ooooooooooooOOOOOOOOOOOOOOOOOOOOOOOOOOOOOOOO....                    ....OOOOOOOOOOOOOOOOOOOOoooooooo....                        ....ooooooooOOOOOOOOOOOOOOOOOOOO....                ",
"....OOOOOOOOOOOOOOOOOOOOOOOOOOOOOOOOOOOOoooooooo....                    ....ooooooooooooOOOOOOOOOOOOOOOOOOOOOOOOOOOOOOOO....                    ....OOOOOOOOOOOOOOOOOOOOoooooooo....                        ....ooooooooOOOOOOOOOOOOOOOOOOOO....                ",
"    ....OOOOOOOOOOOOOOOOOOOOOOOOOOOOOOOOoooooooo....                    ....ooooooooooooOOOOOOOOOOOOOOOOOOOOOOOOOOOOOOOOOOOO....            ....OOOOOOOOOOOOOOOOOOOOOOOOOOOOoooooooo....                ....oooooooo....OOOOOOOOOOOOOOOOOOOOOOOO....            ",
"    ....OOOOOOOOOOOOOOOOOOOOOOOOOOOOOOOOoooooooo....                    ....ooooooooooooOOOOOOOOOOOOOOOOOOOOOOOOOOOOOOOOOOOO....            ....OOOOOOOOOOOOOOOOOOOOOOOOOOOOoooooooo....                ....oooooooo....OOOOOOOOOOOOOOOOOOOOOOOO....            ",
"    ....OOOOOOOOOOOOOOOOOOOOOOOOOOOOOOOOoooooooo....                    ....ooooooooooooOOOOOOOOOOOOOOOOOOOOOOOOOOOOOOOOOOOO....            ....OOOOOOOOOOOOOOOOOOOOOOOOOOOOoooooooo....                ....oooooooo....OOOOOOOOOOOOOOOOOOOOOOOO....            ",
"    ....OOOOOOOOOOOOOOOOOOOOOOOOOOOOOOOOoooooooo....                    ....ooooooooooooOOOOOOOOOOOOOOOOOOOOOOOOOOOOOOOOOOOO....            ....OOOOOOOOOOOOOOOOOOOOOOOOOOOOoooooooo....                ....oooooooo....OOOOOOOOOOOOOOOOOOOOOOOO....            ",
"        ....ooooOOOOOOOOOOOOOOOOOOOOOOOOoooooooooooo....            ....ooooooooooooooooOOOOOOOOOOOOOOOOOOOOoooo............                ....OOOOOOOOOOOOOOOOOOOOOOOOOOOOoooooooo....                ....oooooooo....OOOOOOOOOOOOOOOOOOOOOOOO....            ",
"        ....ooooOOOOOOOOOOOOOOOOOOOOOOOOoooooooooooo....            ....ooooooooooooooooOOOOOOOOOOOOOOOOOOOOoooo............                ....OOOOOOOOOOOOOOOOOOOOOOOOOOOOoooooooo....                ....oooooooo....OOOOOOOOOOOOOOOOOOOOOOOO....            ",
"        ....ooooOOOOOOOOOOOOOOOOOOOOOOOOoooooooooooo....            ....ooooooooooooooooOOOOOOOOOOOOOOOOOOOOoooo............                ....OOOOOOOOOOOOOOOOOOOOOOOOOOOOoooooooo....                ....oooooooo....OOOOOOOOOOOOOOOOOOOOOOOO....            ",
"        ....ooooOOOOOOOOOOOOOOOOOOOOOOOOoooooooooooo....            ....ooooooooooooooooOOOOOOOOOOOOOOOOOOOOoooo............                ....OOOOOOOOOOOOOOOOOOOOOOOOOOOOoooooooo....                ....oooooooo....OOOOOOOOOOOOOOOOOOOOOOOO....            ",
"        ....OOOOOOOOOOOOOOOOOOOOOOOOoooooooooooooooo....            ....ooooooooooooooooOOOOOOOOOOOOOOOOOOOOOOOOOOOO....                ....OOOOooooOOOOOOOOOOOOOOOOOOOOoooooooooooooooo....        ....oooooooooooooooo....OOOOOOOO....ooooOOOOOOOO....        ",
"        ....OOOOOOOOOOOOOOOOOOOOOOOOoooooooooooooooo....            ....ooooooooooooooooOOOOOOOOOOOOOOOOOOOOOOOOOOOO....                ....OOOOooooOOOOOOOOOOOOOOOOOOOOoooooooooooooooo....        ....oooooooooooooooo....OOOOOOOO....ooooOOOOOOOO....        ",
"        ....OOOOOOOOOOOOOOOOOOOOOOOOoooooooooooooooo....            ....ooooooooooooooooOOOOOOOOOOOOOOOOOOOOOOOOOOOO....                ....OOOOooooOOOOOOOOOOOOOOOOOOOOoooooooooooooooo....        ....oooooooooooooooo....OOOOOOOO....ooooOOOOOOOO....        ",
"        ....OOOOOOOOOOOOOOOOOOOOOOOOoooooooooooooooo....            ....ooooooooooooooooOOOOOOOOOOOOOOOOOOOOOOOOOOOO....                ....OOOOooooOOOOOOOOOOOOOOOOOOOOoooooooooooooooo....        ....oooooooooooooooo....OOOOOOOO....ooooOOOOOOOO....        ",
"    ....OOOOOOOOOOOOOOOOOOOOooooooooooooooooooooOOOO....            ....ooooooooooooooooooooOOOOOOOOOOOOOOOOOOOOOOOO....                ....OOOOOOOOooooooooooooooooooooooooooooOOOO........        ........oooooooooooooooo........ooooOOOOOOOOOOOO....        ",
"    ....OOOOOOOOOOOOOOOOOOOOooooooooooooooooooooOOOO....            ....ooooooooooooooooooooOOOOOOOOOOOOOOOOOOOOOOOO....                ....OOOOOOOOooooooooooooooooooooooooooooOOOO........        ........oooooooooooooooo........ooooOOOOOOOOOOOO....        ",
"    ....OOOOOOOOOOOOOOOOOOOOooooooooooooooooooooOOOO....            ....ooooooooooooooooooooOOOOOOOOOOOOOOOOOOOOOOOO....                ....OOOOOOOOooooooooooooooooooooooooooooOOOO........        ........oooooooooooooooo........ooooOOOOOOOOOOOO....        ",
"    ....OOOOOOOOOOOOOOOOOOOOooooooooooooooooooooOOOO....            ....ooooooooooooooooooooOOOOOOOOOOOOOOOOOOOOOOOO....                ....OOOOOOOOooooooooooooooooooooooooooooOOOO........        ........oooooooooooooooo........ooooOOOOOOOOOOOO....        ",
"    ........####OOOOOOOOOOOOOOOOOOOOOOOOOOOOOOOO++++....                ....OOOOooooooooooooooooooooooooOOOOOOOO........                ....####OOOOOOOOOOOOOOOOOOOOOOOOOOOOOOOO++++++++....        ....++++++++ooooooooooooooooooooOOOOOOOOOOOO####....        ",
"    ........####OOOOOOOOOOOOOOOOOOOOOOOOOOOOOOOO++++....                ....OOOOooooooooooooooooooooooooOOOOOOOO........                ....####OOOOOOOOOOOOOOOOOOOOOOOOOOOOOOOO++++++++....        ....++++++++ooooooooooooooooooooOOOOOOOOOOOO####....        ",
"    ........####OOOOOOOOOOOOOOOOOOOOOOOOOOOOOOOO++++....                ....OOOOooooooooooooooooooooooooOOOOOOOO........                ....####OOOOOOOOOOOOOOOOOOOOOOOOOOOOOOOO++++++++....        ....++++++++ooooooooooooooooooooOOOOOOOOOOOO####....        ",
"    ........####OOOOOOOOOOOOOOOOOOOOOOOOOOOOOOOO++++....                ....OOOOooooooooooooooooooooooooOOOOOOOO........                ....####OOOOOOOOOOOOOOOOOOOOOOOOOOOOOOOO++++++++....        ....++++++++ooooooooooooooooooooOOOOOOOOOOOO####....        ",
"    ....XXXXXXXX############++++####++++####++++XXXXXXXX....        ....XXXX++++OOOOOOOOOOOOOOOOOOOOOOOOOOOO++++++++XXXX....                ....####++++####++++####........++++++++++++....        ....++++++++++++........####++++####++++####....            ",
"    ....XXXXXXXX############++++####++++####++++XXXXXXXX....        ....XXXX++++OOOOOOOOOOOOOOOOOOOOOOOOOOOO++++++++XXXX....                ....####++++####++++####........++++++++++++....        ....++++++++++++........####++++####++++####....            ",
"    ....XXXXXXXX############++++####++++####++++XXXXXXXX....        ....XXXX++++OOOOOOOOOOOOOOOOOOOOOOOOOOOO++++++++XXXX....                ....####++++####++++####........++++++++++++....        ....++++++++++++........####++++####++++####....            ",
"    ....XXXXXXXX############++++####++++####++++XXXXXXXX....        ....XXXX++++OOOOOOOOOOOOOOOOOOOOOOOOOOOO++++++++XXXX....                ....####++++####++++####........++++++++++++....        ....++++++++++++........####++++####++++####....            ",
"    ....XXXX....XXXXXXXXXXXXXXXXXXXXXXXXXXXXXXXX....XXXX....        ....XXXX++++++++++++++++++++++++++++++++++++++++XXXX....            ....@@@@XXXXXXXXXXXXXXXX####....XXXX....++++++++....        ....++++++++....XXXX....####XXXXXXXXXXXXXXXX@@@@....        ",
"    ....XXXX....XXXXXXXXXXXXXXXXXXXXXXXXXXXXXXXX....XXXX....        ....XXXX++++++++++++++++++++++++++++++++++++++++XXXX....            ....@@@@XXXXXXXXXXXXXXXX####....XXXX....++++++++....        ....++++++++....XXXX....####XXXXXXXXXXXXXXXX@@@@....        ",
"    ....XXXX....XXXXXXXXXXXXXXXXXXXXXXXXXXXXXXXX....XXXX....        ....XXXX++++++++++++++++++++++++++++++++++++++++XXXX....            ....@@@@XXXXXXXXXXXXXXXX####....XXXX....++++++++....        ....++++++++....XXXX....####XXXXXXXXXXXXXXXX@@@@....        ",
"    ....XXXX....XXXXXXXXXXXXXXXXXXXXXXXXXXXXXXXX....XXXX....        ....XXXX++++++++++++++++++++++++++++++++++++++++XXXX....            ....@@@@XXXXXXXXXXXXXXXX####....XXXX....++++++++....        ....++++++++....XXXX....####XXXXXXXXXXXXXXXX@@@@....        ",
"        ........@@@@@@@@@@@@@@@@@@@@@@@@@@@@@@@@........                ....++++++++####++++####++++####++++++++++++....                ....@@@@@@@@@@@@XXXXXXXXXXXXXXXXXXXX....++++++++....        ....++++++++....XXXXXXXXXXXXXXXXXXXX@@@@@@@@@@@@....        ",
"        ........@@@@@@@@@@@@@@@@@@@@@@@@@@@@@@@@........                ....++++++++####++++####++++####++++++++++++....                ....@@@@@@@@@@@@XXXXXXXXXXXXXXXXXXXX....++++++++....        ....++++++++....XXXXXXXXXXXXXXXXXXXX@@@@@@@@@@@@....        ",
"        ........@@@@@@@@@@@@@@@@@@@@@@@@@@@@@@@@........                ....++++++++####++++####++++####++++++++++++....                ....@@@@@@@@@@@@XXXXXXXXXXXXXXXXXXXX....++++++++....        ....++++++++....XXXXXXXXXXXXXXXXXXXX@@@@@@@@@@@@....        ",
"        ........@@@@@@@@@@@@@@@@@@@@@@@@@@@@@@@@........                ....++++++++####++++####++++####++++++++++++....                ....@@@@@@@@@@@@XXXXXXXXXXXXXXXXXXXX....++++++++....        ....++++++++....XXXXXXXXXXXXXXXXXXXX@@@@@@@@@@@@....        ",
"            ........@@@@@@@@XXXXXXXX@@@@@@@@........                        ....++++####++++####++++####++++++++....                        ....XXXX@@@@@@@@XXXXXXXXXXXX....++++++++....                ....++++++++....XXXXXXXXXXXX@@@@@@@@XXXX....            ",
"            ........@@@@@@@@XXXXXXXX@@@@@@@@........                        ....++++####++++####++++####++++++++....                        ....XXXX@@@@@@@@XXXXXXXXXXXX....++++++++....                ....++++++++....XXXXXXXXXXXX@@@@@@@@XXXX....            ",
"            ........@@@@@@@@XXXXXXXX@@@@@@@@........                        ....++++####++++####++++####++++++++....                        ....XXXX@@@@@@@@XXXXXXXXXXXX....++++++++....                ....++++++++....XXXXXXXXXXXX@@@@@@@@XXXX....            ",
"            ........@@@@@@@@XXXXXXXX@@@@@@@@........                        ....++++####++++####++++####++++++++....                        ....XXXX@@@@@@@@XXXXXXXXXXXX....++++++++....                ....++++++++....XXXXXXXXXXXX@@@@@@@@XXXX....            ",
"        ....OOOOoooo%%%%$$$$%%%%%%%%$$$$%%%%ooooOOOO....                ........oooo$$$$$$$$$$$$$$$$$$$$$$$$oooo........                    ....%%%%$$$$%%%%$$$$$$$$$$$$%%%%$$$$....                        ....$$$$%%%%$$$$$$$$$$$$%%%%$$$$%%%%....            ",
"        ....OOOOoooo%%%%$$$$%%%%%%%%$$$$%%%%ooooOOOO....                ........oooo$$$$$$$$$$$$$$$$$$$$$$$$oooo........                    ....%%%%$$$$%%%%$$$$$$$$$$$$%%%%$$$$....                        ....$$$$%%%%$$$$$$$$$$$$%%%%$$$$%%%%....            ",
"        ....OOOOoooo%%%%$$$$%%%%%%%%$$$$%%%%ooooOOOO....                ........oooo$$$$$$$$$$$$$$$$$$$$$$$$oooo........                    ....%%%%$$$$%%%%$$$$$$$$$$$$%%%%$$$$....                        ....$$$$%%%%$$$$$$$$$$$$%%%%$$$$%%%%....            ",
"        ....OOOOoooo%%%%$$$$%%%%%%%%$$$$%%%%ooooOOOO....                ........oooo$$$$$$$$$$$$$$$$$$$$$$$$oooo........                    ....%%%%$$$$%%%%$$$$$$$$$$$$%%%%$$$$....                        ....$$$$%%%%$$$$$$$$$$$$%%%%$$$$%%%%....            ",
"    ....XXXXXXXXooooOOOOOOOOOOOOOOOOOOOOOOOOooooXXXXXXXX....        ....XXXXXXXXooooOOOOOOOOOOOOOOOOOOOOOOOOooooXXXXXXXX....                    ....ooooOOOO....OOOOOOOO....OOOO....                        ....OOOO....OOOOOOOO....OOOOoooo....                ",
"    ....XXXXXXXXooooOOOOOOOOOOOOOOOOOOOOOOOOooooXXXXXXXX....        ....XXXXXXXXooooOOOOOOOOOOOOOOOOOOOOOOOOooooXXXXXXXX....                    ....ooooOOOO....OOOOOOOO....OOOO....                        ....OOOO....OOOOOOOO....OOOOoooo....                ",
"    ....XXXXXXXXooooOOOOOOOOOOOOOOOOOOOOOOOOooooXXXXXXXX....        ....XXXXXXXXooooOOOOOOOOOOOOOOOOOOOOOOOOooooXXXXXXXX....                    ....ooooOOOO....OOOOOOOO....OOOO....                        ....OOOO....OOOOOOOO....OOOOoooo....                ",
"    ....XXXXXXXXooooOOOOOOOOOOOOOOOOOOOOOOOOooooXXXXXXXX....        ....XXXXXXXXooooOOOOOOOOOOOOOOOOOOOOOOOOooooXXXXXXXX....                    ....ooooOOOO....OOOOOOOO....OOOO....                        ....OOOO....OOOOOOOO....OOOOoooo....                ",
"    ....@@@@@@@@oooooooo................oooooooo@@@@@@@@....        ....XXXXXXXXoooooooo....oooooooo....ooooooooXXXXXXXX....                    ....oooooooo....@@@@@@@@....oooo....                        ....oooo....@@@@@@@@....oooooooo....                ",
"    ....@@@@@@@@oooooooo................oooooooo@@@@@@@@....        ....XXXXXXXXoooooooo....oooooooo....ooooooooXXXXXXXX....                    ....oooooooo....@@@@@@@@....oooo....                        ....oooo....@@@@@@@@....oooooooo....                ",
"    ....@@@@@@@@oooooooo................oooooooo@@@@@@@@....        ....XXXXXXXXoooooooo....oooooooo....ooooooooXXXXXXXX....                    ....oooooooo....@@@@@@@@....oooo....                        ....oooo....@@@@@@@@....oooooooo....                ",
"    ....@@@@@@@@oooooooo................oooooooo@@@@@@@@....        ....XXXXXXXXoooooooo....oooooooo....ooooooooXXXXXXXX....                    ....oooooooo....@@@@@@@@....oooo....                        ....oooo....@@@@@@@@....oooooooo....                ",
"        ............oooooooo........oooooooo............                ........oooooooooooo........oooooooooooo........                            ....oooooooo........oooo....                                ....oooo........oooooooo....                    ",
"        ............oooooooo........oooooooo............                ........oooooooooooo........oooooooooooo........                            ....oooooooo........oooo....                                ....oooo........oooooooo....                    ",
"        ............oooooooo........oooooooo............                ........oooooooooooo........oooooooooooo........                            ....oooooooo........oooo....                                ....oooo........oooooooo....                    ",
"        ............oooooooo........oooooooo............                ........oooooooooooo........oooooooooooo........                            ....oooooooo........oooo....                                ....oooo........oooooooo....                    "
};
