/* XPM */
static char *_c53c91eddd84e958544266a7a78bd26vhN8CJlfyvS7gndO[] = {
/* columns rows colors chars-per-pixel */
"256 64 8 1 ",
"  c None",
". c #141B1B",
"X c #D14B34",
"o c #8F3E56",
"O c #56864C",
"+ c #A8A129",
"@ c #D78B4A",
"# c #F1C471",
/* pixels */
"                                                                                                                                                        ........                                                                ........                        ",
"                                                                                                                                                        ........                                                                ........                        ",
"                                                                                                                                                        ........                                                                ........                        ",
"                                                                                                                                                        ........                                                                ........                        ",
"                    ........        ........                                        ........        ........                                    ........XXXX....    ............                                ............    ....XXXX........                ",
"                    ........        ........                                        ........        ........                                    ........XXXX....    ............                                ............    ....XXXX........                ",
"                    ........        ........                                        ........        ........                                    ........XXXX....    ............                                ............    ....XXXX........                ",
"                    ........        ........                                        ........        ........                                    ........XXXX....    ............                                ............    ....XXXX........                ",
"        ............XXXXXXXX........XXXXXXXX............                ............XXXXXXXX........XXXXXXXX............                    ....ooooXXXXXXXX........XXXXXXXX............                ............XXXXXXXX........XXXXXXXXoooo....            ",
"        ............XXXXXXXX........XXXXXXXX............                ............XXXXXXXX........XXXXXXXX............                    ....ooooXXXXXXXX........XXXXXXXX............                ............XXXXXXXX........XXXXXXXXoooo....            ",
"        ............XXXXXXXX........XXXXXXXX............                ............XXXXXXXX........XXXXXXXX............                    ....ooooXXXXXXXX........XXXXXXXX............                ............XXXXXXXX........XXXXXXXXoooo....            ",
"        ............XXXXXXXX........XXXXXXXX............                ............XXXXXXXX........XXXXXXXX............                    ....ooooXXXXXXXX........XXXXXXXX............                ............XXXXXXXX........XXXXXXXXoooo....            ",
"    ....XXXXXXXX....ooooXXXXXXXXXXXXXXXXoooo....XXXXXXXX....        ....XXXXXXXX....ooooXXXXXXXXXXXXXXXXoooo....XXXXXXXX....            ....ooooooooooooXXXXXXXXXXXXXXXXooooXXXXXXXXXXXX....        ....XXXXXXXXXXXXooooXXXXXXXXXXXXXXXXoooooooooooo....        ",
"    ....XXXXXXXX....ooooXXXXXXXXXXXXXXXXoooo....XXXXXXXX....        ....XXXXXXXX....ooooXXXXXXXXXXXXXXXXoooo....XXXXXXXX....            ....ooooooooooooXXXXXXXXXXXXXXXXooooXXXXXXXXXXXX....        ....XXXXXXXXXXXXooooXXXXXXXXXXXXXXXXoooooooooooo....        ",
"    ....XXXXXXXX....ooooXXXXXXXXXXXXXXXXoooo....XXXXXXXX....        ....XXXXXXXX....ooooXXXXXXXXXXXXXXXXoooo....XXXXXXXX....            ....ooooooooooooXXXXXXXXXXXXXXXXooooXXXXXXXXXXXX....        ....XXXXXXXXXXXXooooXXXXXXXXXXXXXXXXoooooooooooo....        ",
"    ....XXXXXXXX....ooooXXXXXXXXXXXXXXXXoooo....XXXXXXXX....        ....XXXXXXXX....ooooXXXXXXXXXXXXXXXXoooo....XXXXXXXX....            ....ooooooooooooXXXXXXXXXXXXXXXXooooXXXXXXXXXXXX....        ....XXXXXXXXXXXXooooXXXXXXXXXXXXXXXXoooooooooooo....        ",
"        ....ooooXXXXXXXXooooXXXXXXXXooooXXXXXXXXoooo....                ....ooooXXXXXXXXooooXXXXXXXXooooXXXXXXXXoooo....                ....ooooXXXXXXXXooooXXXXXXXXooooXXXXXXXXoooo....                ....ooooXXXXXXXXooooXXXXXXXXooooXXXXXXXXoooo....        ",
"        ....ooooXXXXXXXXooooXXXXXXXXooooXXXXXXXXoooo....                ....ooooXXXXXXXXooooXXXXXXXXooooXXXXXXXXoooo....                ....ooooXXXXXXXXooooXXXXXXXXooooXXXXXXXXoooo....                ....ooooXXXXXXXXooooXXXXXXXXooooXXXXXXXXoooo....        ",
"        ....ooooXXXXXXXXooooXXXXXXXXooooXXXXXXXXoooo....                ....ooooXXXXXXXXooooXXXXXXXXooooXXXXXXXXoooo....                ....ooooXXXXXXXXooooXXXXXXXXooooXXXXXXXXoooo....                ....ooooXXXXXXXXooooXXXXXXXXooooXXXXXXXXoooo....        ",
"        ....ooooXXXXXXXXooooXXXXXXXXooooXXXXXXXXoooo....                ....ooooXXXXXXXXooooXXXXXXXXooooXXXXXXXXoooo....                ....ooooXXXXXXXXooooXXXXXXXXooooXXXXXXXXoooo....                ....ooooXXXXXXXXooooXXXXXXXXooooXXXXXXXXoooo....        ",
"    ....ooooooooooooXXXXooooXXXXXXXXooooXXXXoooooooooooo....        ....ooooooooooooXXXXooooXXXXXXXXooooXXXXoooooooooooo....            ....ooooooooXXXXooooXXXXXXXXooooXXXXoooooooooooo....        ....ooooooooooooXXXXooooXXXXXXXXooooXXXXoooooooo....        ",
"    ....ooooooooooooXXXXooooXXXXXXXXooooXXXXoooooooooooo....        ....ooooooooooooXXXXooooXXXXXXXXooooXXXXoooooooooooo....            ....ooooooooXXXXooooXXXXXXXXooooXXXXoooooooooooo....        ....ooooooooooooXXXXooooXXXXXXXXooooXXXXoooooooo....        ",
"    ....ooooooooooooXXXXooooXXXXXXXXooooXXXXoooooooooooo....        ....ooooooooooooXXXXooooXXXXXXXXooooXXXXoooooooooooo....            ....ooooooooXXXXooooXXXXXXXXooooXXXXoooooooooooo....        ....ooooooooooooXXXXooooXXXXXXXXooooXXXXoooooooo....        ",
"    ....ooooooooooooXXXXooooXXXXXXXXooooXXXXoooooooooooo....        ....ooooooooooooXXXXooooXXXXXXXXooooXXXXoooooooooooo....            ....ooooooooXXXXooooXXXXXXXXooooXXXXoooooooooooo....        ....ooooooooooooXXXXooooXXXXXXXXooooXXXXoooooooo....        ",
"    ....XXXXooooooooooooooooooooooooooooooooooooooooXXXX....        ....XXXXooooooooooooooooooooooooooooooooooooooooXXXX....            ....oooo@@@@@@@@@@@@ooooooooooooooooooooooooXXXX....        ....XXXXoooooooooooooooooooooooo@@@@@@@@@@@@oooo....        ",
"    ....XXXXooooooooooooooooooooooooooooooooooooooooXXXX....        ....XXXXooooooooooooooooooooooooooooooooooooooooXXXX....            ....oooo@@@@@@@@@@@@ooooooooooooooooooooooooXXXX....        ....XXXXoooooooooooooooooooooooo@@@@@@@@@@@@oooo....        ",
"    ....XXXXooooooooooooooooooooooooooooooooooooooooXXXX....        ....XXXXooooooooooooooooooooooooooooooooooooooooXXXX....            ....oooo@@@@@@@@@@@@ooooooooooooooooooooooooXXXX....        ....XXXXoooooooooooooooooooooooo@@@@@@@@@@@@oooo....        ",
"    ....XXXXooooooooooooooooooooooooooooooooooooooooXXXX....        ....XXXXooooooooooooooooooooooooooooooooooooooooXXXX....            ....oooo@@@@@@@@@@@@ooooooooooooooooooooooooXXXX....        ....XXXXoooooooooooooooooooooooo@@@@@@@@@@@@oooo....        ",
"....ooooooooXXXXoooo@@@@@@@@oooooooo@@@@@@@@ooooXXXXoooooooo........ooooooooXXXXooooooooooooooooooooooooooooooooXXXXoooooooo....    ....@@@@@@@@@@@@@@@@@@@@@@@@ooooooooooooooooXXXXoooooooo........ooooooooXXXXoooooooooooooooo@@@@@@@@@@@@@@@@@@@@@@@@....    ",
"....ooooooooXXXXoooo@@@@@@@@oooooooo@@@@@@@@ooooXXXXoooooooo........ooooooooXXXXooooooooooooooooooooooooooooooooXXXXoooooooo....    ....@@@@@@@@@@@@@@@@@@@@@@@@ooooooooooooooooXXXXoooooooo........ooooooooXXXXoooooooooooooooo@@@@@@@@@@@@@@@@@@@@@@@@....    ",
"....ooooooooXXXXoooo@@@@@@@@oooooooo@@@@@@@@ooooXXXXoooooooo........ooooooooXXXXooooooooooooooooooooooooooooooooXXXXoooooooo....    ....@@@@@@@@@@@@@@@@@@@@@@@@ooooooooooooooooXXXXoooooooo........ooooooooXXXXoooooooooooooooo@@@@@@@@@@@@@@@@@@@@@@@@....    ",
"....ooooooooXXXXoooo@@@@@@@@oooooooo@@@@@@@@ooooXXXXoooooooo........ooooooooXXXXooooooooooooooooooooooooooooooooXXXXoooooooo....    ....@@@@@@@@@@@@@@@@@@@@@@@@ooooooooooooooooXXXXoooooooo........ooooooooXXXXoooooooooooooooo@@@@@@@@@@@@@@@@@@@@@@@@....    ",
"....oooooooooooo@@@@........@@@@@@@@........@@@@oooooooooooo........oooooooooooooooooooooooooooooooooooooooooooooooooooooooo....    ....@@@@@@@@........########oooo@@@@@@@@oooooooooooooooo........oooooooooooooooo@@@@@@@@oooo########........@@@@@@@@....    ",
"....oooooooooooo@@@@........@@@@@@@@........@@@@oooooooooooo........oooooooooooooooooooooooooooooooooooooooooooooooooooooooo....    ....@@@@@@@@........########oooo@@@@@@@@oooooooooooooooo........oooooooooooooooo@@@@@@@@oooo########........@@@@@@@@....    ",
"....oooooooooooo@@@@........@@@@@@@@........@@@@oooooooooooo........oooooooooooooooooooooooooooooooooooooooooooooooooooooooo....    ....@@@@@@@@........########oooo@@@@@@@@oooooooooooooooo........oooooooooooooooo@@@@@@@@oooo########........@@@@@@@@....    ",
"....oooooooooooo@@@@........@@@@@@@@........@@@@oooooooooooo........oooooooooooooooooooooooooooooooooooooooooooooooooooooooo....    ....@@@@@@@@........########oooo@@@@@@@@oooooooooooooooo........oooooooooooooooo@@@@@@@@oooo########........@@@@@@@@....    ",
"....oooooooooooo@@@@########@@@@@@@@########@@@@oooooooooooo........oooooooooooooooooooooooooooooooooooooooooooooooooooooooo....    ....@@@@####################@@@@@@@@@@@@oooooooooooooooo........oooooooooooooooo@@@@@@@@@@@@####################@@@@....    ",
"....oooooooooooo@@@@########@@@@@@@@########@@@@oooooooooooo........oooooooooooooooooooooooooooooooooooooooooooooooooooooooo....    ....@@@@####################@@@@@@@@@@@@oooooooooooooooo........oooooooooooooooo@@@@@@@@@@@@####################@@@@....    ",
"....oooooooooooo@@@@########@@@@@@@@########@@@@oooooooooooo........oooooooooooooooooooooooooooooooooooooooooooooooooooooooo....    ....@@@@####################@@@@@@@@@@@@oooooooooooooooo........oooooooooooooooo@@@@@@@@@@@@####################@@@@....    ",
"....oooooooooooo@@@@########@@@@@@@@########@@@@oooooooooooo........oooooooooooooooooooooooooooooooooooooooooooooooooooooooo....    ....@@@@####################@@@@@@@@@@@@oooooooooooooooo........oooooooooooooooo@@@@@@@@@@@@####################@@@@....    ",
"    ....oooo@@@@oooo########################oooo@@@@oooo....        ....oooooooooooooooooooooooooooooooooooooooooooooooo....        ........@@@@@@@@########@@@@@@@@@@@@@@@@oooooooooooo....        ....oooooooooooo@@@@@@@@@@@@@@@@########@@@@@@@@........    ",
"    ....oooo@@@@oooo########################oooo@@@@oooo....        ....oooooooooooooooooooooooooooooooooooooooooooooooo....        ........@@@@@@@@########@@@@@@@@@@@@@@@@oooooooooooo....        ....oooooooooooo@@@@@@@@@@@@@@@@########@@@@@@@@........    ",
"    ....oooo@@@@oooo########################oooo@@@@oooo....        ....oooooooooooooooooooooooooooooooooooooooooooooooo....        ........@@@@@@@@########@@@@@@@@@@@@@@@@oooooooooooo....        ....oooooooooooo@@@@@@@@@@@@@@@@########@@@@@@@@........    ",
"    ....oooo@@@@oooo########################oooo@@@@oooo....        ....oooooooooooooooooooooooooooooooooooooooooooooooo....        ........@@@@@@@@########@@@@@@@@@@@@@@@@oooooooooooo....        ....oooooooooooo@@@@@@@@@@@@@@@@########@@@@@@@@........    ",
"        ....@@@@########@@@@@@@@@@@@@@@@########@@@@....                ....@@@@oooooooooooooooooooooooooooooooo@@@@....                ....############@@@@@@@@@@@@@@@@@@@@@@@@oooo....                ....oooo@@@@@@@@@@@@@@@@@@@@@@@@############....        ",
"        ....@@@@########@@@@@@@@@@@@@@@@########@@@@....                ....@@@@oooooooooooooooooooooooooooooooo@@@@....                ....############@@@@@@@@@@@@@@@@@@@@@@@@oooo....                ....oooo@@@@@@@@@@@@@@@@@@@@@@@@############....        ",
"        ....@@@@########@@@@@@@@@@@@@@@@########@@@@....                ....@@@@oooooooooooooooooooooooooooooooo@@@@....                ....############@@@@@@@@@@@@@@@@@@@@@@@@oooo....                ....oooo@@@@@@@@@@@@@@@@@@@@@@@@############....        ",
"        ....@@@@########@@@@@@@@@@@@@@@@########@@@@....                ....@@@@oooooooooooooooooooooooooooooooo@@@@....                ....############@@@@@@@@@@@@@@@@@@@@@@@@oooo....                ....oooo@@@@@@@@@@@@@@@@@@@@@@@@############....        ",
"    ........@@@@@@@@########################@@@@@@@@........        ........@@@@@@@@oooooooooooooooooooooooo@@@@@@@@........            ....@@@@@@@@@@@@@@@@@@@@@@@@@@@@@@@@@@@@....                        ....@@@@@@@@@@@@@@@@@@@@@@@@@@@@@@@@@@@@....        ",
"    ........@@@@@@@@########################@@@@@@@@........        ........@@@@@@@@oooooooooooooooooooooooo@@@@@@@@........            ....@@@@@@@@@@@@@@@@@@@@@@@@@@@@@@@@@@@@....                        ....@@@@@@@@@@@@@@@@@@@@@@@@@@@@@@@@@@@@....        ",
"    ........@@@@@@@@########################@@@@@@@@........        ........@@@@@@@@oooooooooooooooooooooooo@@@@@@@@........            ....@@@@@@@@@@@@@@@@@@@@@@@@@@@@@@@@@@@@....                        ....@@@@@@@@@@@@@@@@@@@@@@@@@@@@@@@@@@@@....        ",
"    ........@@@@@@@@########################@@@@@@@@........        ........@@@@@@@@oooooooooooooooooooooooo@@@@@@@@........            ....@@@@@@@@@@@@@@@@@@@@@@@@@@@@@@@@@@@@....                        ....@@@@@@@@@@@@@@@@@@@@@@@@@@@@@@@@@@@@....        ",
"....@@@@@@@@++++@@@@@@@@@@@@@@@@@@@@@@@@@@@@@@@@++++@@@@@@@@........@@@@@@@@++++@@@@@@@@@@@@@@@@@@@@@@@@@@@@@@@@++++@@@@@@@@....            ....OOOOOOOOOOOOOOOOOOOOOOOOOOOOOOOO....                        ....OOOOOOOOOOOOOOOOOOOOOOOOOOOOOOOO....            ",
"....@@@@@@@@++++@@@@@@@@@@@@@@@@@@@@@@@@@@@@@@@@++++@@@@@@@@........@@@@@@@@++++@@@@@@@@@@@@@@@@@@@@@@@@@@@@@@@@++++@@@@@@@@....            ....OOOOOOOOOOOOOOOOOOOOOOOOOOOOOOOO....                        ....OOOOOOOOOOOOOOOOOOOOOOOOOOOOOOOO....            ",
"....@@@@@@@@++++@@@@@@@@@@@@@@@@@@@@@@@@@@@@@@@@++++@@@@@@@@........@@@@@@@@++++@@@@@@@@@@@@@@@@@@@@@@@@@@@@@@@@++++@@@@@@@@....            ....OOOOOOOOOOOOOOOOOOOOOOOOOOOOOOOO....                        ....OOOOOOOOOOOOOOOOOOOOOOOOOOOOOOOO....            ",
"....@@@@@@@@++++@@@@@@@@@@@@@@@@@@@@@@@@@@@@@@@@++++@@@@@@@@........@@@@@@@@++++@@@@@@@@@@@@@@@@@@@@@@@@@@@@@@@@++++@@@@@@@@....            ....OOOOOOOOOOOOOOOOOOOOOOOOOOOOOOOO....                        ....OOOOOOOOOOOOOOOOOOOOOOOOOOOOOOOO....            ",
"....########OOOOOOOOOOOOOOOOOOOOOOOOOOOOOOOOOOOOOOOO########........########OOOOOOOOOOOOOOOOOOOOOOOOOOOOOOOOOOOOOOOO########....        ....OOOOOOOOOOOOOOOO....@@@@@@@@....OOOOOOOO....                ....OOOOOOOO....@@@@@@@@....OOOOOOOOOOOOOOOO....        ",
"....########OOOOOOOOOOOOOOOOOOOOOOOOOOOOOOOOOOOOOOOO########........########OOOOOOOOOOOOOOOOOOOOOOOOOOOOOOOOOOOOOOOO########....        ....OOOOOOOOOOOOOOOO....@@@@@@@@....OOOOOOOO....                ....OOOOOOOO....@@@@@@@@....OOOOOOOOOOOOOOOO....        ",
"....########OOOOOOOOOOOOOOOOOOOOOOOOOOOOOOOOOOOOOOOO########........########OOOOOOOOOOOOOOOOOOOOOOOOOOOOOOOOOOOOOOOO########....        ....OOOOOOOOOOOOOOOO....@@@@@@@@....OOOOOOOO....                ....OOOOOOOO....@@@@@@@@....OOOOOOOOOOOOOOOO....        ",
"....########OOOOOOOOOOOOOOOOOOOOOOOOOOOOOOOOOOOOOOOO########........########OOOOOOOOOOOOOOOOOOOOOOOOOOOOOOOOOOOOOOOO########....        ....OOOOOOOOOOOOOOOO....@@@@@@@@....OOOOOOOO....                ....OOOOOOOO....@@@@@@@@....OOOOOOOOOOOOOOOO....        ",
"    ............++++++++++++........++++++++++++............        ............++++++++++++........++++++++++++............            ....OOOO++++++++++++....########....++++OOOO....                ....OOOO++++....########....++++++++++++OOOO....        ",
"    ............++++++++++++........++++++++++++............        ............++++++++++++........++++++++++++............            ....OOOO++++++++++++....########....++++OOOO....                ....OOOO++++....########....++++++++++++OOOO....        ",
"    ............++++++++++++........++++++++++++............        ............++++++++++++........++++++++++++............            ....OOOO++++++++++++....########....++++OOOO....                ....OOOO++++....########....++++++++++++OOOO....        ",
"    ............++++++++++++........++++++++++++............        ............++++++++++++........++++++++++++............            ....OOOO++++++++++++....########....++++OOOO....                ....OOOO++++....########....++++++++++++OOOO....        "
};
