/* XPM */
static char * UniChicken_xpm[] = {
"64 64 13 1",
" 	c None",
".	c #3A181C",
"+	c #CA5358",
"@	c #DC6C66",
"#	c #542D27",
"$	c #F1D7C2",
"%	c #FDF7E3",
"&	c #251011",
"*	c #926353",
"=	c #FA9E57",
"-	c #E5C8BA",
";	c #251515",
">	c #E37D55",
"                                                                ",
"                                                                ",
"                         ....    ....                           ",
"                         ....    ....                           ",
"                         ....    ....                           ",
"                         ....    ....                           ",
"                         ....    ....                           ",
"                     ....++++....@@@@....                       ",
"                     ....++++....@@@@....                       ",
"                     ....++++....@@@@....                       ",
"                     ....++++....@@@@....                       ",
"                     ....++++....@@@@....                       ",
"                     ########++++++++....                       ",
"                     ########++++++++....                       ",
"                     ########++++++++....                       ",
"                     ########++++++++....                       ",
"                     ########++++++++....                       ",
"                 ####$$$$$$$$%%%%++++....####                   ",
"                 ####$$$$$$$$%%%%++++....####                   ",
"                 ####$$$$$$$$%%%%++++....####                   ",
"                 ####$$$$$$$$%%%%++++....####                   ",
"                 ####$$$$$$$$%%%%++++....####                   ",
"                 ####$$$$%%%%%%%%%%%%%%%%%%%%####               ",
"                 ####$$$$%%%%%%%%%%%%%%%%%%%%####               ",
"                 ####$$$$%%%%%%%%%%%%%%%%%%%%####               ",
"                 ####$$$$%%%%%%%%%%%%%%%%%%%%####               ",
"                 ####$$$$%%%%%%%%%%%%%%%%%%%%####               ",
"             ####%%%%%%%%%%%%%%%%&&&&%%%%%%%%&&&&####           ",
"             ####%%%%%%%%%%%%%%%%&&&&%%%%%%%%&&&&####           ",
"             ####%%%%%%%%%%%%%%%%&&&&%%%%%%%%&&&&####           ",
"             ####%%%%%%%%%%%%%%%%&&&&%%%%%%%%&&&&####           ",
"             ####%%%%%%%%%%%%%%%%&&&&%%%%%%%%&&&&####           ",
"         ####$$$$%%%%****%%%%%%%%%%%%%%%%====%%%%----####       ",
"         ####$$$$%%%%****%%%%%%%%%%%%%%%%====%%%%----####       ",
"         ####$$$$%%%%****%%%%%%%%%%%%%%%%====%%%%----####       ",
"         ####$$$$%%%%****%%%%%%%%%%%%%%%%====%%%%----####       ",
"         ####$$$$$$$$****%%%%%%%%%%%%%%%%++++%%%%----####       ",
"         ####$$$$$$$$****%%%%%%%%%%%%%%%%++++%%%%----####       ",
"         ####$$$$$$$$****%%%%%%%%%%%%%%%%++++%%%%----####       ",
"         ####$$$$$$$$****%%%%%%%%%%%%%%%%++++%%%%----####       ",
"         ####$$$$$$$$****%%%%%%%%%%%%%%%%++++%%%%----####       ",
"             ########$$$$%%%%%%%%%%%%%%%%%%%%%%%%####           ",
"             ########$$$$%%%%%%%%%%%%%%%%%%%%%%%%####           ",
"             ########$$$$%%%%%%%%%%%%%%%%%%%%%%%%####           ",
"             ########$$$$%%%%%%%%%%%%%%%%%%%%%%%%####           ",
"             ########$$$$%%%%%%%%%%%%%%%%%%%%%%%%####           ",
"             ;;;;$$$$$$$$$$$$%%%%%%%%%%%%$$$$$$$$####           ",
"             ;;;;$$$$$$$$$$$$%%%%%%%%%%%%$$$$$$$$####           ",
"             ;;;;$$$$$$$$$$$$%%%%%%%%%%%%$$$$$$$$####           ",
"             ;;;;$$$$$$$$$$$$%%%%%%%%%%%%$$$$$$$$####           ",
"             ;;;;$$$$$$$$$$$$%%%%%%%%%%%%$$$$$$$$####           ",
"             ;;;;====;;;;;;;;$$$$$$$$$$$$########               ",
"             ;;;;====;;;;;;;;$$$$$$$$$$$$########               ",
"             ;;;;====;;;;;;;;$$$$$$$$$$$$########               ",
"             ;;;;====;;;;;;;;$$$$$$$$$$$$########               ",
"             ;;;;====;;;;;;;;$$$$$$$$$$$$########               ",
"                             ;;;;;;;;;;;;>>>>;;;;               ",
"                             ;;;;;;;;;;;;>>>>;;;;               ",
"                             ;;;;;;;;;;;;>>>>;;;;               ",
"                             ;;;;;;;;;;;;>>>>;;;;               ",
"                             ;;;;;;;;;;;;>>>>;;;;               ",
"                                                                ",
"                                                                ",
"                                                                "};
