/* XPM */
static char * UniFox_xpm[] = {
"64 64 6 1",
" 	c None",
".	c #FFE0B2",
"+	c #FFB300",
"@	c #F57C00",
"#	c #FFF3E0",
"$	c #616161",
"                                                                ",
"                                                                ",
"                                                                ",
"                                                                ",
"                                                       ....     ",
"                                                       ....     ",
"                                                       ....     ",
"                             ........               ...++++.... ",
"                             ........               ...++++.... ",
"                             ........               ...++++.... ",
"                             ........               ...++++.... ",
"                             ........               ...++++.... ",
"                         ....++++++++.......    ....+++@@@@@@@@ ",
"                         ....++++++++.......    ....+++@@@@@@@@ ",
"                         ....++++++++.......    ....+++@@@@@@@@ ",
"                         ....++++++++.......    ....+++@@@@@@@@ ",
"                                 @@@@++++++++++++++++++++++     ",
"                                 @@@@++++++++++++++++++++++     ",
"                                 @@@@++++++++++++++++++++++     ",
"                                 @@@@++++++++++++++++++++++     ",
"                                     @@@+++++++++++++++++++     ",
"                                     @@@+++++++++++++++++++     ",
"                                     @@@+++++++++++++++++++     ",
"                  ....#######           ++++++++$$$$+++$$$$     ",
"                  ....#######           ++++++++$$$$+++$$$$     ",
"                  ....#######           ++++++++$$$$+++$$$$     ",
"                  ....#######           ++++++++$$$$+++$$$$     ",
"                  ....#######           ++++++++$$$$+++$$$$     ",
"              ....+++++++####           ++++++++$$$$+++$$$$     ",
"              ....+++++++####           ++++++++$$$$+++$$$$     ",
"              ....+++++++####           ++++++++$$$$+++$$$$     ",
"              ....+++++++####           ++++++++$$$$+++$$$$     ",
"          ....+++++++++++@@@@           ###################$$$$ ",
"          ....+++++++++++@@@@           ###################$$$$ ",
"          ....+++++++++++@@@@           ###################$$$$ ",
"          ....+++++++++++@@@@           ###################$$$$ ",
"          ++++++++++++@@@        .......++++################### ",
"          ++++++++++++@@@        .......++++################### ",
"          ++++++++++++@@@        .......++++################### ",
"          @@@@++++++++   ........+++++++++++++++++++            ",
"          @@@@++++++++   ........+++++++++++++++++++            ",
"          @@@@++++++++   ........+++++++++++++++++++            ",
"          @@@@++++++++   ........+++++++++++++++++++            ",
"          @@@@++++++++   ........+++++++++++++++++++            ",
"              @@@@++++...+++++++++++++++############            ",
"              @@@@++++...+++++++++++++++############            ",
"              @@@@++++...+++++++++++++++############            ",
"              @@@@++++...+++++++++++++++############            ",
"                  @@@@++++++++++++++++++++++####++++            ",
"                  @@@@++++++++++++++++++++++####++++            ",
"                  @@@@++++++++++++++++++++++####++++            ",
"                  @@@@++++++++++++++++++++++####++++            ",
"                      +++@@@@@@@@@@@@@@@++++@@@@++++            ",
"                      +++@@@@@@@@@@@@@@@++++@@@@++++            ",
"                      +++@@@@@@@@@@@@@@@++++@@@@++++            ",
"                      +++    ++++       ++++    ++++            ",
"                      +++    ++++       ++++    ++++            ",
"                      +++    ++++       ++++    ++++            ",
"                      +++    ++++       ++++    ++++            ",
"                      +++    ++++       ++++    ++++            ",
"                      $$$    $$$$       $$$$    $$$$            ",
"                      $$$    $$$$       $$$$    $$$$            ",
"                      $$$    $$$$       $$$$    $$$$            ",
"                      $$$    $$$$       $$$$    $$$$            "};
