/* XPM */
static char * FoxB_xpm[] = {
"192 64 6 1",
" 	c None",
".	c #000000",
"+	c #993800",
"@	c #CE7D01",
"#	c #DA9D63",
"$	c #FFFFFF",
"                                                                                                                                                                                                ",
"                                                                                                                                                                                                ",
"                                                                                                                                                                                                ",
"                                                                                                                                                                                                ",
"                                                                                                                                                                                                ",
"                                                                                                                                                                                                ",
"                                                                                                                                                                                                ",
"                                                                                                                                                                                                ",
"                                                                                                                                                                                                ",
"                                                                                                                                                                                                ",
"                                                                                                                                                                                                ",
"                                                                                                                                                                                                ",
"                                                                                                                                                                                                ",
"                                                                                                                                                                                                ",
"                                                                                                                                                                                                ",
"                                                                                                                                                                                                ",
"                                                                                                                                                                                                ",
"                                                                                                                                                                                                ",
"                                                                                                                                                                                                ",
"                                                                                                                                                                                                ",
"                                                                                                                                                                                                ",
"                                                                                                                                                                                                ",
"                                                                                                                                                                                                ",
"                                                                                                                                                                                                ",
"                                                                                                                                                                                                ",
"                                                                                                                                                                                                ",
"                                                                                                                                                                                                ",
"                                                                                                                                                                                                ",
"                                                                                                                                                                                                ",
"                                                                                                                                                                                                ",
"                                                                                                                                                                                                ",
"                                                                                                                                                                                                ",
"                                                                                                                                                                                                ",
"                                                                                                                                                                                                ",
"                                                                                                                                                                                                ",
"                                                                                                                                                                                                ",
"                                                                                                                                                                                                ",
"                                                                                                                                                                                                ",
"                                                                                                                                                                                                ",
"                                                                                                                                                                                                ",
"                                                                                           .       .                                                                                            ",
"                                                                                         ...       ..                                                                                           ",
"                                                                                        ....       ....                                                                                         ",
"                           .       .                                                    ...+++++++++...                                                    .       .                            ",
"                         ...       ..                                                   .++++++++++++..                                                  ...       ..                           ",
"                        ....       ....                                                 +++++++++++++++                                                 ....       ....                         ",
"                        ...+++++++++...                                                 +@@#########+++                                                 ...+++++++++...                         ",
"                        .@@@@@@@@@@@+..                                                 @##########@@                                                   .@@@@@@@@@@@+..                         ",
"                        +@@#########+                                                   ####@@@@@@@@@@@                                                 +@@#########+                           ",
"                        ####@@@@@@@@@                                                  ####@@@@@@@@@@@@@                                                ####@@@@@@@@@                           ",
"                       ####@@@@@@@@@@@@                                              ####@@@@@@@@@@@@@@+                                               ####@@@@@@@@@@@@                         ",
"                     ####@@@@@@@@@@@@@@@                                             ###@@@@@@@@@@@@@+++                                             ####@@@@@@@@@@@@@@@                        ",
"                     ###@@@@@@@@@@@@@@@+                                             @@@@@@#####@@@@++++                                             ###@@@@@@@@@@@@@@@+                        ",
"                       @@@@@@##@@@@@@+++                                               @@##@#@@@@@@+++++                                             @@@@@@@@##@@@@@@+++                        ",
"                     @@@########@@@@++++                                             @@@#@@@@+++@+++++++                                             @@@@@@@####@@@@++++                        ",
"                   #####@@@@@@@+@@@+++++                                            ####@@@@+++@+++++++                                              @@@@@@#@@@+@@@+++++                        ",
"             $$$$$$@@##@@@@++++++++++++                                            ####@@@@++++@+++++                                                @@@@##@@++++++++++                         ",
"             $$$$@@@@@@@@++++@@@+++++                                            $$##@@@@++++   @@@@+                                                @@@#@@@@++++++++                           ",
"             $$$@@@@+++++@@@+++ @@@@+                                           $$$$@@@@+++@+   @@@@+                                                ###@@@@+++ @@@@+                           ",
"               $+++++  ++@@@+   @@@@+                                           $$$$$++++@@@+   @@@@...                                              $$#@@@++   @@@@+                           ",
"                ++++    @@@@.   @@@@+..                                         $$$$+++  ..@+   @@@..                                               $$$$@+++.   @@@@+..                         ",
"                        @..@.   @@@.+..                                                  ...+   +...                                                $$$$$++..   @@@.+..                         ",
"                        ....    +....                                                    ....   ....                                                $$$$ ...    +....                           ",
"                         ....   ....                                                                                                                    ....    ....                            "};
