/* XPM */
static char * FoxL_xpm[] = {
"192 64 7 1",
" 	c None",
".	c #000000",
"+	c #DC8934",
"@	c #DA9D63",
"#	c #993800",
"$	c #CE7D01",
"%	c #FFFFFF",
"                                                                                                                                                                                                ",
"                                                                                                                                                                                                ",
"                                                                                                                                                                                                ",
"                                                                                                                                                                                                ",
"                                                                                                                                                                                                ",
"                                                                                                                                                                                                ",
"                                                                                                                                                                                                ",
"                                                                                                                                                                                                ",
"                                                                                                                                                                                                ",
"                                                                                                                                                                                                ",
"                                                                                                                                                                                                ",
"                                                                                                                                                                                                ",
"                                                                                                                                                                                                ",
"                                                                                                                                                                                                ",
"                                                                                                                                                                                                ",
"                                                                                                                                                                                                ",
"                                                                                                                                                                                                ",
"                                                                                                                                                                                                ",
"                                                                                                                                                                                                ",
"                                                                                                                                                                                                ",
"                                                                                                                                                                                                ",
"                                                                                                                                                                                                ",
"                                                                                                                                                                                                ",
"                                                                                                                                                                                                ",
"                                                                                                                                                                                                ",
"                                                                                                                                                                                                ",
"                                                                                                                                                                                                ",
"                                                                                                                                                                                                ",
"                                                                                                                                                                                                ",
"                                                                                                                                                                                                ",
"                                                                                                                                                                                                ",
"                                                                                                                                                                                                ",
"                                                                                                                                                                                                ",
"                                                                                                                                                                                                ",
"                                                                                                                                                                                                ",
"                                                                                                                                                                                                ",
"                                                                                                                                                                                                ",
"                                                                                                                                                                                                ",
"                                                                                                                                                                                                ",
"                                                                                   .                                                                                                            ",
"                                                                                .++.                                                                                                            ",
"                                                                               @@##..                                                                                                           ",
"                   .                                                         @@@@##..                                                              .                                            ",
"                .++.                                                           @@##@.                                                           .++.                                            ",
"               @+##..                                                      @ @@$@+++###                                                        @+##..                                           ",
"             @@@+##..                                                    @@@@@@$$@@@#$$@                                                     @@@+##..                                           ",
"               @+##@.                                                  @@@@$...%@$$$$$$@@@@@                                                   @+##@.                                           ",
"           @ @@$++++### @                                            @@@$$$$@@@@$$$$$$$$@@@@@  @@@@@@@@@@@@@@@@@@                          @ @@$++++### @                                       ",
"         @@@@@@$$++@#$$@@@@                                         .@@$$$$$$$$$$$$$$###@@@@@@@$@@@$@@@@@@@@@$$@@@@                      @@@@@@$$+++#$$@@@@                                     ",
"       @@@@$...%@$$$$$$@@@@@@@@@@@@@@@@@@@@@@@@@                    @@@$$$$$$$$$$##$$$$$####$$$$$$$$$$$##$$$$$$$$@@@@                  @@@@$...%@$$$$$$@@@@@@@@@@@@@@@@@@@@@@@@@@               ",
"     @@@$$$$@@@@$$$$$@@$$$$$$@@$$@@$@$$$$$$@$$$@@@@                  $$$#########$$$$$$$#####$$$$$$$$$$#####$$$##@@@$@@              @@@$$$$@@@@$$$$$$$$$$$$$@@$$$$$$$$$$$$@$$$@$@@  @@         ",
"    .@@$$$$$$$$$$$$$$#######$$$$$$$$$######$$$$$@@@@                         %%%%$$$$$$$$$$$###$$$$$$$$$$###$######$$$$@            .@@$$$$$$$$$$$$$$#######$$$$$$$$$######$$$$$$$$@@@@@        ",
"    @@@$$$$$$$$$$$$#$$$$$$$$###$$$$$$$$$$###$$$#$$$$@                           %%%%$$$$$$$$$$$#####$$$$$$$$#### ###$$$$@           @@@$$$$$$$$$$$$#$$$$$$$$###$$$$$$$$$$###$$$##$$$$@@@@       ",
"     $$$###########$$$$$$$$$$######$$$$$$$$######$$$$@@                          %%%%$$$$$$$$########$$$$$$$$###   ##$$$@@@          $$$###########$$$$$$$$$$######$$$$$$$$#########$$$@@@@     ",
"             %%%%%%$$$$$$$$$$#######$$$$$$$$#######$$$$@                           %%%%$$$$$###########$$$$$$###    ###$@@@                  %%%%%%$$$$$$$$$$#######$$$$$$$$####   #$$$$@@@     ",
"                %%%%%$$$$$$$#########$$$$$$$$### ###$@@@                            %%%$$$$##############$$$$###    ###$@%%                     %%%%%$$$$$$$#########$$$$$$$$###    ###$@@@@    ",
"                 %%%%%%$$$$##############$$$$###   #$$$$@                            $$$$$$######  ##  ####$$##      ##$%%%%                     %%%%%%$$$$############$$$$$$###     ##$$@@@    ",
"                    %%%$$##################$$$$#   #$$$$@@@                            $$$$$####        ###$$##        %%%%%                        %$$$$$$##########$$$$$$$####       #$$$%    ",
"                     $$$$$$####      ######$$$$$#   ###$@%%                             .$$$ ..#        .## .##         %%%                          $$$$$$$###      $$$$$$######       #%%%%   ",
"                     ..$$####..      ######  $$$$    ##$%%%                             ...  ...        ... ...                                      ..#$$$$$##      $$$$### ####       %%%%%   ",
"                    ....#####...     ..##      $.      %%%%                             ... ....       .... ...                                     ...#$$$..##      ...#      #.        %%%%   ",
"                    ...     #...    ...#       ....                                    .... ...        ..  ..                                       ...     ...     ...        ....             ",
"                   ..       ...    ....          ...                                   ..                  ..                                      ..        ...   ..            ...            ",
"                   ..       ...    ..            ...                                                                                               ..        ...   ..            ...            "};
