/* XPM */
static char * Grass64_xpm[] = {
"64 64 47 1",
" 	c #B0905D",
".	c #938652",
"+	c #978753",
"@	c #87824E",
"#	c #767D48",
"$	c #6C7B45",
"%	c #697A43",
"&	c #677A43",
"*	c #797E49",
"=	c #8B834F",
"-	c #8D8450",
";	c #6A7A44",
">	c #6F7F46",
",	c #8A954F",
"'	c #778248",
")	c #717E46",
"!	c #718147",
"~	c #838F4C",
"{	c #778648",
"]	c #88934E",
"^	c #98A154",
"/	c #7F804B",
"(	c #83914C",
"_	c #959F53",
":	c #81904B",
"<	c #8C9850",
"[	c #7B8949",
"}	c #919C51",
"|	c #8C844F",
"1	c #7F8D4B",
"2	c #909B51",
"3	c #6F8046",
"4	c #6B7C45",
"5	c #87944D",
"6	c #84924C",
"7	c #8C994F",
"8	c #748447",
"9	c #9A9F55",
"0	c #788748",
"a	c #808F4B",
"b	c #7C8A49",
"c	c #737D48",
"d	c #8C964F",
"e	c #AF8F5C",
"f	c #747B47",
"g	c #798149",
"h	c #AF905D",
"        ....++++@@@@####$$$$%%%%&&&&&&&&%%%%....****....        ",
"        ....++++@@@@####$$$$%%%%&&&&&&&&%%%%....****....        ",
"        ....++++@@@@####$$$$%%%%&&&&&&&&%%%%....****....        ",
"        ....++++@@@@####$$$$%%%%&&&&&&&&%%%%....****....        ",
"    ....====----;;;;;;;;&&&&>>>>,,,,$$$$''''))));;;;;;;;....    ",
"    ....====----;;;;;;;;&&&&>>>>,,,,$$$$''''))));;;;;;;;....    ",
"    ....====----;;;;;;;;&&&&>>>>,,,,$$$$''''))));;;;;;;;....    ",
"    ....====----;;;;;;;;&&&&>>>>,,,,$$$$''''))));;;;;;;;....    ",
"....########;;;;!!!!~~~~{{{{]]]]]]]],,,,^^^^^^^^%%%%;;;;;;;;////",
"....########;;;;!!!!~~~~{{{{]]]]]]]],,,,^^^^^^^^%%%%;;;;;;;;////",
"....########;;;;!!!!~~~~{{{{]]]]]]]],,,,^^^^^^^^%%%%;;;;;;;;////",
"....########;;;;!!!!~~~~{{{{]]]]]]]],,,,^^^^^^^^%%%%;;;;;;;;////",
"****;;;;;;;;>>>>((((^^^^____,,,,::::,,,,<<<<[[[[}}}}^^^^;;;;||||",
"****;;;;;;;;>>>>((((^^^^____,,,,::::,,,,<<<<[[[[}}}}^^^^;;;;||||",
"****;;;;;;;;>>>>((((^^^^____,,,,::::,,,,<<<<[[[[}}}}^^^^;;;;||||",
"****;;;;;;;;>>>>((((^^^^____,,,,::::,,,,<<<<[[[[}}}}^^^^;;;;||||",
"****;;;;>>>>^^^^11112222((((33331111(((((((([[[[,,,,____4444>>>>",
"****;;;;>>>>^^^^11112222((((33331111(((((((([[[[,,,,____4444>>>>",
"****;;;;>>>>^^^^11112222((((33331111(((((((([[[[,,,,____4444>>>>",
"****;;;;>>>>^^^^11112222((((33331111(((((((([[[[,,,,____4444>>>>",
"$$$$&&&&,,,,____5555((((((((((((((((((((((((((((666677778888!!!!",
"$$$$&&&&,,,,____5555((((((((((((((((((((((((((((666677778888!!!!",
"$$$$&&&&,,,,____5555((((((((((((((((((((((((((((666677778888!!!!",
"$$$$&&&&,,,,____5555((((((((((((((((((((((((((((666677778888!!!!",
";;;;&&&&99990000aaaa((((((((((((((((((((((((::::[[[[,,,,bbbbcccc",
";;;;&&&&99990000aaaa((((((((((((((((((((((((::::[[[[,,,,bbbbcccc",
";;;;&&&&99990000aaaa((((((((((((((((((((((((::::[[[[,,,,bbbbcccc",
";;;;&&&&99990000aaaa((((((((((((((((((((((((::::[[[[,55,bbbbcccc",
"4444$$$$^^^^((((((((((((44;;(((((((((((({{{{{{{{{{{{555,!!!!;;;;",
"4444$$$$^^^^((((((((((((44;;(((((((((((({{{{{{{{{{{{555,!!!!;;;;",
"4444$$$$^^^^((((((((((((;;;;(((((((((((({{{{{{{{{{{{5,,,!!!!;;;;",
"4444$$$$^^^^((((((((((((;;;;(((((((((((({{{{{{{{{{{{,,,,!!!!;;;;",
";;;;$$$$9999((((((((((((((((((((((((((((((((((((>$$$6666'''';;;;",
";;;;$$$$9999(((((((((((((((((((((((((((((((((((($$$$6666'''';;;;",
";;;;$$$$9999(((((((((((((((((((((((((((((((((((($$$$6666'''';;;;",
";;;;$$$$9999(((((((((((((((((((((((((((((((((((($$$$6666'''';;;;",
";;;;))))9999[[[[6666((((>>>>1111(((((((((((([[[[::::<<<<0000$;;$",
";;;;))))9999[[[[6666((((>>>>1111(((((((((((([[[[::::<<<<0000$;$$",
";;;;))))9999[[[[6666((((>>>>1111(((((((((((([[[[::::<<<<0000$$$$",
";;;;))))9999[[[[6666((((>>>>1111(((((((((((([[[[::::<<<<0000$$$$",
"****&&&&^^^^!!!!{{{{(((([[[[::::(((((((((((([[[[bbbb((((!!!!{{{{",
"****&&&&9999!!!!{{{{(((([[[[::::(((((((((((([[[[bbbb((((!!!!{{{{",
"****&&&&9999!!!!{{{{(((([[[[::::(((((((((((([[[[bbbb((((!!!!{{{{",
"****&&&&^^^9!!!!{{{{(((([[[[::::(((((((((((([[[[bbbb((((!!!!{{{{",
"))))%%%%88))}}}}((((((((6666(((([[[[[[[[((((((((6666<<<<&&&&8888",
"))))%%%%8888}}}}((((((((6666(((([[[[[[[[((((((((6666<<<<&&&&8888",
"))))%%%%8888}}}}((((((((6666(((([[[[[[[[((((((((6666<<<<&&&&8888",
"))))&&%%888)2}}}66666(((5555(((([[[[[[[[(((66(((6666<<<<%&%&8888",
";;;;&&%%&&&&<<<<____,,,,((((1111::::::::66666666^^^^<222$$$$####",
";;;;&&&&&&&&<<<<____,,,,~~(~1111::::::::6666]666^^^^<<<2$$$$####",
";;;;&&&&&&&&2<<<____,,,,~~~~1111::::::::6666]666^^^^<<<<$$$$####",
";;;;%%%%&&&&2222____,,,,~~~~1111::::::::66666666^^^^<<<<$$$$####",
"####>>>>&&%%>>>>]]]]____,,,,,,,,}}}}____,,,,<<<<____&&&&))));;;;",
"####>>>>&&%%>>>>]]]]____,,,,,,,,}}}}____,,,,<<<<____&&&&))));;;;",
"####>>>>%%%%>>>>]]]]____,,,,,,,,}}}}____,,,,<<<<____&&&&))));;;;",
"####>>>>%%%%>>>>]]]]____d,,,dddd}}}}____,,,,<<<<____&&&&))));;;;",
"eeee$$$$;;;;;;;;;;;;ffffgggg$$$$~~~~dddd!!!!;;;;&&&&####))))eeee",
"eeee$$$$;;;;;;;;;;;;ffffgggg$$$$~~~~dddd!!!!;;;;&&&&####))))eeee",
"eeee$$$$;;;;;;;;;;;;ffffgggg$$$$~~~~dddd!!!!;;;;&&&&##*#))))eeee",
"eeee$$$$;;;;;;;;;;;;ffffgggg$$$$~~~~dddd!!!!;;;;&&&%*#*#))))eeee",
"    hhhh||||))));;;;;;;;;;;;$$$$;;;;;;;;%%%%;;;;;;;;****....    ",
"    hhhh||||))));;;;;;;;;;;;$$$$;;;;;;;;%%%%;;;;;;;;****....    ",
"    hhhh||||))));;;;;;;;;;;;$$$$;;;;;;;;%%%%;;;;;;;;****....    ",
"    hhhh||||))));;;;;;;;;;;;$$$$;;;;;;;;%%%%;;;;;;;;****....    "};
