/* XPM */
static char *b348dd9a545c40d79f85be4a024707c4HYBWfDAY85J5wSov[] = {
/* columns rows colors chars-per-pixel */
"64 64 3 1 ",
"  c #A6845D",
". c #B0905D",
"X c #BD9964",
/* pixels */
"................................................................",
"................................................................",
"................................................................",
"................................................................",
"................................................................",
"................................................................",
"................................................................",
"................................................................",
"................        ........XXXX............................",
"................        ........XXXX............................",
"................        ........XXXX............................",
"................        ........XXXX............................",
"................        ........................................",
"................        ........................................",
"................        ........................................",
"................        ........................................",
"................................................        ........",
"................................................        ........",
"................................................        ........",
"................................................        ........",
"................................................        ........",
"................................................        ........",
"................................................        ........",
"................................................        ........",
"................................................................",
"................................................................",
"................................................................",
"................................................................",
"........................................XXXX....................",
"........................................XXXX....................",
"........................................XXXX....................",
"........................................XXXX....................",
"................................................................",
"................................................................",
"................................................................",
"................................................................",
"................XXXXXXXX........................................",
"................XXXXXXXX........................................",
"................XXXXXXXX........................................",
"................XXXXXXXX........................................",
"................XXXXXXXX........................................",
"................XXXXXXXX........................................",
"................XXXXXXXX........................................",
"................XXXXXXXX........................................",
"....................................        ....................",
"....................................        ....................",
"....................................        ....................",
"....................................        ....................",
"....................................        ............        ",
"....................................        ............        ",
"....................................        ............        ",
"....................................        ............        ",
"............................    ........................        ",
"............................    ........................        ",
"............................    ........................        ",
"............................    ........................        ",
"................................................................",
"................................................................",
"................................................................",
"................................................................",
"................................................................",
"................................................................",
"................................................................",
"................................................................"
};
